<svg width="134" height="74" fill="none" xmlns="http://www.w3.org/2000/svg"><path d="M5.4 63.5H0v-3.3h14.6v3.3H9.3v9h-4v-9zM29.6 60.2v12.3h-3.8v-7.1l-6.5 7.2H16V60.2h3.8v7.2l6.5-7.2h3.3zM36.1 72.6h-3.8V60.2h3.8v4.6h6v-4.6H46v12.4h-3.7V68h-6v4.6zM48.7 72.6V60.2h3.7v3.3h4c.9 0 1.8.1 2.7.4a4.2 4.2 0 012.8 4.1 4.3 4.3 0 01-3.2 4.3l-2.4.3h-7.6zm3.7-3h3.3c.5 0 1 0 1.5-.2a1.6 1.6 0 00.7-2.3c-.2-.3-.5-.5-.8-.5-.5-.2-1-.2-1.4-.2h-3.3v3.2zM67.4 72.6h-3.8V60.2h3.8v4.7h1l4.6-4.7h4.7l-6 6 6.3 6.4h-5l-4.5-4.7h-1v4.7z" fill="#656565"/><path d="M94 66.4c0 3.7-3.1 6.6-8.2 6.6-5 0-8-3-8-6.6 0-3.7 3-6.6 8-6.6 5.2 0 8.1 2.9 8.1 6.6zm-4 0c0-2-1.7-3.5-4.2-3.5s-4.1 1.5-4.1 3.5 1.6 3.5 4.1 3.5c2.6 0 4.2-1.5 4.2-3.5zM114 66.4c0 3.5-2.9 5.4-7.6 5.5V73h-3.8V72c-4.7-.1-7.6-2-7.6-5.5 0-3.6 2.9-5.6 7.6-5.7v-1.2h3.8v1.2c4.7.1 7.6 2.1 7.6 5.7zm-11.4-3c-2.6.1-3.8 1.3-3.8 3 0 1.6 1.2 2.7 3.8 2.8v-5.8zm7.5 3c0-1.7-1.1-2.9-3.7-3v5.8c2.6-.1 3.7-1.2 3.7-2.8zM134 66.4c0 3.5-2.8 5.4-7.6 5.5V73h-3.8V72c-4.7-.1-7.5-2-7.5-5.5 0-3.6 2.8-5.6 7.5-5.7v-1.2h3.8v1.2c4.8.1 7.6 2.1 7.6 5.7zm-11.4-3c-2.6.1-3.7 1.3-3.7 3 0 1.6 1.1 2.7 3.7 2.8v-5.8zm7.5 3c0-1.7-1-2.9-3.7-3v5.8c2.6-.1 3.7-1.2 3.7-2.8z" fill="#656565"/><path fill-rule="evenodd" clip-rule="evenodd" d="M55.8 33.4c.6-.6 1.2-.8 1.2-2.2-1 .6-3.9.5-5.1-1.1-.3-.5 0-.7.3-.4.9 1 2.4.6 3 .3-.1-.4-.3-.7-.6-1 .2-.2.8-.5 1-1l-1.6-.3a1 1 0 00.3-1.1c-1.3.4-2.8-.2-3.2-.6-.3-.5 0-1 .3-.6.7.6 3.7 1.4 4.9.2-.4 0-.8-.3-1-.7 1 0 1.9-.7 2-1.5-.8 0-1.5 0-2.1-.3a1.3 1.3 0 001-1c-2 0-2.1-1.5-2.1-1.7 1.2.7 3.4.4 2.9-1.4-1 0-2.1-1.8.8-3.3 2.6-1.5 5.6-3 5.3-5.5-.2-1.6-2.8-2.7-3.2-3.5-1 .5-1.3 1-.8 2.1 0 0-2.5.3-2.7-1.3a2.3 2.3 0 01.9-1.8c-.3 0-2.2-.5-2.7 1-1-.7-2-.7-2.7.1 1.2.6 1.9 3 3.7 3.6-1.3.7-3.4.4-4.7-1.8-1.2 1.8-1.8 3.6.7 5.4-4.6 2.1-4.6 6.1-8.6 8 .4 1.1 1.3 1.1 2.4 1-1.8 2.2-.3 4.6-3 5.5.2 1 .7 1.7 1.7 1.4-.2.4-.4.4-.9 1 1.5.9 3.3.2 3.7-2.8 0-.6.8-.2.6.3-1.7 3.5 2.6 6.2 1 8.7 1.4 0 2.4-.1 3-.6.3.5.4 1 .4 1.6a1.2 1.2 0 001-1c.5 1.4 2.2 2.9 5 2.9-1.4-2.1 0-4.3-2.2-6.7h.1zM53 35.9l-.6 1a13 13 0 00-.9-1.8c-.4 1-1.2 1-2 1 .3-2.3-2.7-4.7-1.4-7.4a1 1 0 00-.4-1.5c-2-1-1.1 3.2-3 3.3l.5-1.5c-.4 0-1.4.7-1.9-.1a3.3 3.3 0 001.7-2.5c0-.8.3-1.6.5-2.3l1.5-2c-.2 0-2.4.4-3 .2 4-2.4 3-5.4 9-8.1-1.6-1.2-3.2-2-2-4.3 1.6 2 4.7 1.3 6.3.4-1.6-.3-3.7-1.8-4.2-3.4.6 0 1.4.6 1.8 1 .3-.7.3-1.4 1-1.5-.9 2 1 3.1 2.8 3.1l1.5-.1c-.2-.4-1-1.4-.4-1.9l1.4 1.1c3.5 2.8-1.7 5.3-3.8 6.4-3.3 1.8-2.4 4-1 4.5 0 .2-.2.4-.4.4-1 .4-1.9-.3-2.7-.8 0 1.4 0 2.6 1.5 3.4l-1 .4c.8.6 1 1 2.2 1.1-.6.2-1.1.3-1.7.3l.5 1.2c-2.1.3-3-1-3.7-1-1.4.2-1.3 2.9 2.2 2.9l-.3.6c.4.2.8.4 1.3.4l-.7.7.6.5c-1.5.2-1.9-1.3-2.8-.6-1.4 1.2 1.7 3.5 4.7 3.2l-1.3 1c2.5 2.3 1.3 4.5 2.3 6.1a4.4 4.4 0 01-4-3.3" fill="#656565"/><path fill-rule="evenodd" clip-rule="evenodd" d="M49.2 27.5c.5.6 1.1.6 2.3.5-1.3-.1-2-.4-2.5-1.3l-.1-1.4c0-1.6.5-3.3 1.3-4.7a3.3 3.3 0 002.9 3.1c-1.8-.7-2.8-2.5-2.3-4.1l1.3-1.8.6-.9c-.2.9.8 1.8 1.5 2-.4-.5-1.2-1.6.7-3.6-.6.2-1 .5-1.6.9 3.4-3.6 6.2-3.7 7.5-5.6-1.9 1.3-6.8 2-9 1.4 1.3.8 4.2.7 4.9.5-2.4 2.4-7.6 4.8-8.5 6.9a6 6 0 013.2-2c-.8 1.1-1.6 2.4-2.2 3.7-1.3 3-3.2 3-3.3 5.5.6-2 1.9-2.4 2.8-3.6-.2.9-.3 1.8-.2 2.7 0 1 .2 2 .6 3-.1 1.2 0 3.3 1.4 4.7a6.3 6.3 0 01-1-4c1 2.2 4.2 5.1 5.7 7-1.5-2.5-5.2-5.4-6-8.8M83.9 17.3a6 6 0 013.1 2c-.9-2-6-4.5-8.4-6.8.7.2 3.6.2 4.8-.6-2.2.6-7 0-8.9-1.3 1.3 1.8 4 2 7.4 5.6l-1.5-1c1.9 2 1 3.2.7 3.6.6-.2 1.7-1 1.4-1.9l.7.8 1.2 1.8c.6 1.7-.4 3.4-2.2 4.2a3.3 3.3 0 002.8-3.1c.9 1.4 1.3 3 1.4 4.7l-.2 1.4c-.4.9-1.1 1.2-2.4 1.3 1.1 0 1.8 0 2.3-.5-.8 3.4-4.5 6.4-6 9 1.5-2 4.6-5 5.7-7.1 0 1.4-.3 2.7-1 3.9 1.3-1.4 1.4-3.5 1.3-4.7.4-1 .6-2 .6-3 0-.9 0-1.8-.2-2.7 1 1.3 2.2 1.7 2.8 3.7 0-2.5-2-2.6-3.3-5.6a21 21 0 00-2.2-3.7" fill="#656565"/><path fill-rule="evenodd" clip-rule="evenodd" d="M89.9 23c1 .2 2 .2 2.3-1-4-1.8-4-5.8-8.5-8 2.5-1.8 1.8-3.6.6-5.3-1.2 2.2-3.4 2.5-4.7 1.7 1.9-.6 2.6-3 3.7-3.6-.7-.7-1.6-.8-2.6 0-.6-1.6-2.5-1.1-2.7-1.1a2.3 2.3 0 01.8 1.8c-.2 1.5-2.6 1.3-2.6 1.3.5-1 .2-1.6-.9-2.2-.3.9-3 2-3.1 3.6-.3 2.5 2.7 4 5.3 5.4 2.9 1.6 1.8 3.3.8 3.4-.6 1.8 1.6 2 2.9 1.3 0 .3-.2 1.7-2.1 1.8a1.3 1.3 0 001 1c-.7.2-1.4.4-2 .3 0 .8.8 1.4 1.9 1.5-.3.4-.6.6-1 .8 1.1 1 4.2.3 4.8-.3.3-.3.7.1.3.6-.3.4-1.9 1-3.1.6a1 1 0 00.3 1.1c-.6 0-1 .2-1.6.3.1.5.7.9 1 1-.3.3-.5.6-.6 1 .6.3 2.1.7 3-.3.2-.3.6 0 .3.4-1.2 1.7-4.1 1.7-5.1 1.2 0 1.3.5 1.5 1.2 2-2.1 2.5-.7 4.6-2.2 6.7 2.8 0 4.5-1.5 5-3a1.2 1.2 0 001 1.2c0-.6.2-1.1.4-1.6.6.4 1.6.5 3 .6-1.5-2.6 2.8-5.3 1-8.8-.2-.5.5-.9.6-.3.4 3 2.2 3.7 3.7 2.8-.5-.5-.7-.5-1-1 1 .3 1.6-.4 1.9-1.4-2.8-1-1.3-3.3-3-5.5zm.2 6c0 .5.3 1 .6 1.6-2-.2-1.1-4.4-3.1-3.4a1 1 0 00-.5 1.5c1.3 2.7-1.6 5-1.5 7.5-.7 0-1.5 0-2-1a13 13 0 00-.8 1.8l-.6-1a4.4 4.4 0 01-4 3.3c1-1.6-.2-3.7 2.2-6l-1.2-1c3 .3 6.1-2.1 4.7-3.2-1-.8-1.3.8-2.8.5l.6-.5-.7-.6a4 4 0 001.3-.5l-.3-.6c3.5 0 3.6-2.7 2.1-2.8-.6 0-1.5 1.2-3.7 1 .3-.4.5-.8.6-1.3-.6 0-1.1 0-1.7-.3 1-.1 1.3-.5 2.2-1.1l-1-.4c1.5-.7 1.4-2 1.4-3.4-.7.5-1.6 1.2-2.6.8-.2 0-.4-.1-.4-.4 1.4-.5 2.3-2.7-1-4.5-2.2-1.1-7.4-3.6-3.9-6.3l1.5-1.1c.5.4-.2 1.4-.4 1.8l1.4.1c1.9 0 3.8-1 2.8-3 .7 0 .8.7 1 1.3.5-.3 1.3-1 1.9-.8-.5 1.6-2.6 3-4.3 3.3 1.7 1 4.8 1.6 6.4-.3 1.1 2.2-.5 3-2 4.2 5.9 2.7 5 5.7 8.9 8.1-.5.2-2.8-.2-3-.3l1.5 2.1c.3.8.5 1.5.6 2.3a3.3 3.3 0 001.7 2.5c-.5.9-1.5.2-2 .1M62 35.6l.8-.7v-.3c-.2-.2-.1-.2 0-.3l.4-.3a.4.4 0 01.3 0l1.3.3h-1.3a.5.5 0 00-.6.4v.2l-.4.7a.8.8 0 00.1 1l.3.3-.5 1h.4l.3-.7c.3-.3.6-.6.7-1-.2-.1-.3-.2-.2-.4l.2-.3c0-.1 0-.2.2-.2l1.4.4a.5.5 0 00.6-.2c.2-.3.3-.3.7-.2h.7c.8.2 1.6 0 2.3-.4l.5.8v.3l-.8 2h1.2l.7-1.8.3-.4L71 38h1.2l.4-2c0-.5 0-.7-.2-.9-.5-.4-.5-1.3-.7-1.8h.3c.3 0 .5.6.8 1 .6 1 1.4 1.9 2.4.5l-.3-.4-.3-.3-1.2-1.3a1.8 1.8 0 00-2.2-.3c-1-.5-2 0-2.3 0h-1.6a.3.3 0 01-.3-.2l.3-.1c-.3-1.3-1-2.3-2.3-2.4 0 0 0-.4-.3-.5l-.4.4-.3.1-1.6-.6 1.2 1.3-.8 1a.3.3 0 000 .5l.2.3c.2.2.3.2.5 0h.3c0-.2.5 0 .6-.1l-.1 1-1.1-.2a.6.6 0 00-.5.1l-1 .7a.8.8 0 00-.2 1l.4.9zm9.1.2l-.7 1.8h-.5l.7-1.8c.1-.2 0-.3-.2-.5l.8.3v.2zm-7.2-4l-.2.1c-.2 0-.2.1-.4 0v-.1a.2.2 0 010-.3l.9-1.1-.8-.7 1 .4.4-.5c.2 0 .1.4.1.4a2.2 2.2 0 011.8 2.2c.1.2.3.4.6.4l1.9.1c.3 0 1-.6 2 0l.8-.3a2.4 2.4 0 012 1.2l.9 1.1c-.2.3-.4.3-.6.3a.9.9 0 01-.4-.7 2 2 0 00-.7-.8c.2.3.3.6.3 1-.7-.8-.8-1.7-1.4-1.8a.7.7 0 00-.7.4c.3.5.3 1.3.5 1.7l.3.5c.3.1.1.4.1.6l-.3 1.7h-.4l.3-1.7c0-.5-1.4-.5-2.1-1.5-.7.8-2.4.6-3.2.5a.6.6 0 00-.8.3c0 .1-.3 0-.4 0L64 35a.3.3 0 00-.4 0v.2l-.3.5a.3.3 0 000 .4l.2.1c0 .2-.2.4-.4.5l-.3-.3a.6.6 0 010-.7l.5-1a.4.4 0 01.3-.1h1.7l-.5-.9c-.4-.6.3-1.8.2-2.3 0 .7-1 .4-1.1.4zM62 34l.8-.7a.5.5 0 01.5-.1l1.1.1.3.6-1.3-.3a.4.4 0 00-.4.1l-.5.5a.3.3 0 00-.1.3l.1.2-.4.3-.2-.3c-.1-.3-.1-.6.1-.8M65.6 11.7l1.2.7v-.5l-1.7-.7s0 .2.5.6M66.8 11.1v-.5l-2-.7.8.6 1.2.6M66.8 10v-.6l-2.1-.8.9.7 1.2.6" fill="#656565"/><path fill-rule="evenodd" clip-rule="evenodd" d="M73 17.1h2.2a1 1 0 00-1.1-.6 1.2 1.2 0 00-1.2.6zM70.6 8.6l-2.2.8v.5l1.3-.6 1-.7M70.2 11.2l-1.8.6v.6l1.3-.7c.5-.3.5-.5.5-.5M70.4 9.9l-2 .7v.5l1.3-.6.8-.6M61.2 16.5a1 1 0 00-1 .6h2.1a1.3 1.3 0 00-1.1-.6z" fill="#656565"/><path fill-rule="evenodd" clip-rule="evenodd" d="M72 7.2c0-1.3-2-2.4-4.4-2.4-2.3 0-4.4 1.1-4.4 2.4v.3l1 5.3-4.4 2.5a2.6 2.6 0 00-1.1 1.8h.8a1.8 1.8 0 011.8-1.5c1 0 1.6.6 2.2 1.5l.2.3.2.3h-6.4c.5 1 .8 2 1 3v13.4c0 3.5 2.6 5.1 5.4 5.1 2.2 0 2.5 0 3.8 1.1 1.2-1.2 1.5-1 3.7-1 2.9 0 5.5-1.7 5.5-5.2V20.7a7 7 0 011-3h-6.5l.2-.4.1-.2c.6-.9 1.2-1.5 2.3-1.5a1.8 1.8 0 011.8 1.5h.8a2.6 2.6 0 00-1.1-1.8L71 12.8l.9-5.3v-.3zm-7.9.6l3.3 1V14L65 12.7l-.9-5zm.8 10.8c.5.6 1.2 1 2 1.2 0 .4.3.7.5 1a1.6 1.6 0 001.3 2 1.3 1.3 0 00.8 1l-.6.7a1 1 0 01-1 .4l-3-.4c.2-.3-.2-.7-1.2-.5l1.2-3.4-.7-1.6-1.4 1.2v3.5l-.7-.2c-.7-.4-1 1-.2 1h.3a.3.3 0 00.1.4.2.2 0 000 .4.3.3 0 000 .4.6.6 0 00.3 1c.4.1.7-.3.8-.6l4.7 1.4a1.6 1.6 0 001.8-.4l1.2-1a1.3 1.3 0 00.6 1.5v1H59.3v-7.9c0-.7-.2-1.4-.4-2.1h6zm5.1 3a1.6 1.6 0 00.1 1.6l-.2.2c-.9-.1-1.2-1.5-1.2-1.5v.4a1.2 1.2 0 01-.9-1.3l.7.2v-.4a1.4 1.4 0 01-1-1h-.2 1.4a1.7 1.7 0 001.2.6c-.1.4 0 .8.1 1.2zm1.3 3.5l-.2.4-.5.4a2.4 2.4 0 00-.8-1.9l.5-.5h.1a1.2 1.2 0 001 1.6zm-2.3-.2l.4-.4a2.2 2.2 0 01.8 2l-.5.3-.3.2A2.4 2.4 0 0069 25zm-1 .3h.5a2.2 2.2 0 01.2 2h-.6l-.2-.1c.3-.6.4-1.3.2-1.9zm-1-.1h.6c.1.7 0 1.3-.3 1.8l-.6-.2c.3-.5.4-1 .4-1.6zm-1.2-.2l.7.1c0 .6 0 1.1-.3 1.6l-.7-.2c.3-.4.4-1 .3-1.5zm-2.8-.2a.3.3 0 01-.4-.3 1.1 1.1 0 011 0l.6.7-.2.8a.7.7 0 01-.5-1 .4.4 0 00-.5-.2zm-.5 1.3l.5.1a.3.3 0 01-.3.3.2.2 0 01-.2-.4zm-.6-1.8a.2.2 0 010-.4c.3 0 .5.3.8.4h-.8zm.6 1.3c.2.2.6.1.6.1-.2.3-.7.2-.6 0zm.6-.3c-.3.2-.6 0-.5-.2h.5v.2zm.4-3.5l-.5 2.1.1-3.4 1-.7.4 1-1.1 3.3.3-2.2c0-.2-.1-.2-.2 0zm.1 2.6h.9s0 .3-.2.3l-.7-.3zm1 .5h.7c0 .6 0 1-.3 1.4l-.6-.2c.2-.4.2-.8.3-1.3v.1zM76 34.1a3.9 3.9 0 01-2 3.5l.4-.9H74l-.6 1.2c-.6.2-1.3.4-2 .4-2.3 0-2.9 0-3.7.9-.9-.8-1.5-1-3.8-1-.6 0-1.3 0-2-.3l.6-1.2h-.4l-.6 1-.3-.1.4-.9h-.4l-.3.7a3.9 3.9 0 01-1.6-3.3v-5H76v5zm.5-15.5a6 6 0 00-.5 2.1v7.8h-1l-.7-1.7a2.2 2.2 0 00.3 1.7h-1.2l-.5-1.8c-.4.4-.1 1.5 0 1.8h-.7l.1-1.1c-.4-.1-.8-.3-.8-.8a.6.6 0 00.5.2l.4-.3c-1.1 0-1.2-1.1-.3-1.7-.9 0-1.5-.5-1.2-1.4a1.3 1.3 0 01-.4-1.8 1.6 1.6 0 01-.2-1.6c-.4 0-.8-.1-1.2-.4a3 3 0 001.3-1h6zM73 14.8c-.9.2-1.6 1.3-2.3 2.3H70v.2c0 .8-.8 1.8-2.4 1.8-.6 0-1.2-.2-1.7-.5a2 2 0 01-.7-1.3v-.1H64.5c-.7-1-1.4-2.2-2.3-2.3l2.4-1.5 3 1.7 3-1.7 2.5 1.4zm-2.8-2.1L68 14V8.9l3.3-1.1-.9 4.9zm-2.6-4.4L64 7c.3-.7 1.7-1.3 3.5-1.3 2 0 3.3.6 3.6 1.3l-3.5 1.4z" fill="#656565"/><path fill-rule="evenodd" clip-rule="evenodd" d="M75.6 23.6v-.4c-1.2 0-1.5-1.4-1.5-1.4a1.4 1.4 0 001.5 1.8zM74 26v-.3c-1 .3-1.6-1.4-1.6-1.4a1.4 1.4 0 001.7 1.8zM74.8 24.6c-1.2.2-1.7-1.3-1.7-1.3a1.4 1.4 0 001.2 1.7 1 1 0 001.5 1.1v-.3a.8.8 0 01-1-1.2M74 20.5V20c-1.6-.3-1.4-1.4-1.4-1.4a1.4 1.4 0 001.4 1.8M63.8 36.8l-.6 1.1h.5l.5-1.1h-.4zM64.7 36.8l-.6 1.1h.4l.6-1.1h-.4zM68.2 36.8l-.6 1.1h.4l.6-1.1h-.4zM69 36.8l-.5 1.1h.4l.6-1.1H69zM67.3 36.8l-.6 1.1h.5l.5-1.1h-.4zM72.4 38h.4l.6-1.2H73l-.6 1.1zM65.6 36.8l-.6 1.1h.4l.6-1.1h-.4zM66.4 36.8l-.6 1.1h.5l.6-1.1h-.5zM64.5 30.5a.2.2 0 10.1.1.2.2 0 00-.1-.1zM67.7 4c1.4 0 2.8.4 4 1.2a8 8 0 011-2.6l-1.4.1-.8-1.6-1.4.8L67.7.5l-1.5 1.4-1.4-.8-.8 1.6-1.4-.1a8 8 0 011 2.6 6.6 6.6 0 014-1.2zm-3.4-.7L65 2l1.3.6 1.4-1.3L69 2.6l1.3-.7.6 1.5.9-.1-.6 1.2a7.6 7.6 0 00-7.3 0l-.6-1.2h.9z" fill="#656565"/><path fill-rule="evenodd" clip-rule="evenodd" d="M69.1 1.1a.4.4 0 00.4-.3l-.2-.8s-.5.5-.5.7a.4.4 0 00.3.4M71.5 2a.4.4 0 00.5-.2V1s-.6.3-.7.5a.4.4 0 00.2.5zM66.2 1.1a.4.4 0 00.3-.4c0-.2-.5-.7-.5-.7l-.2.8a.4.4 0 00.4.3M63.8 2a.4.4 0 00.2-.5c-.1-.2-.8-.5-.8-.5v.8a.4.4 0 00.6.2zM92.2 15a2 2 0 001-1.1c-1.2-.2-4.6-1.6-7.4-.5 1-1 2-1 2-2.5a1 1 0 001.6-.3c-.2-.8-1-.1-1-.4-.2-.2.8.1 1-1-.7-.3-1 .4-1.1.2-.2-.1.5-.4 0-1.3-.9.5-.4 1.1-.6 1.2-.2 0 0-.6-1-.6 0 1 .9 1 .7 1.2-.1.2-.4-.6-1.1-.2a1 1 0 001.3 1.1c0 1.6-1.5 1.3-2.6 3 2.3 1.2 3.3 3.3 4.7 4.7a8 8 0 001.3-1.8 1.8 1.8 0 002.6 0c-.5-.6-.6-1-1.4-1.7zm-2.2.3a2.6 2.6 0 01-.2 2.5c-.7-1.5-1.7-2.8-3-3.8-.2-.1.1-.4.7-.4 1.8-.4 3.8.4 4.8.6-.4.3-.8.5-1.3.6.6.4 1.1 1 1.6 1.6-.7.2-1.1-.2-2.6-1.1M75.4 41.4v-1.9c-1.8.8-3.8 1.3-5.8 1.5l-.1.6.8.1c-1.8.3-3.6.3-5.4 0h.8V41c-2-.2-4-.7-5.9-1.5v2l-2 .7c1.7.9 3.5 1.5 5.3 2l-.2.8c3.1.9 6.5.9 9.6 0l-.2-.8c1.8-.5 3.6-1.1 5.2-2l-2-.8zm-16.5.9l1.4-.6v-1.5c1.2.4 2.4.8 3.6 1l-.7 2.5c-1.5-.3-2.9-.8-4.3-1.4zm8.8 2.9c-1.5 0-3-.2-4.3-.6l.8-2.6c2.3.4 4.6.4 7 0l.7 2.6c-1.4.4-2.8.6-4.3.6zm4.4-1.5l-.8-2.5c1.3-.2 2.5-.6 3.7-1v1.5l1.3.6c-1.3.6-2.7 1-4.2 1.4M44.3 16.6a8 8 0 001.3 1.8C47 17 48 15 50.3 13.8c-1.1-1.7-2.5-1.4-2.6-3a1 1 0 001.3-1c-.7-.5-1 .3-1.1 0-.2-.1.8-.1.7-1.1-1 0-.8.6-1 .6-.2-.1.3-.7-.6-1.2-.5 1 .2 1.2 0 1.3 0 .1-.4-.5-1.2-.2.2 1 1.3.6 1.2 1-.2.4-.9-.5-1.2.4a1 1 0 001.6.3c.1 1.4 1 1.5 2.1 2.5-2.8-1.2-6.2.3-7.5.5.2.4.6.8 1.1 1-.8.8-.8 1.2-1.3 1.7 0 0 1 1.2 2.6 0zm-1.5-.2l1.6-1.7c-.5 0-1-.2-1.3-.5 1-.3 3-1 4.8-.7.5.1.9.4.7.5-1.3 1-2.3 2.3-3 3.7a2.6 2.6 0 01-.2-2.4c-1.5.9-2 1.3-2.6 1.1M66.4 15.6v.8a1 1 0 01.9-.3v1.3c0 .3-.1.6-.3.8h1.3c-.2-.2-.3-.5-.3-.8V16a1 1 0 01.9.3v-.8h-2.5z" fill="#656565"/><path fill-rule="evenodd" clip-rule="evenodd" d="M55.8 33.4c.6-.6 1.2-.8 1.2-2.1-1 .5-3.9.5-5.1-1.2-.3-.5 0-.7.3-.3.9 1 2.4.5 3 .2-.1-.3-.3-.7-.6-1 .2-.1.8-.4 1-1l-1.6-.3a1 1 0 00.3-1.1c-1.3.4-2.8-.2-3.2-.6-.3-.5 0-1 .3-.6.7.6 3.7 1.4 4.9.3-.4-.2-.8-.4-1-.8 1 0 1.9-.7 2-1.5-.8 0-1.5 0-2.1-.3a1.3 1.3 0 001-1c-2 0-2.1-1.5-2.1-1.7 1.2.7 3.4.4 2.9-1.4-1 0-2.1-1.8.7-3.3 2.7-1.5 5.7-3 5.4-5.5-.2-1.6-2.8-2.7-3.2-3.5-1 .5-1.3 1.1-.8 2.1 0 0-2.5.3-2.7-1.3a2.3 2.3 0 01.9-1.8c-.3 0-2.2-.5-2.7 1-1-.7-2-.7-2.6.1 1 .6 1.8 3 3.6 3.6-1.3.7-3.4.4-4.7-1.8-1.2 1.8-1.8 3.6.7 5.4-4.6 2.1-4.6 6.1-8.6 8 .4 1.1 1.3 1.1 2.4 1-1.8 2.2-.3 4.6-3 5.5.2 1 .7 1.7 1.8 1.4l-1 1c1.5.9 3.3.2 3.7-2.8 0-.6.8-.2.6.3-1.7 3.5 2.6 6.2 1 8.7 1.4 0 2.4-.1 3-.6.2.5.4 1 .3 1.6a1.2 1.2 0 001.1-1c.5 1.4 2.2 2.9 5 2.9-1.4-2.1 0-4.2-2.1-6.6zM53 36l-.5 1-.9-1.8c-.5 1-1.2 1-2 1 .2-2.4-2.8-4.8-1.5-7.5a1.1 1.1 0 00-.4-1.5c-2-1-1.1 3.2-3 3.3l.5-1.5c-.4 0-1.4.7-1.9-.1a3.3 3.3 0 001.7-2.5c0-.8.3-1.6.5-2.3l1.5-2c-.2 0-2.4.4-3 .2 4-2.4 3-5.4 9-8.1-1.6-1.2-3.2-2-2-4.3 1.6 2 4.7 1.3 6.3.4-1.6-.3-3.7-1.8-4.2-3.4.6 0 1.4.6 1.8 1 .3-.7.4-1.4 1-1.5-.9 2 1 3.1 2.8 3.1l1.5-.1c-.2-.4-1-1.4-.4-1.9.4.5 1 .8 1.4 1.2 3.5 2.7-1.7 5.2-3.8 6.3-3.3 1.8-2.4 4-1 4.5 0 .3-.2.4-.4.4-1 .4-1.9-.3-2.7-.8 0 1.4 0 2.6 1.5 3.4l-1 .4c.8.6 1 1 2.2 1.1-.6.2-1.1.3-1.7.3l.5 1.2c-2.1.3-3-1-3.7-.9-1.4.1-1.3 2.8 2.2 2.8l-.3.6 1.3.5c-.3.1-.5.4-.7.6l.6.5c-1.5.2-1.9-1.3-2.8-.5-1.4 1 1.7 3.5 4.7 3.1l-1.3 1c2.5 2.3 1.3 4.5 2.3 6.1a4.4 4.4 0 01-4-3.3" fill="#656565"/><path fill-rule="evenodd" clip-rule="evenodd" d="M49.2 27.5c.5.6 1.1.6 2.3.5-1.3-.1-2-.4-2.5-1.3v-1.4c0-1.6.4-3.2 1.2-4.7a3.3 3.3 0 002.9 3.1c-1.8-.7-2.8-2.4-2.3-4.1a28 28 0 012-2.7c-.3.9.7 1.8 1.4 2-.4-.5-1.2-1.6.7-3.6-.6.2-1 .5-1.6.9 3.4-3.6 6.2-3.7 7.5-5.6-1.8 1.3-6.7 2-9 1.3 1.3.8 4.2.8 5 .6-2.5 2.3-7.6 4.7-8.5 6.8a6 6 0 013.2-2c-.9 1.2-1.6 2.5-2.2 3.8-1.4 3-3.3 3-3.4 5.5.7-2 2-2.4 2.8-3.7l-.2 2.7c0 1 .3 2 .6 3 0 1.3 0 3.3 1.5 4.7a6.3 6.3 0 01-1.1-3.9c1 2.1 4.2 5 5.7 7-1.5-2.5-5.2-5.4-6-8.9M83.8 17.4a6 6 0 013.2 2c-.9-2.2-6-4.6-8.4-6.9.7.2 3.6.3 4.8-.6-2.2.6-7 0-9-1.3 1.4 1.8 4.1 2 7.5 5.6l-1.5-1c1.8 2 1 3.2.6 3.6.7-.2 1.7-1 1.5-1.9l.7.9 1.2 1.8c.6 1.6-.5 3.4-2.2 4.1a3.3 3.3 0 002.8-3.1c.8 1.4 1.3 3 1.3 4.7l-.1 1.4c-.4.9-1.2 1.2-2.4 1.3 1.1 0 1.7 0 2.2-.5-.8 3.4-4.5 6.4-6 9 1.5-2 4.7-5 5.8-7.1 0 1.4-.3 2.7-1.1 3.9 1.4-1.4 1.5-3.5 1.4-4.7.4-1 .6-2 .6-3 0-.9 0-1.8-.2-2.7 1 1.3 2.2 1.7 2.8 3.7-.1-2.5-2-2.6-3.3-5.6a21 21 0 00-2.2-3.7" fill="#656565"/><path fill-rule="evenodd" clip-rule="evenodd" d="M89.9 23c1 .2 2 .2 2.3-1-4-1.8-4-5.8-8.6-8 2.6-1.8 1.9-3.6.7-5.3-1.2 2.2-3.4 2.5-4.7 1.7 1.8-.6 2.6-3 3.7-3.6-.7-.7-1.6-.7-2.6 0-.6-1.6-2.5-1-2.7-1a2.3 2.3 0 01.8 1.7c-.2 1.5-2.6 1.3-2.6 1.3.5-1 .2-1.6-.9-2.2-.3.9-3 2-3.1 3.6-.3 2.5 2.7 4 5.3 5.5 2.9 1.5 1.8 3.2.8 3.3-.6 1.8 1.6 2 2.9 1.3 0 .3-.2 1.7-2.1 1.8a1.3 1.3 0 001 1c-.7.2-1.4.4-2 .3 0 .8.8 1.4 1.9 1.5-.3.4-.6.6-1 .7 1.1 1.2 4.2.4 4.8-.2.3-.3.7.1.3.6-.3.4-1.9 1-3.1.6a1 1 0 00.3 1.1l-1.5.3c0 .6.7.9.9 1-.3.3-.5.6-.6 1 .6.3 2.1.7 3-.3.3-.3.7 0 .3.4-1.2 1.7-4 1.7-5.1 1.2 0 1.3.5 1.5 1.2 2-2 2.5-.7 4.6-2.2 6.7 2.8 0 4.6-1.5 5-3a1.2 1.2 0 001.1 1.2c0-.6.1-1.2.4-1.6.5.4 1.6.5 3 .6-1.6-2.6 2.7-5.3 1-8.8-.3-.5.5-.9.6-.3.4 3 2.1 3.7 3.6 2.7-.4-.4-.6-.4-.9-.9 1 .3 1.5-.4 1.8-1.4-2.7-1-1.3-3.3-3-5.5zm.2 6l.6 1.5c-2 0-1-4.3-3-3.3a1.1 1.1 0 00-.5 1.5c1.3 2.7-1.7 5-1.5 7.4-.8 0-1.5 0-2-1L83 37l-.6-1a4.4 4.4 0 01-4 3.3c1-1.6-.3-3.7 2.2-6l-1.3-1c3 .3 6.2-2.1 4.7-3.2-.9-.8-1.3.8-2.7.5l.5-.5-.6-.6a4 4 0 001.3-.5l-.4-.6c3.5 0 3.6-2.7 2.2-2.8-.7 0-1.5 1.2-3.7 1l.5-1.3c-.5 0-1.1 0-1.6-.3 1-.1 1.3-.5 2.2-1.1l-1-.4c1.4-.7 1.3-2 1.4-3.4-.8.5-1.7 1.2-2.7.8-.2 0-.3-.1-.3-.4 1.3-.5 2.2-2.7-1-4.5-2.2-1.1-7.4-3.6-3.9-6.3l1.5-1.2c.5.5-.2 1.5-.4 1.9l1.4.1c1.8 0 3.7-1 2.8-3.1.7.1.8.8 1 1.4.4-.3 1.2-1 1.9-.9-.5 1.6-2.6 3-4.3 3.4 1.7 1 4.7 1.6 6.3-.4 1.2 2.2-.4 3.1-2 4.3 6 2.7 5 5.7 9 8-.6.3-2.8-.1-3-.2l1.5 2.1c.3.7.5 1.5.6 2.3a3.3 3.3 0 001.6 2.5c-.4.8-1.4.2-1.8 0M62 35.6l.8-.7v-.3c-.2-.2-.1-.2 0-.3l.4-.3a.4.4 0 01.3 0l1.3.3h-1.3a.5.5 0 00-.6.4v.2l-.4.7a.8.8 0 00.1 1l.3.3-.5 1h.4l.3-.7c.3-.3.6-.6.7-1-.1-.1-.3-.2-.2-.4l.2-.3c0-.1 0-.2.2-.2l1.4.3a.5.5 0 00.6-.1c.2-.3.2-.3.7-.2h.7c.8.2 1.6 0 2.3-.4l.5.8v.3l-.8 2h1.2l.7-1.8.2-.4-.3 2.1h1.1l.4-2c0-.5 0-.7-.2-.9-.5-.4-.5-1.3-.7-1.8h.3c.3 0 .5.6.8 1 .6 1 1.4 1.9 2.4.5a3 3 0 00-.3-.4l-.3-.3-1.2-1.3a1.8 1.8 0 00-2.2-.3c-1-.5-2 0-2.2 0h-1.7a.3.3 0 01-.3-.2l.3-.1c-.3-1.3-1-2.3-2.3-2.4 0 0 0-.4-.3-.5l-.3.4-.4.1-1.6-.6 1.2 1.3-.8 1a.3.3 0 000 .5l.2.3c.2.2.3.2.5 0h.3c0-.2.5 0 .6-.1l-.1 1-1.1-.2a.6.6 0 00-.5.1l-1 .7a.8.8 0 00-.2 1l.4.9zm9.1.2l-.7 1.8h-.5l.7-1.8c.1-.2 0-.3-.2-.5l.8.3v.2zm-7.2-4l-.2.1c-.2 0-.2.1-.4 0v-.1a.2.2 0 010-.3l.9-1.1-.8-.7 1 .4.4-.5.1.4a2.2 2.2 0 011.8 2.2c.1.2.3.4.6.4l1.9.1c.3 0 1-.6 2 0l.8-.3a2.4 2.4 0 012 1.2l.9 1.1c-.2.3-.4.3-.6.3a.9.9 0 01-.4-.7 2 2 0 00-.7-.8c.2.3.3.6.3 1-.7-.8-.9-1.6-1.4-1.8a.7.7 0 00-.7.4c.3.6.2 1.3.5 1.7l.3.5c.3.1.1.4.1.6l-.3 1.7h-.4l.3-1.7c0-.5-1.4-.5-2.1-1.5-.7.8-2.4.6-3.2.5a.7.7 0 00-.8.3c0 .1-.3 0-.4 0L64 35a.3.3 0 00-.4 0v.2l-.3.6a.3.3 0 000 .3l.2.1c0 .2-.2.4-.4.5l-.3-.3a.6.6 0 010-.7l.5-1a.4.4 0 01.3-.1h1.7l-.5-.9c-.4-.6.3-1.8.2-2.3 0 .7-1 .4-1.1.5v-.1zM62 34l.9-.7a.5.5 0 01.4-.1l1.1.1.3.6-1.3-.3a.4.4 0 00-.4.1l-.5.4a.3.3 0 000 .4v.2l-.4.3-.2-.3c-.1-.3-.1-.6.1-.8M65.6 11.8l1.2.6v-.5l-1.7-.7s0 .2.5.6M66.8 11.1v-.5l-2-.7.8.6 1.3.6M66.8 10v-.6l-2.1-.8.9.7 1.2.6" fill="#656565"/><path fill-rule="evenodd" clip-rule="evenodd" d="M73 17.1h2.2a1 1 0 00-1.1-.6 1.3 1.3 0 00-1.2.6zM70.6 8.6l-2.2.8v.5l1.3-.6 1-.7M70.2 11.2l-1.8.6v.6l1.3-.7c.5-.3.5-.5.5-.5M70.4 9.9l-2 .7v.5l1.3-.6.8-.6M61.2 16.5a1 1 0 00-1 .6h2.1a1.3 1.3 0 00-1.1-.6z" fill="#656565"/><path fill-rule="evenodd" clip-rule="evenodd" d="M72 7.2c0-1.3-2-2.4-4.4-2.4-2.3 0-4.4 1.1-4.4 2.4v.3l1 5.3-4.4 2.5a2.6 2.6 0 00-1.1 1.8h.8a1.8 1.8 0 011.8-1.5c1 0 1.6.6 2.2 1.5l.2.3.2.3h-6.4c.5 1 .8 2 .9 3v13.4c0 3.5 2.6 5.1 5.5 5.1 2.2 0 2.5 0 3.7 1.1 1.3-1.2 1.6-1 3.8-1 2.8 0 5.5-1.7 5.5-5.2V20.7a7 7 0 011-3h-6.5l.2-.4.1-.2c.6-.9 1.2-1.5 2.3-1.5a1.8 1.8 0 011.8 1.5h.8a2.6 2.6 0 00-1.1-1.8L71 12.8l.9-5.3v-.3zm-7.9.6l3.3 1V14L65 12.7l-.9-5zm.8 10.8c.5.6 1.2 1 2 1.2 0 .4.3.7.5 1a1.6 1.6 0 001.3 2 1.3 1.3 0 00.9 1l-.7.7a1 1 0 01-.9.4l-3-.4c0-.3-.3-.7-1.2-.5l1.2-3.4-.8-1.5-1.4 1.2v3.5l-.7-.3c-.7-.3-1 1-.2 1h.3a.3.3 0 00.1.4.2.2 0 000 .4.3.3 0 000 .5.7.7 0 00.3 1c.4 0 .7-.4.8-.7l4.8 1.5a1.6 1.6 0 001.7-.4L71 26a1.3 1.3 0 00.6 1.5v1H59.3v-7.8c0-.8-.1-1.5-.4-2.2h6zm5.1 3a1.6 1.6 0 00.1 1.6l-.2.2c-.9-.1-1.2-1.5-1.2-1.5v.4a1.2 1.2 0 01-.9-1.3l.7.2v-.4a1.4 1.4 0 01-1-1h-.2 1.4a1.7 1.7 0 001.2.6c-.1.4 0 .8.1 1.1zm1.3 3.5l-.2.4-.5.4a2.4 2.4 0 00-.8-2l.5-.5.1.1a1.2 1.2 0 001 1.5zm-2.3-.2l.4-.4a2.2 2.2 0 01.8 2l-.5.3-.3.2A2.4 2.4 0 0069 25zm-1 .3h.5a2.2 2.2 0 01.2 2h-.6l-.2-.1c.3-.6.4-1.3.2-1.9zm-1-.1h.6c.1.6 0 1.3-.3 1.8l-.6-.2c.3-.5.4-1 .3-1.6zm-1.2-.2l.7.1c0 .6 0 1.1-.3 1.6l-.7-.2c.3-.4.4-1 .3-1.5zm-2.8-.2a.3.3 0 01-.4-.3 1.1 1.1 0 011 0l.6.7-.2.8a.7.7 0 01-.5-1 .4.4 0 00-.5-.2zm-.5 1.3l.5.1a.3.3 0 01-.2.3h-.1a.2.2 0 01-.2-.4zm-.6-1.8a.2.2 0 010-.4c.3 0 .5.2.8.4h-.8zm.6 1.3c.2.2.6.1.6.1-.2.3-.7.2-.6 0zm.6-.3c-.3.2-.6 0-.5-.2h.5v.2zm.4-3.5l-.5 2.1.2-3.4.9-.7.4 1-1.1 3.3.3-2.3c0-.1 0-.1-.1 0zm.1 2.6h.9s0 .3-.2.3l-.7-.3zm1 .5h.7c0 .6 0 1-.3 1.5l-.6-.2.3-1.3zM76 34.1a3.9 3.9 0 01-2 3.6l.4-1H74l-.6 1.2c-.6.3-1.3.4-2 .4-2.3 0-2.9 0-3.7 1-.9-.9-1.5-1-3.8-1-.7 0-1.3-.1-2-.4l.6-1.1H62l-.6 1a6 6 0 01-.3-.2l.4-.8h-.4l-.3.6a3.9 3.9 0 01-1.6-3.2V29H76v5.1zm.5-15.5a6 6 0 00-.5 2.2v7.8h-1l-.7-1.8a2.2 2.2 0 00.3 1.8h-1.2l-.5-1.8c-.4.4-.1 1.5 0 1.8h-.7l.1-1.2c-.4 0-.8-.3-.8-.7a.6.6 0 00.5.1l.4-.2c-1.1 0-1.2-1.2-.3-1.7-.9 0-1.5-.5-1.2-1.5a1.3 1.3 0 01-.4-1.8 1.6 1.6 0 01-.2-1.5c-.4 0-.8-.2-1.2-.5a3 3 0 001.3-1h6zM73 15c-.9.1-1.6 1.2-2.3 2.2v.1H70v.2c0 .7-.8 1.8-2.4 1.8-.6 0-1.2-.2-1.7-.6a2 2 0 01-.6-.9l-.1-.3v-.2H64.5c-.7-1-1.4-2.2-2.3-2.3l2.4-1.5 3 1.7 3-1.7 2.5 1.5zm-2.8-2.2L68 14V9l3.3-1.1-.9 5zm-2.6-4.4L64 7c.3-.7 1.7-1.3 3.5-1.3 2 0 3.3.6 3.6 1.3l-3.5 1.4z" fill="#656565"/><path fill-rule="evenodd" clip-rule="evenodd" d="M75.6 23.7v-.4c-1.2 0-1.5-1.5-1.5-1.5a1.4 1.4 0 001.5 1.9M74 26v-.3c-1 .3-1.6-1.4-1.6-1.4a1.4 1.4 0 001.7 1.8zM74.8 24.6c-1.2.2-1.7-1.3-1.7-1.3a1.4 1.4 0 001.2 1.7 1 1 0 001.5 1.1v-.3a.8.8 0 01-1-1.2zM74 20.5v-.4c-1.6-.3-1.4-1.4-1.4-1.4a1.4 1.4 0 001.4 1.8M63.8 36.8l-.6 1.1h.5l.5-1.1h-.4zM64.7 36.8l-.6 1.1h.4l.6-1.1h-.4zM68.2 36.8l-.6 1.1h.4l.6-1.1h-.4zM69 36.8l-.5 1.1h.4l.6-1.1H69zM67.3 36.8l-.6 1.1h.5l.5-1.1h-.4zM72.4 38h.4l.6-1.2H73l-.6 1.1zM65.6 36.8l-.6 1.1h.4l.6-1.1h-.4zM66.4 36.8l-.6 1.1h.5l.6-1.1h-.5zM64.4 30.5a.2.2 0 10.2.1.2.2 0 00-.2-.1zM67.7 4c1.4 0 2.8.4 4 1.2a8 8 0 011-2.6l-1.4.1-.8-1.6-1.4.8L67.7.5l-1.5 1.4-1.4-.8-.8 1.6-1.4-.1a8 8 0 011 2.6 6.6 6.6 0 014-1.2zm-3.4-.6l.7-1.5 1.3.7 1.4-1.4L69 2.6l1.3-.7.6 1.5.9-.1-.6 1.2a7.6 7.6 0 00-7.3 0l-.6-1.2h.9z" fill="#656565"/><path fill-rule="evenodd" clip-rule="evenodd" d="M69.1 1.1a.4.4 0 00.4-.3l-.2-.8s-.5.5-.5.7a.4.4 0 00.3.4zM71.5 2a.4.4 0 00.5-.2V1s-.6.3-.7.5a.4.4 0 00.2.5M66.2 1.1a.4.4 0 00.3-.4c0-.2-.5-.7-.5-.7l-.2.8a.4.4 0 00.4.3zM63.8 2a.4.4 0 00.2-.5c-.1-.2-.8-.5-.8-.5v.8a.4.4 0 00.6.2M92.2 15a2 2 0 001-1.1c-1.2-.2-4.6-1.6-7.4-.5 1-1 2-1 2-2.5a1 1 0 001.6-.3c-.3-.8-1-.1-1-.4-.2-.2.8.1 1-1-.8-.3-1 .4-1.2.3-.1-.2.6-.5 0-1.3-.8.5-.3 1-.5 1-.2.1 0-.5-1-.5-.1 1 .9 1 .7 1.2-.1.2-.4-.6-1.2-.2a1 1 0 001.4 1.1c0 1.6-1.5 1.3-2.6 3 2.3 1.2 3.3 3.3 4.7 4.7a8 8 0 001.3-1.8 1.8 1.8 0 002.6 0c-.6-.6-.6-1-1.4-1.7zm-2.2.3a2.6 2.6 0 01-.2 2.5c-.7-1.5-1.7-2.8-3-3.8-.2-.1.1-.3.7-.4 1.8-.3 3.8.4 4.8.6-.4.3-.9.5-1.3.6.6.4 1.1 1 1.6 1.6-.7.2-1.1-.2-2.6-1.1M75.4 41.4v-1.9c-1.8.8-3.8 1.3-5.8 1.5l-.1.6.8.1a20 20 0 01-5.4 0h.8V41c-2-.2-4-.7-5.9-1.5v2l-2 .7c1.7.9 3.5 1.5 5.3 2l-.2.8c3.1.9 6.5.9 9.6 0l-.2-.8c1.8-.5 3.6-1.1 5.2-2l-2-.8zm-16.5.9l1.4-.6v-1.5c1.2.4 2.4.8 3.6 1l-.7 2.5c-1.5-.3-3-.8-4.3-1.4zm8.8 2.9c-1.5 0-3-.2-4.3-.6l.8-2.6c2.3.4 4.6.4 7 0l.8 2.6c-1.5.4-2.9.6-4.3.6zm4.4-1.5l-.8-2.5a23 23 0 003.7-1v1.5l1.3.6a22 22 0 01-4.2 1.4M44.3 16.7l1.3 1.7C47 17 48 15 50.3 13.8c-1-1.7-2.5-1.4-2.6-3a1 1 0 001.3-1c-.7-.5-1 .3-1.1 0-.2-.1.8-.1.7-1.1-1 0-.8.6-1 .6-.2-.1.3-.7-.6-1.2-.5 1 .2 1.2 0 1.3 0 .1-.3-.5-1.2-.2.2 1 1.3.6 1.2 1-.2.4-.9-.5-1.1.4a1 1 0 001.5.3c.1 1.4 1 1.5 2.1 2.5-2.8-1.2-6.2.3-7.5.5.2.5.6.8 1.1 1-.8.8-.8 1.2-1.3 1.8 0 0 1 1.1 2.6 0zm-1.5-.3c.4-.6 1-1.1 1.6-1.6-.5 0-1-.3-1.3-.6 1-.2 3-1 4.8-.6.5 0 .8.3.6.4-1.2 1-2.2 2.3-3 3.8a2.6 2.6 0 01-.2-2.5c-1.5.9-1.9 1.3-2.5 1.2M66.4 15.6v.8a1 1 0 01.9-.2v1.2c0 .3-.1.6-.3.8h1.2l-.2-.8V16a1 1 0 01.9.3v-.8h-2.5z" fill="#656565"/></svg>