<svg aria-hidden="true" style="position: absolute; width: 0; height: 0; overflow: hidden;" version="1.1" xmlns="http://www.w3.org/2000/svg" xmlns:xlink="http://www.w3.org/1999/xlink">
<defs>
<symbol id="icon-img1" viewBox="0 0 62 32">
<path d="M0 0h62v32h-62z"></path>
</symbol>
<symbol id="icon-img2" viewBox="0 0 58 32">
<path fill="#656565" style="fill: var(--color1, #656565)" d="M2.335 27.459h-2.335v-1.427h6.314v1.427h-2.292v3.892h-1.73v-3.892zM12.8 26.032v5.319h-1.643v-3.070l-2.811 3.113h-1.427v-5.362h1.643v3.114l2.811-3.114h1.427zM15.611 31.395h-1.643v-5.362h1.643v1.989h2.595v-1.989h1.686v5.362h-1.6v-1.989h-2.595v1.989zM21.059 31.395v-5.362h1.6v1.427h1.73c0.389 0 0.778 0.043 1.168 0.173 0.712 0.257 1.212 0.926 1.212 1.713 0 0.021-0 0.042-0.001 0.063l0-0.003c0.001 0.018 0.001 0.040 0.001 0.062 0 0.858-0.581 1.581-1.372 1.795l-0.013 0.003-1.038 0.13h-3.287zM22.659 30.097h1.427c0.216 0 0.432 0 0.649-0.087 0.242-0.111 0.406-0.352 0.406-0.63 0-0.135-0.039-0.261-0.105-0.367l0.002 0.003c-0.087-0.13-0.216-0.216-0.346-0.216-0.216-0.087-0.432-0.087-0.605-0.087h-1.427v1.384zM29.146 31.395h-1.643v-5.362h1.643v2.032h0.432l1.989-2.032h2.032l-2.595 2.595 2.724 2.768h-2.162l-1.946-2.032h-0.432v2.032z"></path>
<path fill="#656565" style="fill: var(--color1, #656565)" d="M40.649 28.713c0 1.6-1.341 2.854-3.546 2.854-2.162 0-3.459-1.297-3.459-2.854 0-1.6 1.297-2.854 3.459-2.854 2.249 0 3.503 1.254 3.503 2.854zM38.919 28.713c0-0.865-0.735-1.514-1.816-1.514s-1.773 0.649-1.773 1.514 0.692 1.514 1.773 1.514c1.124 0 1.816-0.649 1.816-1.514zM49.297 28.713c0 1.514-1.254 2.335-3.286 2.378v0.476h-1.643v-0.432c-2.032-0.043-3.286-0.865-3.286-2.378 0-1.557 1.254-2.422 3.287-2.465v-0.519h1.643v0.519c2.032 0.043 3.286 0.908 3.286 2.465zM44.368 27.416c-1.124 0.043-1.643 0.562-1.643 1.297 0 0.692 0.519 1.168 1.643 1.211v-2.508zM47.611 28.713c0-0.735-0.476-1.254-1.6-1.297v2.508c1.124-0.043 1.6-0.519 1.6-1.211zM57.946 28.713c0 1.514-1.211 2.335-3.287 2.378v0.476h-1.643v-0.432c-2.032-0.043-3.243-0.865-3.243-2.378 0-1.557 1.211-2.422 3.243-2.465v-0.519h1.643v0.519c2.076 0.043 3.287 0.908 3.287 2.465zM53.016 27.416c-1.124 0.043-1.6 0.562-1.6 1.297 0 0.692 0.476 1.168 1.6 1.211v-2.508zM56.259 28.713c0-0.735-0.432-1.254-1.6-1.297v2.508c1.124-0.043 1.6-0.519 1.6-1.211z"></path>
<path fill="#656565" style="fill: var(--color1, #656565)" d="M24.13 14.443c0.259-0.259 0.519-0.346 0.519-0.951-0.432 0.259-1.686 0.216-2.205-0.476-0.13-0.216 0-0.303 0.13-0.173 0.389 0.432 1.038 0.259 1.297 0.13-0.043-0.173-0.13-0.303-0.259-0.432 0.087-0.086 0.346-0.216 0.432-0.432l-0.692-0.13c0.095-0.080 0.155-0.199 0.155-0.331 0-0.052-0.009-0.101-0.026-0.147l0.001 0.003c-0.562 0.173-1.211-0.086-1.384-0.259-0.13-0.216 0-0.432 0.13-0.259 0.303 0.259 1.6 0.605 2.119 0.086-0.173 0-0.346-0.13-0.432-0.303 0.432 0 0.822-0.303 0.865-0.649-0.346 0-0.649 0-0.908-0.13 0.217-0.047 0.385-0.215 0.432-0.429l0.001-0.004c-0.865 0-0.908-0.649-0.908-0.735 0.519 0.303 1.47 0.173 1.254-0.605-0.432 0-0.908-0.778 0.346-1.427 1.124-0.649 2.422-1.297 2.292-2.378-0.087-0.692-1.211-1.168-1.384-1.514-0.432 0.216-0.562 0.432-0.346 0.908 0 0-1.081 0.13-1.168-0.562 0.004-0.316 0.154-0.597 0.387-0.777l0.002-0.002c-0.13 0-0.951-0.216-1.168 0.432-0.432-0.303-0.865-0.303-1.168 0.043 0.519 0.259 0.822 1.297 1.6 1.557-0.562 0.303-1.47 0.173-2.032-0.778-0.519 0.778-0.778 1.557 0.303 2.335-1.989 0.908-1.989 2.638-3.719 3.459 0.173 0.476 0.562 0.476 1.038 0.432-0.778 0.951-0.13 1.989-1.297 2.378 0.087 0.432 0.303 0.735 0.735 0.605-0.087 0.173-0.173 0.173-0.389 0.432 0.649 0.389 1.427 0.086 1.6-1.211 0-0.259 0.346-0.086 0.259 0.13-0.735 1.514 1.124 2.681 0.432 3.762 0.605 0 1.038-0.043 1.297-0.259 0.13 0.216 0.173 0.432 0.173 0.692 0.223-0.036 0.397-0.21 0.432-0.429l0-0.003c0.216 0.605 0.951 1.254 2.162 1.254-0.605-0.908 0-1.859-0.951-2.897h0.043zM22.919 15.524l-0.259 0.432c-0.124-0.303-0.255-0.559-0.403-0.803l0.014 0.025c-0.173 0.432-0.519 0.432-0.865 0.432 0.13-0.995-1.168-2.032-0.605-3.2 0.052-0.070 0.082-0.159 0.082-0.254 0-0.175-0.104-0.325-0.253-0.393l-0.003-0.001c-0.865-0.432-0.476 1.384-1.297 1.427l0.216-0.649c-0.173 0-0.605 0.303-0.822-0.043 0.398-0.219 0.676-0.612 0.734-1.074l0.001-0.007c0-0.346 0.13-0.692 0.216-0.995l0.649-0.865c-0.087 0-1.038 0.173-1.297 0.086 1.73-1.038 1.297-2.335 3.892-3.503-0.692-0.519-1.384-0.865-0.865-1.859 0.692 0.865 2.032 0.562 2.724 0.173-0.692-0.13-1.6-0.778-1.816-1.47 0.259 0 0.605 0.259 0.778 0.432 0.13-0.303 0.13-0.605 0.432-0.649-0.389 0.865 0.432 1.341 1.211 1.341l0.649-0.043c-0.087-0.173-0.432-0.605-0.173-0.822l0.605 0.476c1.514 1.211-0.735 2.292-1.643 2.768-1.427 0.778-1.038 1.73-0.432 1.946 0 0.086-0.087 0.173-0.173 0.173-0.432 0.173-0.822-0.13-1.168-0.346 0 0.605 0 1.124 0.649 1.47l-0.432 0.173c0.346 0.259 0.432 0.432 0.951 0.476-0.259 0.086-0.476 0.13-0.735 0.13l0.216 0.519c-0.908 0.13-1.297-0.432-1.6-0.432-0.605 0.086-0.562 1.254 0.951 1.254l-0.13 0.259c0.173 0.086 0.346 0.173 0.562 0.173l-0.303 0.303 0.259 0.216c-0.649 0.086-0.822-0.562-1.211-0.259-0.605 0.519 0.735 1.514 2.032 1.384l-0.562 0.432c1.081 0.995 0.562 1.946 0.995 2.638-0.836-0.051-1.522-0.635-1.727-1.414l-0.003-0.013z"></path>
<path fill="#656565" style="fill: var(--color1, #656565)" d="M21.276 11.892c0.216 0.259 0.476 0.259 0.995 0.216-0.562-0.043-0.865-0.173-1.081-0.562l-0.043-0.605c0-0.692 0.216-1.427 0.562-2.032 0.038 0.695 0.569 1.255 1.247 1.34l0.007 0.001c-0.778-0.303-1.211-1.081-0.995-1.773l0.562-0.778 0.259-0.389c-0.087 0.389 0.346 0.778 0.649 0.865-0.173-0.216-0.519-0.692 0.303-1.557-0.259 0.087-0.432 0.216-0.692 0.389 1.47-1.557 2.681-1.6 3.243-2.422-0.822 0.562-2.941 0.865-3.892 0.605 0.562 0.346 1.816 0.303 2.119 0.216-1.038 1.038-3.287 2.076-3.676 2.984 0.35-0.42 0.824-0.726 1.366-0.861l0.018-0.004c-0.346 0.476-0.692 1.038-0.951 1.6-0.562 1.297-1.384 1.297-1.427 2.378 0.259-0.865 0.822-1.038 1.211-1.557-0.087 0.389-0.13 0.778-0.087 1.168 0 0.432 0.087 0.865 0.259 1.297-0.043 0.519 0 1.427 0.605 2.032-0.278-0.42-0.443-0.935-0.443-1.489 0-0.085 0.004-0.168 0.011-0.251l-0.001 0.011c0.432 0.951 1.816 2.205 2.465 3.027-0.649-1.081-2.249-2.335-2.595-3.805zM36.281 7.481c0.543 0.148 1.001 0.452 1.337 0.86l0.004 0.005c-0.389-0.865-2.595-1.946-3.632-2.941 0.303 0.087 1.557 0.087 2.076-0.259-0.951 0.259-3.027 0-3.849-0.562 0.562 0.778 1.73 0.865 3.2 2.422l-0.649-0.432c0.822 0.865 0.432 1.384 0.303 1.557 0.259-0.086 0.735-0.432 0.605-0.822l0.303 0.346 0.519 0.778c0.259 0.735-0.173 1.47-0.951 1.816 0.667-0.104 1.176-0.658 1.211-1.337l0-0.003c0.389 0.605 0.562 1.297 0.605 2.032l-0.087 0.605c-0.173 0.389-0.476 0.519-1.038 0.562 0.476 0 0.778 0 0.995-0.216-0.346 1.47-1.946 2.768-2.595 3.892 0.649-0.865 1.989-2.162 2.465-3.070 0 0.605-0.13 1.168-0.432 1.687 0.562-0.605 0.605-1.514 0.562-2.032 0.173-0.432 0.259-0.865 0.259-1.297 0-0.389 0-0.778-0.087-1.168 0.432 0.562 0.951 0.735 1.211 1.6 0-1.081-0.865-1.124-1.427-2.422-0.286-0.611-0.603-1.136-0.968-1.624l0.017 0.024z"></path>
<path fill="#656565" style="fill: var(--color1, #656565)" d="M38.876 9.946c0.432 0.086 0.865 0.086 0.995-0.432-1.73-0.778-1.73-2.508-3.676-3.459 1.081-0.778 0.778-1.557 0.259-2.292-0.519 0.951-1.47 1.081-2.032 0.735 0.822-0.259 1.124-1.297 1.6-1.557-0.303-0.303-0.692-0.346-1.124 0-0.259-0.692-1.081-0.476-1.168-0.476 0.213 0.183 0.346 0.453 0.346 0.754 0 0.009-0 0.017-0 0.025l0-0.001c-0.087 0.649-1.124 0.562-1.124 0.562 0.216-0.432 0.087-0.692-0.389-0.951-0.13 0.389-1.297 0.865-1.341 1.557-0.13 1.081 1.168 1.73 2.292 2.335 1.254 0.692 0.778 1.427 0.346 1.47-0.259 0.778 0.692 0.865 1.254 0.562 0 0.13-0.087 0.735-0.908 0.778 0.047 0.217 0.215 0.385 0.429 0.432l0.004 0.001c-0.303 0.086-0.605 0.173-0.865 0.13 0 0.346 0.346 0.605 0.822 0.649-0.13 0.173-0.259 0.259-0.432 0.346 0.476 0.432 1.816 0.13 2.076-0.13 0.13-0.13 0.303 0.043 0.13 0.259-0.13 0.173-0.822 0.432-1.341 0.259-0.016 0.043-0.025 0.093-0.025 0.144 0 0.133 0.060 0.251 0.154 0.331l0.001 0.001c-0.259 0-0.432 0.086-0.692 0.13 0.043 0.216 0.303 0.389 0.432 0.432-0.13 0.13-0.216 0.259-0.259 0.432 0.259 0.13 0.908 0.303 1.297-0.13 0.087-0.13 0.259 0 0.13 0.173-0.519 0.735-1.773 0.735-2.205 0.519 0 0.562 0.216 0.649 0.519 0.865-0.908 1.081-0.303 1.989-0.951 2.897 1.211 0 1.946-0.649 2.162-1.297-0 0.002-0 0.005-0 0.007 0 0.256 0.185 0.469 0.429 0.511l0.003 0c0-0.259 0.087-0.476 0.173-0.692 0.259 0.173 0.692 0.216 1.297 0.259-0.649-1.124 1.211-2.292 0.432-3.805-0.087-0.216 0.216-0.389 0.259-0.13 0.173 1.297 0.951 1.6 1.6 1.211-0.216-0.216-0.303-0.216-0.432-0.432 0.432 0.13 0.692-0.173 0.822-0.605-1.211-0.432-0.562-1.427-1.297-2.378zM38.962 12.541c0 0.216 0.13 0.432 0.259 0.692-0.865-0.086-0.476-1.903-1.341-1.47-0.17 0.061-0.289 0.221-0.289 0.408 0 0.090 0.027 0.173 0.074 0.242l-0.001-0.002c0.562 1.168-0.692 2.162-0.649 3.243-0.303 0-0.649 0-0.865-0.432-0.12 0.216-0.236 0.473-0.333 0.739l-0.012 0.039-0.259-0.432c-0.208 0.792-0.894 1.376-1.724 1.427l-0.005 0c0.432-0.692-0.087-1.6 0.951-2.595l-0.519-0.432c1.297 0.13 2.638-0.908 2.032-1.384-0.432-0.346-0.562 0.346-1.211 0.216l0.259-0.216-0.303-0.259c0.212-0.042 0.4-0.117 0.57-0.221l-0.008 0.004-0.13-0.259c1.514 0 1.557-1.168 0.908-1.211-0.259 0-0.649 0.519-1.6 0.432 0.13-0.173 0.216-0.346 0.259-0.562-0.259 0-0.476 0-0.735-0.13 0.432-0.043 0.562-0.216 0.951-0.476l-0.432-0.173c0.649-0.303 0.605-0.865 0.605-1.47-0.303 0.216-0.692 0.519-1.124 0.346-0.087 0-0.173-0.043-0.173-0.173 0.605-0.216 0.995-1.168-0.432-1.946-0.951-0.476-3.2-1.557-1.687-2.724l0.649-0.476c0.216 0.173-0.087 0.605-0.173 0.778l0.605 0.043c0.822 0 1.643-0.432 1.211-1.297 0.303 0 0.346 0.303 0.432 0.562 0.216-0.13 0.562-0.432 0.822-0.346-0.216 0.692-1.124 1.297-1.859 1.427 0.735 0.432 2.076 0.692 2.768-0.13 0.476 0.951-0.216 1.297-0.865 1.816 2.551 1.168 2.162 2.465 3.849 3.503-0.216 0.086-1.211-0.086-1.297-0.13l0.649 0.908c0.13 0.346 0.216 0.649 0.259 0.995 0.059 0.469 0.337 0.862 0.728 1.077l0.007 0.004c-0.216 0.389-0.649 0.086-0.865 0.043zM26.811 15.395l0.346-0.303v-0.13c-0.087-0.086-0.043-0.086 0-0.13l0.173-0.13c0.019-0.008 0.041-0.013 0.065-0.013s0.046 0.005 0.066 0.013l-0.001-0 0.562 0.13h-0.562c-0.014-0.003-0.030-0.005-0.047-0.005-0.106 0-0.194 0.076-0.213 0.177l-0 0.001v0.086l-0.173 0.303c-0.035 0.053-0.056 0.119-0.056 0.189 0 0.095 0.038 0.181 0.1 0.243l0.13 0.13-0.216 0.432h0.173l0.13-0.303c0.13-0.13 0.259-0.259 0.303-0.432-0.087-0.043-0.13-0.086-0.087-0.173l0.087-0.13c0-0.043 0-0.086 0.087-0.086l0.605 0.173c0.023 0.009 0.049 0.014 0.077 0.014 0.076 0 0.144-0.040 0.182-0.1l0.001-0.001c0.087-0.13 0.13-0.13 0.303-0.086h0.303c0.346 0.086 0.692 0 0.995-0.173l0.216 0.346v0.13l-0.346 0.865h0.519l0.303-0.778 0.13-0.173-0.259 0.951h0.519l0.173-0.865c0-0.216 0-0.303-0.087-0.389-0.216-0.173-0.216-0.562-0.303-0.778h0.13c0.13 0 0.216 0.259 0.346 0.432 0.259 0.432 0.605 0.822 1.038 0.216l-0.13-0.173-0.13-0.13-0.519-0.562c-0.142-0.146-0.339-0.236-0.558-0.236-0.145 0-0.28 0.040-0.396 0.108l0.004-0.002c-0.432-0.216-0.865 0-0.995 0h-0.692c-0.002 0-0.005 0-0.007 0-0.056 0-0.104-0.036-0.122-0.086l-0-0.001 0.13-0.043c-0.13-0.562-0.432-0.995-0.995-1.038 0 0 0-0.173-0.13-0.216l-0.173 0.173-0.13 0.043-0.692-0.259 0.519 0.562-0.346 0.432c-0.035 0.024-0.058 0.063-0.058 0.108s0.023 0.085 0.058 0.108l0 0 0.087 0.13c0.087 0.086 0.13 0.086 0.216 0h0.13c0-0.086 0.216 0 0.259-0.043l-0.043 0.432-0.476-0.086c-0.019-0.005-0.040-0.008-0.062-0.008-0.058 0-0.112 0.019-0.155 0.051l0.001-0.001-0.432 0.303c-0.078 0.064-0.128 0.16-0.128 0.268 0 0.060 0.015 0.117 0.042 0.166l-0.001-0.002 0.173 0.389zM30.746 15.481l-0.303 0.778h-0.216l0.303-0.778c0.043-0.086 0-0.13-0.087-0.216l0.346 0.13v0.086zM27.632 13.751l-0.087 0.043c-0.087 0-0.087 0.043-0.173 0v-0.043c-0.018-0.016-0.029-0.039-0.029-0.065s0.011-0.049 0.029-0.065l0-0 0.389-0.476-0.346-0.303 0.432 0.173 0.173-0.216c0.087 0 0.043 0.173 0.043 0.173 0.446 0.085 0.779 0.471 0.779 0.936 0 0.006-0 0.011-0 0.017v-0.001c0.043 0.086 0.13 0.173 0.259 0.173l0.822 0.043c0.13 0 0.432-0.259 0.865 0l0.346-0.13c0.369 0.013 0.688 0.216 0.862 0.514l0.003 0.005 0.389 0.476c-0.087 0.13-0.173 0.13-0.259 0.13-0.099-0.067-0.166-0.176-0.173-0.302l-0-0.001c-0.070-0.143-0.173-0.26-0.3-0.344l-0.003-0.002c0.087 0.13 0.13 0.259 0.13 0.432-0.303-0.346-0.346-0.735-0.605-0.778-0.009-0.001-0.018-0.001-0.029-0.001-0.121 0-0.225 0.070-0.273 0.172l-0.001 0.002c0.13 0.216 0.13 0.562 0.216 0.735l0.13 0.216c0.13 0.043 0.043 0.173 0.043 0.259l-0.13 0.735h-0.173l0.13-0.735c0-0.216-0.605-0.216-0.908-0.649-0.303 0.346-1.038 0.259-1.384 0.216-0.032-0.015-0.069-0.024-0.109-0.024-0.105 0-0.195 0.062-0.236 0.152l-0.001 0.002c0 0.043-0.13 0-0.173 0l-0.605-0.086c-0.023-0.021-0.053-0.033-0.087-0.033s-0.064 0.013-0.087 0.033l0-0v0.086l-0.13 0.216c-0.020 0.023-0.033 0.053-0.033 0.086s0.013 0.064 0.033 0.087l-0-0 0.087 0.043c0 0.086-0.087 0.173-0.173 0.216l-0.13-0.13c-0.030-0.042-0.049-0.095-0.049-0.151s0.018-0.109 0.049-0.152l-0.001 0.001 0.216-0.432c0.030-0.027 0.071-0.044 0.115-0.044 0.005 0 0.010 0 0.015 0.001l-0.001-0h0.735l-0.216-0.389c-0.173-0.259 0.13-0.778 0.087-0.995 0 0.303-0.432 0.173-0.476 0.173zM26.811 14.703l0.346-0.303c0.038-0.034 0.089-0.055 0.145-0.055 0.026 0 0.050 0.004 0.073 0.013l-0.002-0 0.476 0.043 0.13 0.259-0.562-0.13c-0.015-0.005-0.032-0.008-0.051-0.008-0.048 0-0.091 0.019-0.122 0.051v0l-0.216 0.216c-0.029 0.024-0.047 0.060-0.047 0.1 0 0.011 0.001 0.021 0.004 0.031l-0-0.001 0.043 0.086-0.173 0.13-0.087-0.13c-0.043-0.13-0.043-0.259 0.043-0.346zM28.368 5.059l0.519 0.303v-0.216l-0.735-0.303s0 0.087 0.216 0.259zM28.887 4.8v-0.216l-0.865-0.303 0.346 0.259 0.519 0.259zM28.887 4.324v-0.259l-0.908-0.346 0.389 0.303 0.519 0.259z"></path>
<path fill="#656565" style="fill: var(--color1, #656565)" d="M31.568 7.395h0.951c-0.067-0.158-0.22-0.266-0.399-0.266-0.027 0-0.053 0.002-0.079 0.007l0.003-0c-0.020-0.003-0.043-0.004-0.067-0.004-0.193 0-0.361 0.105-0.451 0.261l-0.001 0.003zM30.53 3.719l-0.951 0.346v0.216l0.562-0.259 0.432-0.303zM30.357 4.843l-0.778 0.259v0.259l0.562-0.303c0.216-0.13 0.216-0.216 0.216-0.216zM30.443 4.281l-0.865 0.303v0.216l0.562-0.259 0.346-0.259zM26.465 7.135c-0.011-0.001-0.023-0.001-0.035-0.001-0.177 0-0.329 0.106-0.396 0.258l-0.001 0.003h0.908c-0.101-0.157-0.276-0.259-0.474-0.259-0.001 0-0.001 0-0.002 0h0z"></path>
<path fill="#656565" style="fill: var(--color1, #656565)" d="M31.135 3.114c0-0.562-0.865-1.038-1.903-1.038-0.995 0-1.903 0.476-1.903 1.038v0.13l0.432 2.292-1.903 1.081c-0.255 0.178-0.432 0.454-0.475 0.773l-0.001 0.006h0.346c0.064-0.371 0.383-0.649 0.767-0.649 0.004 0 0.008 0 0.011 0h-0.001c0.432 0 0.692 0.259 0.951 0.649l0.173 0.259h-2.768c0.216 0.432 0.346 0.865 0.432 1.297v5.795c0 1.514 1.124 2.205 2.335 2.205 0.951 0 1.081 0 1.643 0.476 0.519-0.519 0.649-0.432 1.6-0.432 1.254 0 2.378-0.735 2.378-2.249v-5.795c0.047-0.485 0.202-0.926 0.44-1.31l-0.007 0.013h-2.811l0.13-0.259c0.259-0.389 0.519-0.649 0.995-0.649 0.003-0 0.007-0 0.011-0 0.384 0 0.703 0.278 0.767 0.644l0.001 0.005h0.346c-0.044-0.324-0.22-0.6-0.472-0.776l-0.004-0.002-1.946-1.081 0.389-2.292v-0.13zM27.719 3.373l1.427 0.432v2.249l-1.038-0.562-0.389-2.162zM28.065 8.043c0.216 0.259 0.519 0.432 0.865 0.519 0 0.173 0.13 0.303 0.216 0.432-0.015 0.054-0.024 0.117-0.024 0.181 0 0.345 0.252 0.631 0.582 0.683l0.004 0.001c0.033 0.198 0.165 0.358 0.342 0.431l0.004 0.001-0.259 0.303c-0.079 0.11-0.207 0.181-0.352 0.181-0.029 0-0.057-0.003-0.084-0.008l0.003 0-1.297-0.173c0.087-0.13-0.087-0.303-0.519-0.216l0.519-1.47-0.303-0.692-0.605 0.519v1.514l-0.303-0.086c-0.303-0.173-0.432 0.432-0.087 0.432h0.13c-0.011 0.018-0.017 0.040-0.017 0.064 0 0.046 0.024 0.086 0.059 0.109l0 0c-0.048 0-0.087 0.039-0.087 0.086s0.039 0.086 0.087 0.086v0c-0.020 0.023-0.033 0.053-0.033 0.086s0.013 0.064 0.033 0.087l-0-0c-0.045 0.047-0.072 0.11-0.072 0.179 0 0.123 0.085 0.226 0.2 0.253l0.002 0c0.173 0.043 0.303-0.13 0.346-0.259l2.032 0.605c0.079 0.034 0.17 0.053 0.267 0.053 0.203 0 0.385-0.087 0.511-0.226l0-0.001 0.519-0.432c-0.015 0.048-0.023 0.103-0.023 0.161 0 0.208 0.113 0.389 0.28 0.486l0.003 0.001v0.432h-5.362v-3.416c0-0.303-0.087-0.605-0.173-0.908h2.595zM30.27 9.341c-0.046 0.090-0.073 0.196-0.073 0.309 0 0.143 0.043 0.276 0.117 0.386l-0.002-0.002-0.087 0.086c-0.389-0.043-0.519-0.649-0.519-0.649v0.173c-0.227-0.058-0.393-0.262-0.393-0.503 0-0.021 0.001-0.041 0.004-0.061l-0 0.002 0.303 0.086v-0.173c-0.212-0.057-0.376-0.22-0.431-0.428l-0.001-0.004h0.519c0.127 0.149 0.31 0.247 0.517 0.259l0.002 0c-0.043 0.173 0 0.346 0.043 0.519zM30.832 10.854l-0.087 0.173-0.216 0.173c0.001-0.014 0.001-0.031 0.001-0.047 0-0.307-0.134-0.584-0.346-0.774l-0.001-0.001 0.216-0.216h0.043c-0.019 0.052-0.031 0.113-0.031 0.176 0 0.267 0.202 0.487 0.461 0.516l0.002 0zM29.838 10.768l0.173-0.173c0.217 0.176 0.354 0.442 0.354 0.741 0 0.044-0.003 0.087-0.009 0.129l0.001-0.005-0.216 0.13-0.13 0.086c0.019-0.075 0.030-0.16 0.030-0.248 0-0.232-0.076-0.447-0.205-0.619l0.002 0.003zM29.405 10.897h0.216c0.096 0.146 0.152 0.325 0.152 0.517 0 0.125-0.024 0.245-0.068 0.355l0.002-0.006h-0.259l-0.087-0.043c0.13-0.259 0.173-0.562 0.087-0.822zM28.973 10.854h0.259c0.043 0.303 0 0.562-0.13 0.778l-0.259-0.086c0.13-0.216 0.173-0.432 0.173-0.692zM28.454 10.768l0.303 0.043c0 0.259 0 0.476-0.13 0.692l-0.303-0.086c0.13-0.173 0.173-0.432 0.13-0.649zM27.243 10.681c-0.013 0.005-0.028 0.008-0.043 0.008-0.072 0-0.13-0.058-0.13-0.13 0-0.003 0-0.005 0-0.008l-0 0c0.063-0.033 0.137-0.052 0.216-0.052s0.153 0.019 0.219 0.053l-0.003-0.001 0.259 0.303-0.087 0.346c-0.142-0.027-0.248-0.15-0.248-0.298 0-0.049 0.012-0.095 0.032-0.136l-0.001 0.002c-0.029-0.058-0.088-0.097-0.156-0.097-0.022 0-0.043 0.004-0.062 0.011l0.001-0zM27.027 11.243l0.216 0.043c0 0.072-0.058 0.13-0.13 0.13v0c-0.013 0.006-0.027 0.010-0.043 0.010-0.053 0-0.097-0.043-0.097-0.097 0-0.038 0.021-0.070 0.053-0.086l0.001-0zM26.768 10.465c-0.048 0-0.087-0.039-0.087-0.086s0.039-0.086 0.087-0.086v0c0.13 0 0.216 0.13 0.346 0.173h-0.346zM27.027 11.027c0.087 0.086 0.259 0.043 0.259 0.043-0.087 0.13-0.303 0.086-0.259 0zM27.287 10.897c-0.13 0.086-0.259 0-0.216-0.086h0.216v0.086zM27.459 9.384l-0.216 0.908 0.043-1.47 0.432-0.303 0.173 0.432-0.476 1.427 0.13-0.951c0-0.086-0.043-0.086-0.087 0zM27.503 10.508h0.389s0 0.13-0.087 0.13l-0.303-0.13zM27.935 10.724h0.303c0 0.259 0 0.432-0.13 0.605l-0.259-0.086c0.087-0.173 0.087-0.346 0.13-0.562v0.043zM32.865 14.746c0 0.012 0.001 0.026 0.001 0.040 0 0.63-0.345 1.179-0.857 1.469l-0.008 0.004 0.173-0.389h-0.173l-0.259 0.519c-0.259 0.087-0.562 0.173-0.865 0.173-0.995 0-1.254 0-1.6 0.389-0.389-0.346-0.649-0.432-1.643-0.432-0.259 0-0.562 0-0.865-0.13l0.259-0.519h-0.173l-0.259 0.432-0.13-0.043 0.173-0.389h-0.173l-0.13 0.303c-0.422-0.31-0.693-0.805-0.693-1.363 0-0.023 0-0.045 0.001-0.067l-0 0.003v-2.162h7.222v2.162zM33.081 8.043c-0.12 0.266-0.198 0.576-0.216 0.901l-0 0.007v3.373h-0.432l-0.303-0.735c-0.016 0.065-0.025 0.139-0.025 0.216 0 0.193 0.058 0.373 0.157 0.523l-0.002-0.004h-0.519l-0.216-0.778c-0.173 0.173-0.043 0.649 0 0.778h-0.303l0.043-0.476c-0.173-0.043-0.346-0.13-0.346-0.346 0.048 0.054 0.117 0.087 0.194 0.087 0.008 0 0.015-0 0.023-0.001l-0.001 0 0.173-0.13c-0.476 0-0.519-0.476-0.13-0.735-0.389 0-0.649-0.216-0.519-0.605-0.158-0.101-0.262-0.276-0.262-0.475 0-0.113 0.033-0.217 0.090-0.305l-0.001 0.002c-0.089-0.115-0.142-0.261-0.142-0.42 0-0.098 0.020-0.192 0.057-0.276l-0.002 0.004c-0.173 0-0.346-0.043-0.519-0.173 0.229-0.093 0.419-0.241 0.56-0.429l0.002-0.003h2.595zM31.568 6.4c-0.389 0.087-0.692 0.562-0.995 0.995h-0.303v0.087c0 0.346-0.346 0.778-1.038 0.778-0.259 0-0.519-0.086-0.735-0.216-0.164-0.139-0.276-0.335-0.302-0.558l-0-0.004v-0.043h-0.303c-0.303-0.432-0.605-0.951-0.995-0.995l1.038-0.649 1.297 0.735 1.297-0.735 1.081 0.605zM30.357 5.492l-0.951 0.562v-2.205l1.427-0.476-0.389 2.119zM29.232 3.589l-1.557-0.562c0.13-0.303 0.735-0.562 1.514-0.562 0.865 0 1.427 0.259 1.557 0.562l-1.514 0.605z"></path>
<path fill="#656565" style="fill: var(--color1, #656565)" d="M32.692 10.205v-0.173c-0.519 0-0.649-0.605-0.649-0.605-0.017 0.053-0.026 0.114-0.026 0.177 0 0.334 0.271 0.605 0.605 0.605 0.025 0 0.049-0.001 0.073-0.004l-0.003 0zM32 11.243v-0.13c-0.432 0.13-0.692-0.605-0.692-0.605-0.020 0.058-0.032 0.125-0.032 0.195 0 0.334 0.271 0.605 0.605 0.605 0.058 0 0.113-0.008 0.166-0.023l-0.004 0.001zM32.346 10.638c-0.519 0.086-0.735-0.562-0.735-0.562-0.010 0.040-0.015 0.086-0.015 0.134 0 0.309 0.232 0.564 0.531 0.601l0.003 0c-0.009 0.033-0.014 0.071-0.014 0.11 0 0.239 0.194 0.432 0.432 0.432 0.085 0 0.165-0.025 0.232-0.068l-0.002 0.001v-0.13c-0.046 0.024-0.101 0.039-0.159 0.039-0.191 0-0.346-0.155-0.346-0.346 0-0.080 0.027-0.154 0.073-0.212l-0.001 0.001zM32 8.865v-0.216c-0.692-0.13-0.605-0.605-0.605-0.605-0.016 0.052-0.025 0.112-0.025 0.174 0 0.334 0.271 0.605 0.605 0.605 0.009 0 0.018-0 0.027-0.001l-0.001 0zM27.589 15.914l-0.259 0.476h0.216l0.216-0.476h-0.173zM27.978 15.914l-0.259 0.476h0.173l0.259-0.476h-0.173zM29.492 15.914l-0.259 0.476h0.173l0.259-0.476h-0.173zM29.838 15.914l-0.216 0.476h0.173l0.259-0.476h-0.216zM29.103 15.914l-0.259 0.476h0.216l0.216-0.476h-0.173zM31.308 16.432h0.173l0.259-0.519h-0.173l-0.259 0.476zM28.368 15.914l-0.259 0.476h0.173l0.259-0.476h-0.173zM28.713 15.914l-0.259 0.476h0.216l0.259-0.476h-0.216zM27.892 13.189c-0.010-0.005-0.023-0.008-0.036-0.008-0.048 0-0.087 0.039-0.087 0.086s0.039 0.086 0.087 0.086c0.048 0 0.087-0.039 0.087-0.086 0-0.013-0.003-0.025-0.008-0.036l0 0.001c-0.009-0.019-0.024-0.034-0.043-0.043l-0.001-0zM29.276 1.73c0.605 0 1.211 0.173 1.73 0.519 0.084-0.424 0.234-0.801 0.441-1.14l-0.009 0.015-0.605 0.043-0.346-0.692-0.605 0.346-0.605-0.605-0.649 0.605-0.605-0.346-0.346 0.692-0.605-0.043c0.198 0.323 0.348 0.7 0.429 1.102l0.004 0.022c0.457-0.325 1.027-0.52 1.643-0.52 0.031 0 0.061 0 0.091 0.001l-0.004-0zM27.805 1.427l0.303-0.562 0.562 0.259 0.605-0.562 0.562 0.562 0.562-0.303 0.259 0.649 0.389-0.043-0.259 0.519c-0.456-0.254-1-0.404-1.578-0.404s-1.123 0.15-1.595 0.412l0.017-0.009-0.259-0.519h0.389z"></path>
<path fill="#656565" style="fill: var(--color1, #656565)" d="M29.881 0.476c0.002 0 0.004 0 0.005 0 0.080 0 0.148-0.055 0.167-0.129l0-0.001-0.087-0.346s-0.216 0.216-0.216 0.303c-0 0.002-0 0.004-0 0.005 0 0.080 0.055 0.148 0.129 0.167l0.001 0zM30.919 0.865c0.018 0.007 0.039 0.011 0.061 0.011 0.068 0 0.127-0.039 0.155-0.096l0-0.001v-0.346s-0.259 0.13-0.303 0.216c-0.007 0.018-0.011 0.039-0.011 0.061 0 0.068 0.039 0.127 0.096 0.155l0.001 0zM28.627 0.476c0.075-0.020 0.13-0.087 0.13-0.168 0-0.002-0-0.004-0-0.006v0c0-0.086-0.216-0.303-0.216-0.303l-0.087 0.346c0.020 0.075 0.087 0.13 0.168 0.13 0.002 0 0.004-0 0.006-0h-0zM27.589 0.865c0.058-0.029 0.097-0.088 0.097-0.156 0-0.022-0.004-0.043-0.011-0.062l0 0.001c-0.043-0.087-0.346-0.216-0.346-0.216v0.346c0.024 0.068 0.088 0.116 0.163 0.116 0.036 0 0.069-0.011 0.097-0.030l-0.001 0zM39.87 6.487c0.199-0.098 0.353-0.266 0.43-0.47l0.002-0.006c-0.519-0.087-1.989-0.692-3.2-0.216 0.432-0.432 0.865-0.432 0.865-1.081 0.078 0.075 0.183 0.121 0.3 0.121 0.173 0 0.322-0.101 0.391-0.248l0.001-0.003c-0.087-0.346-0.432-0.043-0.432-0.173-0.087-0.087 0.346 0.043 0.432-0.432-0.303-0.13-0.432 0.173-0.476 0.087-0.087-0.043 0.216-0.173 0-0.562-0.389 0.216-0.173 0.476-0.259 0.519-0.087 0 0-0.259-0.432-0.259 0 0.432 0.389 0.432 0.303 0.519-0.043 0.087-0.173-0.259-0.476-0.087-0.003 0.019-0.005 0.042-0.005 0.065 0 0.239 0.194 0.432 0.432 0.432 0.048 0 0.094-0.008 0.138-0.022l-0.003 0.001c0 0.692-0.649 0.562-1.124 1.297 0.995 0.519 1.427 1.427 2.032 2.032 0.216-0.225 0.403-0.481 0.553-0.76l0.009-0.018c0.142 0.148 0.341 0.24 0.562 0.24s0.42-0.092 0.562-0.24l0-0c-0.216-0.259-0.259-0.432-0.605-0.735zM38.919 6.616c0.063 0.136 0.099 0.295 0.099 0.462 0 0.231-0.069 0.445-0.188 0.623l0.003-0.004c-0.303-0.649-0.735-1.211-1.297-1.643-0.087-0.043 0.043-0.173 0.303-0.173 0.778-0.173 1.643 0.173 2.076 0.259-0.173 0.13-0.346 0.216-0.562 0.259 0.259 0.173 0.476 0.432 0.692 0.692-0.303 0.087-0.476-0.087-1.124-0.476zM32.605 17.903v-0.822c-0.778 0.346-1.643 0.562-2.508 0.649l-0.043 0.259 0.346 0.043c-0.778 0.13-1.557 0.13-2.335 0h0.346v-0.303c-0.865-0.087-1.73-0.303-2.551-0.649v0.865l-0.865 0.303c0.735 0.389 1.514 0.649 2.292 0.865l-0.087 0.346c1.341 0.389 2.811 0.389 4.151 0l-0.087-0.346c0.778-0.216 1.557-0.476 2.249-0.865l-0.865-0.346zM25.47 18.292l0.605-0.259v-0.649c0.519 0.173 1.038 0.346 1.557 0.432l-0.303 1.081c-0.649-0.13-1.254-0.346-1.859-0.605zM29.276 19.546c-0.649 0-1.297-0.087-1.859-0.259l0.346-1.124c0.995 0.173 1.989 0.173 3.027 0l0.303 1.124c-0.605 0.173-1.211 0.259-1.859 0.259zM31.178 18.897l-0.346-1.081c0.562-0.087 1.081-0.259 1.6-0.432v0.649l0.562 0.259c-0.562 0.259-1.168 0.432-1.816 0.605zM19.157 7.178c0.159 0.297 0.346 0.553 0.563 0.78l-0.001-0.001c0.605-0.605 1.038-1.47 2.032-1.989-0.476-0.735-1.081-0.605-1.124-1.297 0.039 0.013 0.084 0.020 0.13 0.020 0.239 0 0.432-0.194 0.432-0.432 0-0.007-0-0.014-0-0.021l0 0.001c-0.303-0.216-0.432 0.13-0.476 0-0.087-0.043 0.346-0.043 0.303-0.476-0.432 0-0.346 0.259-0.432 0.259-0.087-0.043 0.13-0.303-0.259-0.519-0.216 0.432 0.087 0.519 0 0.562 0 0.043-0.173-0.216-0.519-0.087 0.087 0.432 0.562 0.259 0.519 0.432-0.087 0.173-0.389-0.216-0.519 0.173 0.070 0.149 0.22 0.25 0.392 0.25 0.116 0 0.222-0.046 0.3-0.121l-0 0c0.043 0.605 0.432 0.649 0.908 1.081-1.211-0.519-2.681 0.13-3.243 0.216 0.087 0.173 0.259 0.346 0.476 0.432-0.346 0.346-0.346 0.519-0.562 0.735 0 0 0.432 0.519 1.124 0zM18.508 7.092l0.692-0.735c-0.216 0-0.432-0.087-0.562-0.216 0.432-0.13 1.297-0.432 2.076-0.303 0.216 0.043 0.389 0.173 0.303 0.216-0.562 0.432-0.995 0.995-1.297 1.6-0.11-0.17-0.175-0.378-0.175-0.602 0-0.157 0.032-0.307 0.091-0.443l-0.003 0.007c-0.649 0.389-0.865 0.562-1.124 0.476zM28.713 6.746v0.346c0.079-0.084 0.191-0.136 0.315-0.136 0.026 0 0.052 0.002 0.077 0.007l-0.003-0v0.562c0 0.13-0.043 0.259-0.13 0.346h0.562c-0.087-0.087-0.13-0.216-0.13-0.346v-0.605c0.022-0.004 0.048-0.006 0.074-0.006 0.124 0 0.236 0.052 0.315 0.136l0 0v-0.346h-1.081z"></path>
<path fill="#656565" style="fill: var(--color1, #656565)" d="M24.13 14.443c0.259-0.259 0.519-0.346 0.519-0.908-0.432 0.216-1.686 0.216-2.205-0.519-0.13-0.216 0-0.303 0.13-0.13 0.389 0.432 1.038 0.216 1.297 0.086-0.043-0.13-0.13-0.303-0.259-0.432 0.087-0.043 0.346-0.173 0.432-0.432l-0.692-0.13c0.095-0.080 0.155-0.199 0.155-0.331 0-0.052-0.009-0.101-0.026-0.147l0.001 0.003c-0.562 0.173-1.211-0.086-1.384-0.259-0.13-0.216 0-0.432 0.13-0.259 0.303 0.259 1.6 0.605 2.119 0.13-0.173-0.086-0.346-0.173-0.432-0.346 0.432 0 0.822-0.303 0.865-0.649-0.346 0-0.649 0-0.908-0.13 0.217-0.047 0.385-0.215 0.432-0.429l0.001-0.004c-0.865 0-0.908-0.649-0.908-0.735 0.519 0.303 1.47 0.173 1.254-0.605-0.432 0-0.908-0.778 0.303-1.427 1.168-0.649 2.465-1.297 2.335-2.378-0.087-0.692-1.211-1.168-1.384-1.514-0.432 0.216-0.562 0.476-0.346 0.908 0 0-1.081 0.13-1.168-0.562 0.004-0.316 0.154-0.597 0.387-0.777l0.002-0.002c-0.13 0-0.951-0.216-1.168 0.432-0.432-0.303-0.865-0.303-1.124 0.043 0.432 0.259 0.778 1.297 1.557 1.557-0.562 0.303-1.47 0.173-2.032-0.778-0.519 0.778-0.778 1.557 0.303 2.335-1.989 0.908-1.989 2.638-3.719 3.459 0.173 0.476 0.562 0.476 1.038 0.432-0.778 0.951-0.13 1.989-1.297 2.378 0.087 0.432 0.303 0.735 0.778 0.605l-0.432 0.432c0.649 0.389 1.427 0.086 1.6-1.211 0-0.259 0.346-0.086 0.259 0.13-0.735 1.514 1.124 2.681 0.432 3.762 0.605 0 1.038-0.043 1.297-0.259 0.087 0.216 0.173 0.432 0.13 0.692 0.241-0.017 0.435-0.197 0.475-0.429l0-0.003c0.216 0.605 0.951 1.254 2.162 1.254-0.605-0.908 0-1.816-0.908-2.854zM22.919 15.568l-0.216 0.432-0.389-0.778c-0.216 0.432-0.519 0.432-0.865 0.432 0.087-1.038-1.211-2.076-0.649-3.243 0.040-0.068 0.064-0.15 0.064-0.237 0-0.175-0.094-0.327-0.234-0.41l-0.002-0.001c-0.865-0.432-0.476 1.384-1.297 1.427l0.216-0.649c-0.173 0-0.605 0.303-0.822-0.043 0.398-0.219 0.676-0.612 0.734-1.074l0.001-0.007c0-0.346 0.13-0.692 0.216-0.995l0.649-0.865c-0.087 0-1.038 0.173-1.297 0.086 1.73-1.038 1.297-2.335 3.892-3.503-0.692-0.519-1.384-0.865-0.865-1.859 0.692 0.865 2.032 0.562 2.724 0.173-0.692-0.13-1.6-0.778-1.816-1.47 0.259 0 0.605 0.259 0.778 0.432 0.13-0.303 0.173-0.605 0.432-0.649-0.389 0.865 0.432 1.341 1.211 1.341l0.649-0.043c-0.087-0.173-0.432-0.605-0.173-0.822 0.173 0.216 0.432 0.346 0.605 0.519 1.514 1.168-0.735 2.249-1.643 2.724-1.427 0.778-1.038 1.73-0.432 1.946 0 0.13-0.087 0.173-0.173 0.173-0.432 0.173-0.822-0.13-1.168-0.346 0 0.605 0 1.124 0.649 1.47l-0.432 0.173c0.346 0.259 0.432 0.432 0.951 0.476-0.259 0.086-0.476 0.13-0.735 0.13l0.216 0.519c-0.908 0.13-1.297-0.432-1.6-0.389-0.605 0.043-0.562 1.211 0.951 1.211l-0.13 0.259 0.562 0.216c-0.13 0.043-0.216 0.173-0.303 0.259l0.259 0.216c-0.649 0.086-0.822-0.562-1.211-0.216-0.605 0.432 0.735 1.514 2.032 1.341l-0.562 0.432c1.081 0.995 0.562 1.946 0.995 2.638-0.836-0.051-1.522-0.635-1.727-1.414l-0.003-0.013z"></path>
<path fill="#656565" style="fill: var(--color1, #656565)" d="M21.276 11.892c0.216 0.259 0.476 0.259 0.995 0.216-0.562-0.043-0.865-0.173-1.081-0.562v-0.605c0-0.692 0.173-1.384 0.519-2.032 0.038 0.695 0.569 1.255 1.247 1.34l0.007 0.001c-0.778-0.303-1.211-1.038-0.995-1.773 0.29-0.443 0.574-0.823 0.88-1.186l-0.015 0.018c-0.13 0.389 0.303 0.778 0.605 0.865-0.173-0.216-0.519-0.692 0.303-1.557-0.259 0.087-0.432 0.216-0.692 0.389 1.47-1.557 2.681-1.6 3.243-2.422-0.778 0.562-2.897 0.865-3.892 0.562 0.562 0.346 1.816 0.346 2.162 0.259-1.081 0.995-3.287 2.032-3.676 2.941 0.35-0.42 0.824-0.726 1.366-0.861l0.018-0.004c-0.389 0.519-0.692 1.081-0.951 1.643-0.605 1.297-1.427 1.297-1.47 2.378 0.303-0.865 0.865-1.038 1.211-1.6l-0.087 1.168c0 0.432 0.13 0.865 0.259 1.297 0 0.562 0 1.427 0.649 2.032-0.3-0.431-0.479-0.967-0.479-1.543 0-0.050 0.001-0.1 0.004-0.15l-0 0.007c0.432 0.908 1.816 2.162 2.465 3.027-0.649-1.081-2.249-2.335-2.595-3.849zM36.238 7.524c0.56 0.139 1.034 0.445 1.38 0.861l0.003 0.004c-0.389-0.951-2.595-1.989-3.632-2.984 0.303 0.087 1.557 0.13 2.076-0.259-0.951 0.259-3.027 0-3.892-0.562 0.605 0.778 1.773 0.865 3.243 2.422l-0.649-0.432c0.778 0.865 0.432 1.384 0.259 1.557 0.303-0.086 0.735-0.432 0.649-0.822l0.303 0.389 0.519 0.778c0.259 0.692-0.216 1.47-0.951 1.773 0.667-0.104 1.176-0.658 1.211-1.337l0-0.003c0.346 0.605 0.562 1.297 0.562 2.032l-0.043 0.605c-0.173 0.389-0.519 0.519-1.038 0.562 0.476 0 0.735 0 0.951-0.216-0.346 1.47-1.946 2.768-2.595 3.892 0.649-0.865 2.032-2.162 2.508-3.070 0 0.605-0.13 1.168-0.476 1.687 0.605-0.605 0.649-1.514 0.605-2.032 0.173-0.432 0.259-0.865 0.259-1.297 0-0.389 0-0.778-0.087-1.168 0.432 0.562 0.951 0.735 1.211 1.6-0.043-1.081-0.865-1.124-1.427-2.422-0.286-0.611-0.603-1.136-0.968-1.624l0.017 0.024z"></path>
<path fill="#656565" style="fill: var(--color1, #656565)" d="M38.876 9.946c0.432 0.086 0.865 0.086 0.995-0.432-1.73-0.778-1.73-2.508-3.719-3.459 1.124-0.778 0.822-1.557 0.303-2.292-0.519 0.951-1.47 1.081-2.032 0.735 0.778-0.259 1.124-1.297 1.6-1.557-0.303-0.303-0.692-0.303-1.124 0-0.259-0.692-1.081-0.432-1.168-0.432 0.208 0.179 0.34 0.441 0.346 0.734v0.001c-0.087 0.649-1.124 0.562-1.124 0.562 0.216-0.432 0.087-0.692-0.389-0.951-0.13 0.389-1.297 0.865-1.341 1.557-0.13 1.081 1.168 1.73 2.292 2.378 1.254 0.649 0.778 1.384 0.346 1.427-0.259 0.778 0.692 0.865 1.254 0.562 0 0.13-0.087 0.735-0.908 0.778 0.047 0.217 0.215 0.385 0.429 0.432l0.004 0.001c-0.303 0.086-0.605 0.173-0.865 0.13 0 0.346 0.346 0.605 0.822 0.649-0.13 0.173-0.259 0.259-0.432 0.303 0.476 0.519 1.816 0.173 2.076-0.086 0.13-0.13 0.303 0.043 0.13 0.259-0.13 0.173-0.822 0.432-1.341 0.259-0.016 0.043-0.025 0.093-0.025 0.144 0 0.133 0.060 0.251 0.154 0.331l0.001 0.001-0.649 0.13c0 0.259 0.303 0.389 0.389 0.432-0.13 0.13-0.216 0.259-0.259 0.432 0.259 0.13 0.908 0.303 1.297-0.13 0.13-0.13 0.303 0 0.13 0.173-0.519 0.735-1.73 0.735-2.205 0.519 0 0.562 0.216 0.649 0.519 0.865-0.865 1.081-0.303 1.989-0.951 2.897 1.211 0 1.989-0.649 2.162-1.297 0 0.001 0 0.001 0 0.002 0 0.271 0.208 0.494 0.474 0.517l0.002 0c0-0.259 0.043-0.519 0.173-0.692 0.216 0.173 0.692 0.216 1.297 0.259-0.692-1.124 1.168-2.292 0.432-3.805-0.13-0.216 0.216-0.389 0.259-0.13 0.173 1.297 0.908 1.6 1.557 1.168-0.173-0.173-0.259-0.173-0.389-0.389 0.432 0.13 0.649-0.173 0.778-0.605-1.168-0.432-0.562-1.427-1.297-2.378zM38.962 12.541l0.259 0.649c-0.865 0-0.432-1.859-1.297-1.427-0.161 0.079-0.27 0.241-0.27 0.429 0 0.080 0.020 0.156 0.055 0.222l-0.001-0.003c0.562 1.168-0.735 2.162-0.649 3.2-0.346 0-0.649 0-0.865-0.432l-0.303 0.822-0.259-0.432c-0.208 0.792-0.894 1.376-1.724 1.427l-0.005 0c0.432-0.692-0.13-1.6 0.951-2.595l-0.562-0.432c1.297 0.13 2.681-0.908 2.032-1.384-0.389-0.346-0.562 0.346-1.168 0.216l0.216-0.216-0.259-0.259c0.212-0.042 0.4-0.117 0.57-0.221l-0.008 0.004-0.173-0.259c1.514 0 1.557-1.168 0.951-1.211-0.303 0-0.649 0.519-1.6 0.432l0.216-0.562c-0.216 0-0.476 0-0.692-0.13 0.432-0.043 0.562-0.216 0.951-0.476l-0.432-0.173c0.605-0.303 0.562-0.865 0.605-1.47-0.346 0.216-0.735 0.519-1.168 0.346-0.087 0-0.13-0.043-0.13-0.173 0.562-0.216 0.951-1.168-0.432-1.946-0.951-0.476-3.2-1.557-1.687-2.724l0.649-0.519c0.216 0.216-0.087 0.649-0.173 0.822l0.605 0.043c0.778 0 1.6-0.432 1.211-1.341 0.303 0.043 0.346 0.346 0.432 0.605 0.173-0.13 0.519-0.432 0.822-0.389-0.216 0.692-1.124 1.297-1.859 1.47 0.735 0.432 2.032 0.692 2.724-0.173 0.519 0.951-0.173 1.341-0.865 1.859 2.595 1.168 2.162 2.465 3.892 3.459-0.259 0.13-1.211-0.043-1.297-0.086l0.649 0.908c0.13 0.303 0.216 0.649 0.259 0.995 0.049 0.461 0.311 0.853 0.685 1.078l0.006 0.004c-0.173 0.346-0.605 0.086-0.778 0zM26.811 15.395l0.346-0.303v-0.13c-0.087-0.086-0.043-0.086 0-0.13l0.173-0.13c0.019-0.008 0.041-0.013 0.065-0.013s0.046 0.005 0.066 0.013l-0.001-0 0.562 0.13h-0.562c-0.014-0.003-0.030-0.005-0.047-0.005-0.106 0-0.194 0.076-0.213 0.177l-0 0.001v0.086l-0.173 0.303c-0.035 0.053-0.056 0.119-0.056 0.189 0 0.095 0.038 0.181 0.1 0.243l0.13 0.13-0.216 0.432h0.173l0.13-0.303c0.13-0.13 0.259-0.259 0.303-0.432-0.043-0.043-0.13-0.086-0.087-0.173l0.087-0.13c0-0.043 0-0.086 0.087-0.086l0.605 0.13c0.029 0.016 0.064 0.025 0.102 0.025 0.062 0 0.118-0.026 0.158-0.068l0-0c0.087-0.13 0.087-0.13 0.303-0.086h0.303c0.346 0.086 0.692 0 0.995-0.173l0.216 0.346v0.13l-0.346 0.865h0.519l0.303-0.778 0.087-0.173-0.13 0.908h0.476l0.173-0.865c0-0.216 0-0.303-0.087-0.389-0.216-0.173-0.216-0.562-0.303-0.778h0.13c0.13 0 0.216 0.259 0.346 0.432 0.259 0.432 0.605 0.822 1.038 0.216-0.041-0.065-0.084-0.122-0.131-0.174l0.001 0.001-0.13-0.13-0.519-0.562c-0.142-0.146-0.339-0.236-0.558-0.236-0.145 0-0.28 0.040-0.396 0.108l0.004-0.002c-0.432-0.216-0.865 0-0.951 0h-0.735c-0.002 0-0.005 0-0.007 0-0.056 0-0.104-0.036-0.122-0.086l-0-0.001 0.13-0.043c-0.13-0.562-0.432-0.995-0.995-1.038 0 0 0-0.173-0.13-0.216l-0.13 0.173-0.173 0.043-0.692-0.259 0.519 0.562-0.346 0.432c-0.035 0.024-0.058 0.063-0.058 0.108s0.023 0.085 0.058 0.108l0 0 0.087 0.13c0.087 0.086 0.13 0.086 0.216 0h0.13c0-0.086 0.216 0 0.259-0.043l-0.043 0.432-0.476-0.086c-0.019-0.005-0.040-0.008-0.062-0.008-0.058 0-0.112 0.019-0.155 0.051l0.001-0.001-0.432 0.303c-0.078 0.064-0.128 0.16-0.128 0.268 0 0.060 0.015 0.117 0.042 0.166l-0.001-0.002 0.173 0.389zM30.746 15.481l-0.303 0.778h-0.216l0.303-0.778c0.043-0.086 0-0.13-0.087-0.216l0.346 0.13v0.086zM27.632 13.751l-0.087 0.043c-0.087 0-0.087 0.043-0.173 0v-0.043c-0.018-0.016-0.029-0.039-0.029-0.065s0.011-0.049 0.029-0.065l0-0 0.389-0.476-0.346-0.303 0.432 0.173 0.173-0.216 0.043 0.173c0.446 0.085 0.779 0.471 0.779 0.936 0 0.006-0 0.011-0 0.017v-0.001c0.043 0.086 0.13 0.173 0.259 0.173l0.822 0.043c0.13 0 0.432-0.259 0.865 0l0.346-0.13c0.369 0.013 0.688 0.216 0.862 0.514l0.003 0.005 0.389 0.476c-0.087 0.13-0.173 0.13-0.259 0.13-0.099-0.067-0.166-0.176-0.173-0.302l-0-0.001c-0.070-0.143-0.173-0.26-0.3-0.344l-0.003-0.002c0.087 0.13 0.13 0.259 0.13 0.432-0.303-0.346-0.389-0.692-0.605-0.778-0.009-0.001-0.018-0.001-0.029-0.001-0.121 0-0.225 0.070-0.273 0.172l-0.001 0.002c0.13 0.259 0.087 0.562 0.216 0.735l0.13 0.216c0.13 0.043 0.043 0.173 0.043 0.259l-0.13 0.735h-0.173l0.13-0.735c0-0.216-0.605-0.216-0.908-0.649-0.303 0.346-1.038 0.259-1.384 0.216-0.027-0.008-0.057-0.013-0.089-0.013-0.108 0-0.203 0.057-0.256 0.142l-0.001 0.001c0 0.043-0.13 0-0.173 0l-0.605-0.086c-0.023-0.021-0.053-0.033-0.087-0.033s-0.064 0.013-0.087 0.033l0-0v0.086l-0.13 0.259c-0.011 0.019-0.017 0.041-0.017 0.065s0.006 0.046 0.018 0.065l-0-0.001 0.087 0.043c0 0.086-0.087 0.173-0.173 0.216l-0.13-0.13c-0.030-0.042-0.049-0.095-0.049-0.151s0.018-0.109 0.049-0.152l-0.001 0.001 0.216-0.432c0.030-0.027 0.071-0.044 0.115-0.044 0.005 0 0.010 0 0.015 0.001l-0.001-0h0.735l-0.216-0.389c-0.173-0.259 0.13-0.778 0.087-0.995 0 0.303-0.432 0.173-0.476 0.216v-0.043zM26.811 14.703l0.389-0.303c0.037-0.029 0.083-0.047 0.134-0.047 0.014 0 0.027 0.001 0.040 0.004l-0.001-0 0.476 0.043 0.13 0.259-0.562-0.13c-0.015-0.005-0.032-0.008-0.051-0.008-0.048 0-0.091 0.019-0.122 0.051v0l-0.216 0.173c-0.020 0.023-0.033 0.053-0.033 0.086s0.013 0.064 0.033 0.087l-0-0v0.086l-0.173 0.13-0.087-0.13c-0.043-0.13-0.043-0.259 0.043-0.346zM28.368 5.103l0.519 0.259v-0.216l-0.735-0.303s0 0.087 0.216 0.259zM28.887 4.8v-0.216l-0.865-0.303 0.346 0.259 0.562 0.259zM28.887 4.324v-0.259l-0.908-0.346 0.389 0.303 0.519 0.259z"></path>
<path fill="#656565" style="fill: var(--color1, #656565)" d="M31.568 7.395h0.951c-0.067-0.158-0.22-0.266-0.399-0.266-0.027 0-0.053 0.002-0.079 0.007l0.003-0c-0.013-0.001-0.029-0.002-0.044-0.002-0.199 0-0.373 0.103-0.473 0.259l-0.001 0.002zM30.53 3.719l-0.951 0.346v0.216l0.562-0.259 0.432-0.303zM30.357 4.843l-0.778 0.259v0.259l0.562-0.303c0.216-0.13 0.216-0.216 0.216-0.216zM30.443 4.281l-0.865 0.303v0.216l0.562-0.259 0.346-0.259zM26.465 7.135c-0.011-0.001-0.023-0.001-0.035-0.001-0.177 0-0.329 0.106-0.396 0.258l-0.001 0.003h0.908c-0.101-0.157-0.276-0.259-0.474-0.259-0.001 0-0.001 0-0.002 0h0z"></path>
<path fill="#656565" style="fill: var(--color1, #656565)" d="M31.135 3.114c0-0.562-0.865-1.038-1.903-1.038-0.995 0-1.903 0.476-1.903 1.038v0.13l0.432 2.292-1.903 1.081c-0.255 0.178-0.432 0.454-0.475 0.773l-0.001 0.006h0.346c0.064-0.371 0.383-0.649 0.767-0.649 0.004 0 0.008 0 0.011 0h-0.001c0.432 0 0.692 0.259 0.951 0.649l0.173 0.259h-2.768c0.216 0.432 0.346 0.865 0.389 1.297v5.795c0 1.514 1.124 2.205 2.378 2.205 0.951 0 1.081 0 1.6 0.476 0.562-0.519 0.692-0.432 1.643-0.432 1.211 0 2.378-0.735 2.378-2.249v-5.795c0.047-0.485 0.202-0.926 0.44-1.31l-0.007 0.013h-2.811l0.13-0.259c0.259-0.389 0.519-0.649 0.995-0.649 0.003-0 0.007-0 0.011-0 0.384 0 0.703 0.278 0.767 0.644l0.001 0.005h0.346c-0.044-0.324-0.22-0.6-0.472-0.776l-0.004-0.002-1.946-1.081 0.389-2.292v-0.13zM27.719 3.373l1.427 0.432v2.249l-1.038-0.562-0.389-2.162zM28.065 8.043c0.216 0.259 0.519 0.432 0.865 0.519 0 0.173 0.13 0.303 0.216 0.432-0.015 0.054-0.024 0.117-0.024 0.181 0 0.345 0.252 0.631 0.582 0.683l0.004 0.001c0.041 0.207 0.19 0.371 0.385 0.431l0.004 0.001-0.303 0.303c-0.080 0.107-0.206 0.175-0.347 0.175-0.015 0-0.029-0.001-0.044-0.002l0.002 0-1.297-0.173c0-0.13-0.13-0.303-0.519-0.216l0.519-1.47-0.346-0.649-0.605 0.519v1.514l-0.303-0.13c-0.303-0.13-0.432 0.432-0.087 0.432h0.13c-0.011 0.018-0.017 0.040-0.017 0.064 0 0.046 0.024 0.086 0.059 0.109l0 0c-0.048 0-0.087 0.039-0.087 0.086s0.039 0.086 0.087 0.086v0c-0.035 0.024-0.058 0.063-0.058 0.108s0.023 0.085 0.058 0.108l0 0c-0.028 0.045-0.045 0.1-0.045 0.158 0 0.121 0.071 0.225 0.173 0.273l0.002 0.001c0.173 0 0.303-0.173 0.346-0.303l2.076 0.649c0.070 0.026 0.151 0.041 0.235 0.041 0.197 0 0.374-0.082 0.5-0.214l0-0 0.476-0.519c-0.015 0.048-0.023 0.103-0.023 0.161 0 0.208 0.113 0.389 0.28 0.486l0.003 0.001v0.432h-5.319v-3.373c0-0.346-0.043-0.649-0.173-0.951h2.595zM30.27 9.341c-0.046 0.090-0.073 0.196-0.073 0.309 0 0.143 0.043 0.276 0.117 0.386l-0.002-0.002-0.087 0.086c-0.389-0.043-0.519-0.649-0.519-0.649v0.173c-0.227-0.058-0.393-0.262-0.393-0.503 0-0.021 0.001-0.041 0.004-0.061l-0 0.002 0.303 0.086v-0.173c-0.212-0.057-0.376-0.22-0.431-0.428l-0.001-0.004h0.519c0.127 0.149 0.31 0.247 0.517 0.259l0.002 0c-0.043 0.173 0 0.346 0.043 0.476zM30.832 10.854l-0.087 0.173-0.216 0.173c0.002-0.026 0.004-0.057 0.004-0.088 0-0.309-0.135-0.586-0.349-0.776l-0.001-0.001 0.216-0.216 0.043 0.043c-0.011 0.040-0.018 0.087-0.018 0.134 0 0.262 0.195 0.479 0.447 0.514l0.003 0zM29.838 10.768l0.173-0.173c0.217 0.176 0.354 0.442 0.354 0.741 0 0.044-0.003 0.087-0.009 0.129l0.001-0.005-0.216 0.13-0.13 0.086c0.019-0.075 0.030-0.16 0.030-0.248 0-0.232-0.076-0.447-0.205-0.619l0.002 0.003zM29.405 10.897h0.216c0.096 0.146 0.152 0.325 0.152 0.517 0 0.125-0.024 0.245-0.068 0.355l0.002-0.006h-0.259l-0.087-0.043c0.13-0.259 0.173-0.562 0.087-0.822zM28.973 10.854h0.259c0.043 0.259 0 0.562-0.13 0.778l-0.259-0.086c0.13-0.216 0.173-0.432 0.13-0.692zM28.454 10.768l0.303 0.043c0 0.259 0 0.476-0.13 0.692l-0.303-0.086c0.13-0.173 0.173-0.432 0.13-0.649zM27.243 10.681c-0.013 0.005-0.028 0.008-0.043 0.008-0.072 0-0.13-0.058-0.13-0.13 0-0.003 0-0.005 0-0.008l-0 0c0.063-0.033 0.137-0.052 0.216-0.052s0.153 0.019 0.219 0.053l-0.003-0.001 0.259 0.303-0.087 0.346c-0.142-0.027-0.248-0.15-0.248-0.298 0-0.049 0.012-0.095 0.032-0.136l-0.001 0.002c-0.029-0.058-0.088-0.097-0.156-0.097-0.022 0-0.043 0.004-0.062 0.011l0.001-0zM27.027 11.243l0.216 0.043c0 0.002 0 0.005 0 0.007 0 0.056-0.036 0.104-0.086 0.122l-0.001 0h-0.043c-0.013 0.006-0.027 0.010-0.043 0.010-0.053 0-0.097-0.043-0.097-0.097 0-0.038 0.021-0.070 0.053-0.086l0.001-0zM26.768 10.465c-0.048 0-0.087-0.039-0.087-0.086s0.039-0.086 0.087-0.086v0c0.13 0 0.216 0.086 0.346 0.173h-0.346zM27.027 11.027c0.087 0.086 0.259 0.043 0.259 0.043-0.087 0.13-0.303 0.086-0.259 0zM27.287 10.897c-0.13 0.086-0.259 0-0.216-0.086h0.216v0.086zM27.459 9.384l-0.216 0.908 0.087-1.47 0.389-0.303 0.173 0.432-0.476 1.427 0.13-0.995c0-0.043 0-0.043-0.043 0zM27.503 10.508h0.389s0 0.13-0.087 0.13l-0.303-0.13zM27.935 10.724h0.303c0 0.259 0 0.432-0.13 0.649l-0.259-0.086 0.13-0.562zM32.865 14.746c0.001 0.025 0.002 0.054 0.002 0.083 0 0.63-0.346 1.18-0.858 1.47l-0.008 0.004 0.173-0.432h-0.173l-0.259 0.519c-0.259 0.13-0.562 0.173-0.865 0.173-0.995 0-1.254 0-1.6 0.432-0.389-0.389-0.649-0.432-1.643-0.432-0.303 0-0.562-0.043-0.865-0.173l0.259-0.476h-0.216l-0.259 0.432c-0.054-0.034-0.096-0.062-0.137-0.092l0.008 0.005 0.173-0.346h-0.173l-0.13 0.259c-0.422-0.31-0.692-0.805-0.692-1.362 0-0.008 0-0.015 0-0.023v0.001-2.249h7.265v2.205zM33.081 8.043c-0.126 0.279-0.204 0.605-0.216 0.947l-0 0.005v3.373h-0.432l-0.303-0.778c-0.021 0.074-0.033 0.159-0.033 0.247 0 0.198 0.061 0.382 0.164 0.535l-0.002-0.003h-0.519l-0.216-0.778c-0.173 0.173-0.043 0.649 0 0.778h-0.303l0.043-0.519c-0.173 0-0.346-0.13-0.346-0.303 0.043 0.032 0.096 0.051 0.154 0.051 0.022 0 0.043-0.003 0.064-0.008l-0.002 0 0.173-0.086c-0.476 0-0.519-0.519-0.13-0.735-0.389 0-0.649-0.216-0.519-0.649-0.158-0.101-0.262-0.276-0.262-0.475 0-0.113 0.033-0.217 0.090-0.305l-0.001 0.002c-0.082-0.112-0.131-0.253-0.131-0.405 0-0.088 0.016-0.171 0.046-0.248l-0.002 0.005c-0.173 0-0.346-0.086-0.519-0.216 0.229-0.093 0.419-0.241 0.56-0.429l0.002-0.003h2.595zM31.568 6.487c-0.389 0.043-0.692 0.519-0.995 0.951v0.043h-0.303v0.087c0 0.303-0.346 0.778-1.038 0.778-0.259 0-0.519-0.086-0.735-0.259-0.118-0.102-0.208-0.233-0.258-0.383l-0.002-0.006-0.043-0.13v-0.087h-0.303c-0.303-0.432-0.605-0.951-0.995-0.995l1.038-0.649 1.297 0.735 1.297-0.735 1.081 0.649zM30.357 5.535l-0.951 0.519v-2.162l1.427-0.476-0.389 2.162zM29.232 3.632l-1.557-0.605c0.13-0.303 0.735-0.562 1.514-0.562 0.865 0 1.427 0.259 1.557 0.562l-1.514 0.605z"></path>
<path fill="#656565" style="fill: var(--color1, #656565)" d="M32.692 10.249v-0.173c-0.519 0-0.649-0.649-0.649-0.649-0.027 0.066-0.042 0.142-0.042 0.222 0 0.334 0.271 0.605 0.605 0.605 0.030 0 0.060-0.002 0.089-0.006l-0.003 0zM32 11.243v-0.13c-0.432 0.13-0.692-0.605-0.692-0.605-0.020 0.058-0.032 0.125-0.032 0.195 0 0.334 0.271 0.605 0.605 0.605 0.058 0 0.113-0.008 0.166-0.023l-0.004 0.001zM32.346 10.638c-0.519 0.086-0.735-0.562-0.735-0.562-0.010 0.040-0.015 0.086-0.015 0.134 0 0.309 0.232 0.564 0.531 0.601l0.003 0c-0.009 0.033-0.014 0.071-0.014 0.11 0 0.239 0.194 0.432 0.432 0.432 0.085 0 0.165-0.025 0.232-0.068l-0.002 0.001v-0.13c-0.046 0.024-0.101 0.039-0.159 0.039-0.191 0-0.346-0.155-0.346-0.346 0-0.080 0.027-0.154 0.073-0.212l-0.001 0.001zM32 8.865v-0.173c-0.692-0.13-0.605-0.605-0.605-0.605-0.016 0.052-0.025 0.112-0.025 0.174 0 0.334 0.271 0.605 0.605 0.605 0.009 0 0.018-0 0.027-0.001l-0.001 0zM27.589 15.914l-0.259 0.476h0.216l0.216-0.476h-0.173zM27.978 15.914l-0.259 0.476h0.173l0.259-0.476h-0.173zM29.492 15.914l-0.259 0.476h0.173l0.259-0.476h-0.173zM29.838 15.914l-0.216 0.476h0.173l0.259-0.476h-0.216zM29.103 15.914l-0.259 0.476h0.216l0.216-0.476h-0.173zM31.308 16.432h0.173l0.259-0.519h-0.173l-0.259 0.476zM28.368 15.914l-0.259 0.476h0.173l0.259-0.476h-0.173zM28.713 15.914l-0.259 0.476h0.216l0.259-0.476h-0.216zM27.849 13.189c-0.043 0.006-0.075 0.042-0.075 0.086 0 0.048 0.039 0.086 0.087 0.086s0.087-0.039 0.087-0.086c0-0.016-0.004-0.030-0.011-0.043l0 0c-0.015-0.026-0.043-0.044-0.075-0.044-0.004 0-0.008 0-0.012 0.001l0-0zM29.276 1.73c0.605 0 1.211 0.173 1.73 0.519 0.084-0.424 0.234-0.801 0.441-1.14l-0.009 0.015-0.605 0.043-0.346-0.692-0.605 0.346-0.605-0.605-0.649 0.605-0.605-0.346-0.346 0.692-0.605-0.043c0.198 0.323 0.348 0.7 0.429 1.102l0.004 0.022c0.457-0.325 1.027-0.52 1.643-0.52 0.031 0 0.061 0 0.091 0.001l-0.004-0zM27.805 1.47l0.303-0.649 0.562 0.303 0.605-0.605 0.562 0.605 0.562-0.303 0.259 0.649 0.389-0.043-0.259 0.519c-0.456-0.254-1-0.404-1.578-0.404s-1.123 0.15-1.595 0.412l0.017-0.009-0.259-0.519h0.389z"></path>
<path fill="#656565" style="fill: var(--color1, #656565)" d="M29.881 0.476c0.002 0 0.004 0 0.005 0 0.080 0 0.148-0.055 0.167-0.129l0-0.001-0.087-0.346s-0.216 0.216-0.216 0.303c-0 0.002-0 0.004-0 0.005 0 0.080 0.055 0.148 0.129 0.167l0.001 0zM30.919 0.865c0.018 0.007 0.039 0.011 0.061 0.011 0.068 0 0.127-0.039 0.155-0.096l0-0.001v-0.346s-0.259 0.13-0.303 0.216c-0.007 0.018-0.011 0.039-0.011 0.061 0 0.068 0.039 0.127 0.096 0.155l0.001 0zM28.627 0.476c0.075-0.020 0.13-0.087 0.13-0.168 0-0.002-0-0.004-0-0.006v0c0-0.086-0.216-0.303-0.216-0.303l-0.087 0.346c0.020 0.075 0.087 0.13 0.168 0.13 0.002 0 0.004-0 0.006-0h-0zM27.589 0.865c0.058-0.029 0.097-0.088 0.097-0.156 0-0.022-0.004-0.043-0.011-0.062l0 0.001c-0.043-0.087-0.346-0.216-0.346-0.216v0.346c0.024 0.068 0.088 0.116 0.163 0.116 0.036 0 0.069-0.011 0.097-0.030l-0.001 0zM39.87 6.487c0.199-0.098 0.353-0.266 0.43-0.47l0.002-0.006c-0.519-0.087-1.989-0.692-3.2-0.216 0.432-0.432 0.865-0.432 0.865-1.081 0.078 0.075 0.183 0.121 0.3 0.121 0.173 0 0.322-0.101 0.391-0.248l0.001-0.003c-0.13-0.346-0.432-0.043-0.432-0.173-0.087-0.087 0.346 0.043 0.432-0.432-0.346-0.13-0.432 0.173-0.519 0.13-0.043-0.087 0.259-0.216 0-0.562-0.346 0.216-0.13 0.432-0.216 0.432-0.087 0.043 0-0.216-0.432-0.216-0.043 0.432 0.389 0.432 0.303 0.519-0.043 0.087-0.173-0.259-0.519-0.087-0.005 0.025-0.008 0.054-0.008 0.083 0 0.239 0.194 0.432 0.432 0.432 0.066 0 0.128-0.015 0.184-0.041l-0.003 0.001c0 0.692-0.649 0.562-1.124 1.297 0.995 0.519 1.427 1.427 2.032 2.032 0.216-0.225 0.403-0.481 0.553-0.76l0.009-0.018c0.142 0.148 0.341 0.24 0.562 0.24s0.42-0.092 0.562-0.24l0-0c-0.259-0.259-0.259-0.432-0.605-0.735zM38.919 6.616c0.063 0.136 0.099 0.295 0.099 0.462 0 0.231-0.069 0.445-0.188 0.623l0.003-0.004c-0.303-0.649-0.735-1.211-1.297-1.643-0.087-0.043 0.043-0.13 0.303-0.173 0.778-0.13 1.643 0.173 2.076 0.259-0.173 0.13-0.389 0.216-0.562 0.259 0.259 0.173 0.476 0.432 0.692 0.692-0.303 0.087-0.476-0.087-1.124-0.476zM32.605 17.903v-0.822c-0.778 0.346-1.643 0.562-2.508 0.649l-0.043 0.259 0.346 0.043c-0.351 0.050-0.756 0.079-1.168 0.079s-0.817-0.029-1.213-0.084l0.046 0.005h0.346v-0.303c-0.865-0.087-1.73-0.303-2.551-0.649v0.865l-0.865 0.303c0.735 0.389 1.514 0.649 2.292 0.865l-0.087 0.346c1.341 0.389 2.811 0.389 4.151 0l-0.087-0.346c0.778-0.216 1.557-0.476 2.249-0.865l-0.865-0.346zM25.47 18.292l0.605-0.259v-0.649c0.519 0.173 1.038 0.346 1.557 0.432l-0.303 1.081c-0.649-0.13-1.297-0.346-1.859-0.605zM29.276 19.546c-0.649 0-1.297-0.087-1.859-0.259l0.346-1.124c0.995 0.173 1.989 0.173 3.027 0l0.346 1.124c-0.649 0.173-1.254 0.259-1.859 0.259zM31.178 18.897l-0.346-1.081c0.615-0.114 1.152-0.263 1.669-0.455l-0.069 0.022v0.649l0.562 0.259c-0.516 0.239-1.122 0.447-1.752 0.593l-0.064 0.012zM19.157 7.222l0.562 0.735c0.605-0.605 1.038-1.47 2.032-1.989-0.432-0.735-1.081-0.605-1.124-1.297 0.039 0.013 0.084 0.020 0.13 0.020 0.239 0 0.432-0.194 0.432-0.432 0-0.007-0-0.014-0-0.021l0 0.001c-0.303-0.216-0.432 0.13-0.476 0-0.087-0.043 0.346-0.043 0.303-0.476-0.432 0-0.346 0.259-0.432 0.259-0.087-0.043 0.13-0.303-0.259-0.519-0.216 0.432 0.087 0.519 0 0.562 0 0.043-0.13-0.216-0.519-0.087 0.087 0.432 0.562 0.259 0.519 0.432-0.087 0.173-0.389-0.216-0.476 0.173 0.075 0.135 0.217 0.224 0.379 0.224 0.102 0 0.196-0.036 0.271-0.095l-0.001 0.001c0.043 0.605 0.432 0.649 0.908 1.081-1.211-0.519-2.681 0.13-3.243 0.216 0.087 0.216 0.259 0.346 0.476 0.432-0.346 0.346-0.346 0.519-0.562 0.778 0 0 0.432 0.476 1.124 0zM18.508 7.092c0.173-0.259 0.432-0.476 0.692-0.692-0.216 0-0.432-0.13-0.562-0.259 0.432-0.087 1.297-0.432 2.076-0.259 0.216 0 0.346 0.13 0.259 0.173-0.519 0.432-0.951 0.995-1.297 1.643-0.116-0.174-0.186-0.389-0.186-0.619 0-0.167 0.037-0.326 0.102-0.469l-0.003 0.007c-0.649 0.389-0.822 0.562-1.081 0.519zM28.713 6.746v0.346c0.075-0.063 0.172-0.101 0.278-0.101 0.040 0 0.078 0.005 0.114 0.015l-0.003-0.001v0.519c0 0.13-0.043 0.259-0.13 0.346h0.519l-0.087-0.346v-0.605c0.022-0.004 0.048-0.006 0.074-0.006 0.124 0 0.236 0.052 0.315 0.136l0 0v-0.346h-1.081z"></path>
</symbol>
<symbol id="icon-img3" viewBox="0 0 101 32">
<path d="M0 0h100.978v31.2h-100.978z"></path>
</symbol>
<symbol id="icon-img4" viewBox="0 0 159 32">
<path d="M0 0h158.857v32h-158.857z"></path>
</symbol>
<symbol id="icon-img5" viewBox="0 0 59 32">
<path d="M0 0h58.298v31.767h-58.298z"></path>
</symbol>
<symbol id="icon-img6" viewBox="0 0 75 32">
<path d="M0 0h75.378v32h-75.378z"></path>
</symbol>
<symbol id="icon-img7" viewBox="0 0 48 32">
<path d="M0 0h48v32h-48z"></path>
</symbol>
<symbol id="icon-img8" viewBox="0 0 106 32">
<path d="M0 0h106.435v32h-106.435v-32z"></path>
</symbol>
<symbol id="icon-img9" viewBox="0 0 65 32">
<path d="M0 0.413h64.052v31.226h-64.052z"></path>
</symbol>
</defs>
</svg>
