<svg width="56" height="53" viewBox="0 0 56 53" fill="none" xmlns="http://www.w3.org/2000/svg">
<path d="M12.1997 12.1167H14.172V37.8834H12.1997V12.1167Z" fill="#F2353F"/>
<path d="M30.1125 12.1167H32.133V37.8834H30.1125V12.1167Z" fill="#F2353F"/>
<path fill-rule="evenodd" clip-rule="evenodd" d="M43.7999 1.66686V9.2002H51.3332C53.6114 9.2002 55.4665 11.0553 55.4665 13.3335V36.6669C55.4665 38.9451 53.6114 40.8002 51.3332 40.8002H43.7999V45.4169C43.7999 49.3022 40.6352 52.4669 36.7499 52.4669H7.5832C3.69792 52.4669 0.533203 49.3022 0.533203 45.4169V1.66686C0.533203 0.994639 1.07694 0.450195 1.74987 0.450195H42.5832C43.2561 0.450195 43.7999 0.994639 43.7999 1.66686ZM41.3665 45.4169V2.88353H2.96654V45.4169C2.96654 47.9617 5.03321 50.0335 7.5832 50.0335H36.7499C39.2999 50.0335 41.3665 47.9617 41.3665 45.4169ZM43.7999 38.3669H53.0332V11.6335H43.7999V38.3669Z" fill="#F2353F"/>
</svg>
