<svg width="32" height="32" fill="none" xmlns="http://www.w3.org/2000/svg"><path d="M10 21.8a1.5 1.5 0 11-3 0 1.5 1.5 0 013 0zM25 21.8a1.5 1.5 0 11-3 0 1.5 1.5 0 013 0z" fill="#F2353F"/><path fill-rule="evenodd" clip-rule="evenodd" d="M30 6v4.2h1l.4.2.3.3V14.3c0 .4-.3.7-.7.7h-1v11c0 .9-.4 1.6-1.2 2l-.4.3V31c0 .4-.3.7-.7.7H26a.7.7 0 01-.7-.7v-2.6H6.7V31c0 .4-.3.7-.7.7H4.3a.7.7 0 01-.7-.7v-2.7l-.4-.3A2.4 2.4 0 012 26V15H1a.7.7 0 01-.7-.7V11c0-.4.3-.7.6-.7H2V6C2 2.9 4.5.3 7.7.3h16.6C27.5.3 30 2.9 30 6zM3.4 27h25.2V16.7H3.4V27zm0-11.7h12V6.7h-12v8.6zm13.3 0h12V6.7h-12v8.6zM3.1 5.3H29L28 3.8a4.3 4.3 0 00-3.7-2.1H7.7c-1.6 0-3 .9-3.7 2.1L3 5.3z" fill="#F2353F"/></svg>