<svg width="56" height="56" viewBox="0 0 56 56" fill="none" xmlns="http://www.w3.org/2000/svg">
<path d="M17.5502 38.2087C17.5502 39.6861 16.3526 40.8837 14.8752 40.8837C13.3978 40.8837 12.2002 39.6861 12.2002 38.2087C12.2002 36.7313 13.3978 35.5337 14.8752 35.5337C16.3526 35.5337 17.5502 36.7313 17.5502 38.2087Z" fill="#F2353F"/>
<path d="M43.8002 38.2087C43.8002 39.6861 42.6026 40.8837 41.1252 40.8837C39.6478 40.8837 38.4502 39.6861 38.4502 38.2087C38.4502 36.7313 39.6478 35.5337 41.1252 35.5337C42.6026 35.5337 43.8002 36.7313 43.8002 38.2087Z" fill="#F2353F"/>
<path fill-rule="evenodd" clip-rule="evenodd" d="M52.562 10.5004V17.8061L54.1003 17.9531C54.3977 17.9815 54.6744 18.0488 54.8937 18.1695C55.0806 18.2725 55.2622 18.431 55.3979 18.7542C55.4676 18.9256 55.497 19.1153 55.4831 19.3093L55.4787 19.3702V25.0837C55.4787 25.7559 54.935 26.3004 54.262 26.3004H52.562V45.5004C52.562 47.0081 51.7346 48.3294 50.4794 49.0589L49.6337 49.5505V54.2504C49.6337 54.9244 49.0911 55.467 48.417 55.467H45.5004C44.8263 55.467 44.2837 54.9244 44.2837 54.2504V49.6337H11.717V54.2504C11.717 54.9244 11.1744 55.467 10.5004 55.467H7.58369C6.90966 55.467 6.36703 54.9244 6.36703 54.2504V49.5436L5.52745 49.0508C4.28232 48.3202 3.46202 47.0008 3.46202 45.5004V26.3004H1.75036C1.07743 26.3004 0.533691 25.7559 0.533691 25.0837V19.2504C0.533691 18.6123 1.02022 18.0863 1.65437 18.0358L1.65594 18.0357L1.69759 18.0333C1.73372 18.0313 1.78418 18.0287 1.841 18.026L3.46202 17.9506V10.5004C3.46202 5.00508 7.93341 0.533691 13.4287 0.533691H42.5954C48.0906 0.533691 52.562 5.00508 52.562 10.5004ZM5.89536 47.2004H50.117V43.4L50.1336 29.217H5.89536V47.2004ZM5.89536 26.7837H26.7954V11.717H5.89536V26.7837ZM29.2287 26.7837H50.1287V11.717H29.2287V26.7837ZM5.44679 9.28369H50.5773L49.0864 6.72726C47.7902 4.5047 45.3864 2.96703 42.5954 2.96703H13.4287C10.6377 2.96703 8.23386 4.5047 6.93768 6.72727L5.44679 9.28369Z" fill="#F2353F"/>
</svg>
