<svg width="56" height="56" viewBox="0 0 56 56" fill="none" xmlns="http://www.w3.org/2000/svg">
<path fill-rule="evenodd" clip-rule="evenodd" d="M28.4298 0.458265L55.1812 18.2069L55.1946 18.2154C55.44 18.3708 55.5877 18.6523 55.5825 18.92L55.5822 18.9345V36.9301L55.5825 36.9445C55.5853 37.0897 55.544 37.2537 55.4374 37.4136L55.4354 37.4167C55.3771 37.5046 55.2977 37.5825 55.1939 37.6487L55.1822 37.6561L28.4269 55.4112L28.4145 55.4198C28.292 55.5047 28.1402 55.5582 27.9564 55.5582C27.7851 55.5582 27.6307 55.5069 27.4995 55.4167L27.4893 55.4097L0.748393 37.6641C0.469453 37.4788 0.333436 37.2524 0.333436 36.9157V18.9345L0.333155 18.92C0.330239 18.7693 0.370456 18.6128 0.469083 18.4633C0.539174 18.3595 0.62335 18.2824 0.699362 18.2358L0.722421 18.2217L27.49 0.45745L27.5007 0.450055C27.7281 0.293382 28.1868 0.291479 28.4201 0.451614L28.4298 0.458265ZM41.2683 26.8808L53.2709 18.9168L28.7751 2.66728V18.4792L41.2683 26.8808ZM27.1347 18.4792V2.6665L2.64537 18.9199L14.6415 26.8808L27.1347 18.4792ZM13.1677 27.8775L1.9826 20.4519V35.4012L13.1677 27.8775ZM2.63465 36.9479L27.1347 53.2003V37.1491L14.6475 28.8641L2.63465 36.9479ZM16.1314 27.8646L27.953 35.7179L39.786 27.8646L27.953 19.9092L16.1314 27.8646ZM28.778 37.1461V53.2009L53.2742 36.9452L41.2685 28.8611L28.778 37.1461ZM42.7471 27.8775L53.9359 35.4005V20.4525L42.7471 27.8775Z" fill="#F2353F"/>
</svg>
