<svg width="56" height="56" viewBox="0 0 56 56" fill="none" xmlns="http://www.w3.org/2000/svg">
<path d="M12.1997 29.7002H26.2997V32.1335H12.1997V29.7002Z" fill="#F2353F"/>
<path d="M12.1997 41.3669H26.2997V43.8002H12.1997V41.3669Z" fill="#F2353F"/>
<path fill-rule="evenodd" clip-rule="evenodd" d="M51.3332 37.9665H37.9665V51.3332C37.9665 53.6114 36.1114 55.4666 33.8332 55.4666H4.66654C2.38834 55.4666 0.533203 53.6114 0.533203 51.3332V22.1665C0.533203 19.8883 2.38834 18.0332 4.66654 18.0332H18.0332V4.66654C18.0332 2.38834 19.8883 0.533203 22.1665 0.533203H51.3332C53.6114 0.533203 55.4665 2.38834 55.4665 4.66654V33.8332C55.4665 36.1114 53.6114 37.9665 51.3332 37.9665ZM2.96654 20.4665V53.0332H35.5394L35.5329 20.4665H2.96654ZM37.9665 35.5332H53.0332V2.96654H20.4665V18.0332H33.8332C36.1114 18.0332 37.9665 19.8883 37.9665 22.1665V35.5332Z" fill="#F2353F"/>
</svg>
