<svg width="164" height="20" fill="none" xmlns="http://www.w3.org/2000/svg"><path d="M112.7 20c1.3 0 2.3-1 2.3-2.3V9.3l4.2 5.6a2.3 2.3 0 103.7-2.8L114.5.9a2.3 2.3 0 00-4.1 1.4v15.4c0 1.3 1 2.3 2.3 2.3zM4.6 17.7V2.3a2.3 2.3 0 10-4.6 0v15.4a2.3 2.3 0 104.6 0zM34.6 19.6c1.1-.7 1.4-2.2.7-3.2l-3.5-5.2a2.3 2.3 0 10-3.9 2.6l3.5 5.2a2.3 2.3 0 003.2.6zM22 20c-1.2 0-2.2-1-2.2-2.3V2.3a2.3 2.3 0 114.6 0v15.4c0 1.3-1 2.3-2.3 2.3zM51.8 17.7c0-1.3-1-2.4-2.3-2.4a5.3 5.3 0 010-10.7 2.3 2.3 0 100-4.6 10 10 0 000 20c1.3 0 2.3-1 2.3-2.3zM161.4 20c-.6 0-1.2-.3-1.7-.8L145.7 4A2.3 2.3 0 01149 .8L163 16a2.3 2.3 0 01-1.7 3.9zM99.5 17.7c0-1.3-1-2.4-2.3-2.4a5.3 5.3 0 010-10.7 2.3 2.3 0 100-4.6 10 10 0 000 20c1.3 0 2.3-1 2.3-2.3zM141 17.7V2.3a2.3 2.3 0 00-4.7 0v15.4a2.3 2.3 0 004.7 0zM65 20c1.3 0 2.3-1 2.3-2.3V9.3l4.2 5.6a2.3 2.3 0 103.7-2.8L67 .9a2.3 2.3 0 00-4.2 1.4v15.4c0 1.3 1 2.3 2.3 2.3z" fill="#F2353F"/><path d="M129.4 20c-1.3 0-2.3-1-2.3-2.3V9.3l-4.2 5.6a2.3 2.3 0 11-3.7-2.8L127.6.9a2.3 2.3 0 014.2 1.4v15.4c0 1.3-1.1 2.3-2.4 2.3zM30.3 14.8A7.5 7.5 0 0028.9 0h-6.8a2.3 2.3 0 100 4.6h6.8a2.8 2.8 0 01.5 5.6 2.3 2.3 0 10.9 4.6zM149 19.2L163.3 4a2.3 2.3 0 10-3.5-3.1l-14 15.3a2.3 2.3 0 003.4 3.1zM107.2 10a10 10 0 00-10-10 2.3 2.3 0 100 4.6 5.3 5.3 0 010 10.7 2.3 2.3 0 100 4.7 10 10 0 0010-10zM59.5 10a10 10 0 00-10-10 2.3 2.3 0 100 4.6 5.3 5.3 0 010 10.7 2.3 2.3 0 100 4.7 10 10 0 0010-10zM16.6 7.5c0-4.1-3.3-7.5-7.5-7.5H2.3a2.3 2.3 0 100 4.6h6.8a2.8 2.8 0 010 5.7H2.3a2.3 2.3 0 100 4.6h6.8c4.2 0 7.5-3.3 7.5-7.4zM81.7 20c-1.3 0-2.3-1-2.3-2.3V9.3l-4.2 5.6a2.3 2.3 0 11-3.7-2.8L80 .9A2.3 2.3 0 0184 2.3v15.4c0 1.3-1 2.3-2.4 2.3z" fill="#5D626A"/><path d="M123 12l-2-2.4-1.8 2.5c-.3.4-.5.9-.5 1.4A2.3 2.3 0 10123 12zM31.8 11.2c-1-1.3-3-1.3-3.8 0-.6.7-.6 1.8-.1 2.6 1.2 2 4 .8 5.4-.3l-1.5-2.3zM2.3 4.6h2.3V2.3a2.3 2.3 0 10-2.3 2.3zM2.3 15h2.3v-4.7H2.3a2.3 2.3 0 100 4.6zM154.4 13.4l3.2-3.4-3.2-3.4-3.1 3.4 3.1 3.4zM49.5 4.6a2.3 2.3 0 100-4.6 2.3 2.3 0 000 4.6zM49.5 20a2.3 2.3 0 100-4.7 2.3 2.3 0 000 4.7zM97.2 4.6a2.3 2.3 0 100-4.6 2.3 2.3 0 000 4.6zM97.2 20a2.3 2.3 0 100-4.7 2.3 2.3 0 000 4.7zM22 4.6h2.4V2.3a2.3 2.3 0 10-2.3 2.3zM75.2 12l-1.8-2.4-1.9 2.5c-.3.4-.5.9-.5 1.4a2.3 2.3 0 104.2-1.4z" fill="#1F2C37"/></svg>