<svg width="55" height="47" viewBox="0 0 55 47" fill="none" xmlns="http://www.w3.org/2000/svg">
<path d="M45.0167 11.9177H32.1665V9.31769H45.0167V11.9177Z" fill="#F2353F"/>
<path fill-rule="evenodd" clip-rule="evenodd" d="M9.91113 44.8539V33.6H4.13333C1.85514 33.6 0 31.7449 0 29.4667V7.05C0 3.16472 3.16472 0 7.05 0H47.8833C51.7686 0 54.9333 3.16472 54.9333 7.05V29.4667C54.9333 31.7449 53.0782 33.6 50.8 33.6H45.0167V44.8539C45.0167 45.9283 44.1405 46.8044 43.0661 46.8044H11.8617C10.7873 46.8044 9.91113 45.9283 9.91113 44.8539ZM45.0167 20.9506V31.1667H52.5V7.05C52.5 4.50514 50.4333 2.43333 47.8833 2.43333H7.05C4.50403 2.43333 2.43333 4.50403 2.43333 7.05V31.1667H9.91113V20.9506C9.91113 19.8762 10.7873 19 11.8617 19H43.0661C44.1405 19 45.0167 19.8762 45.0167 20.9506ZM12.1617 21.2505V44.5539H42.7701L42.7658 21.2505H12.1617Z" fill="#F2353F"/>
<path d="M22.4665 33.4667L24.9665 36.8L29.9665 30.1333L36.4665 38.8H18.4665L22.4665 33.4667Z" fill="#F2353F"/>
</svg>
