<svg width="32" height="28" fill="none" xmlns="http://www.w3.org/2000/svg"><path d="M26 7.4h-7.3V6H26v1.4z" fill="#F2353F"/><path fill-rule="evenodd" clip-rule="evenodd" d="M6 26.3v-6.5H2.7c-1.3 0-2.4-1-2.4-2.3V4.7a4 4 0 014-4h23.4a4 4 0 014 4v12.8c0 1.3-1 2.3-2.4 2.3H26v6.5c0 .6-.5 1-1 1H7c-.5 0-1-.4-1-1zm20-13.7v5.8h4.3V4.7c0-1.5-1.2-2.7-2.6-2.7H4.3a2.6 2.6 0 00-2.6 2.7v13.7H6v-5.8c0-.6.5-1.1 1-1.1h18c.5 0 1 .5 1 1.1zm-18.7.2V26h17.4V12.8H7.3z" fill="#F2353F"/><path d="M13.1 19.8l1.5 1.9 2.8-3.9 3.7 5H11l2.2-3z" fill="#F2353F"/></svg>