<svg width="16" height="16" viewBox="0 0 16 16" fill="none" xmlns="http://www.w3.org/2000/svg">
<path d="M6.66667 13.3333C8.205 13.3333 9.61917 12.8042 10.7475 11.9267L14.4108 15.59L15.5892 14.4117L11.9258 10.7483C12.8042 9.61917 13.3333 8.205 13.3333 6.66667C13.3333 2.99083 10.3425 0 6.66667 0C2.99083 0 0 2.99083 0 6.66667C0 10.3425 2.99083 13.3333 6.66667 13.3333ZM6.66667 1.66667C9.42417 1.66667 11.6667 3.90917 11.6667 6.66667C11.6667 9.42417 9.42417 11.6667 6.66667 11.6667C3.90917 11.6667 1.66667 9.42417 1.66667 6.66667C1.66667 3.90917 3.90917 1.66667 6.66667 1.66667Z" fill="#1F2C37"/>
</svg>
