<svg width="60" height="54" viewBox="0 0 60 54" fill="none" xmlns="http://www.w3.org/2000/svg">
<path d="M36.8255 27.1304C38.6632 27.1304 40.1528 25.6407 40.1528 23.8031V20.6851H33.4983V23.8031C33.4983 25.6407 34.9879 27.1304 36.8255 27.1304Z" fill="#F2353F"/>
<path fill-rule="evenodd" clip-rule="evenodd" d="M18.9853 1.37317L18.7765 1.44069C14.7559 2.74148 6.86606 5.32663 3.03022 6.58347L2.82509 6.65068C1.62634 7.04443 0.833008 8.15568 0.833008 9.41568V20.254C0.833008 22.1498 2.61509 23.544 4.45551 23.0832L12.4997 21.0736V50.4273C12.4997 52.0373 13.8034 53.3439 15.4163 53.3439H44.583C46.1959 53.3439 47.4997 52.0373 47.4997 50.4273V21.0736L55.5438 23.0832C57.3843 23.544 59.1663 22.1528 59.1663 20.254V9.41568C59.1663 8.15568 58.373 7.04443 57.1713 6.65068C53.4207 5.42105 45.3164 2.76516 41.2228 1.4407L41.014 1.37318C39.6795 0.941806 38.8187 0.667667 38.7536 0.656932C38.751 0.656497 38.7497 0.656932 38.7497 0.656932C38.7497 1.51621 38.6259 2.34654 38.3951 3.13105L38.3874 3.15684C37.3119 6.77146 33.9639 9.40693 29.9997 9.40693C26.0355 9.40693 22.6874 6.77146 21.6119 3.15684L21.6043 3.13105C21.3735 2.34654 21.2497 1.51621 21.2497 0.656932C21.2497 0.656932 21.2483 0.656497 21.2457 0.656932C21.1807 0.667667 20.3199 0.9418 18.9853 1.37317ZM45.2599 5.38295C49.2219 6.67591 53.8259 8.18481 56.3925 9.02627C56.5535 9.07903 56.6663 9.22206 56.6663 9.41568V20.254C56.6663 20.5274 56.412 20.7234 56.1511 20.6581L44.9997 17.8722V50.4273C44.9997 50.6582 44.8136 50.8439 44.583 50.8439H15.4163C15.1858 50.8439 14.9997 50.6582 14.9997 50.4273V17.8722L3.84827 20.6581C3.58907 20.723 3.33301 20.5263 3.33301 20.254V9.41568C3.33301 9.22114 3.4472 9.07808 3.60525 9.02583L3.81138 8.95829C6.41491 8.10524 10.8813 6.64178 14.739 5.38297C16.4217 4.83389 17.9869 4.32428 19.2305 3.92145C20.6294 8.54286 24.9214 11.9069 29.9997 11.9069C35.078 11.9069 39.3699 8.54287 40.7688 3.92147C42.0123 4.32429 43.5774 4.83389 45.2599 5.38295Z" fill="#F2353F"/>
</svg>
