<svg aria-hidden="true" style="position: absolute; width: 0; height: 0; overflow: hidden;" version="1.1" xmlns="http://www.w3.org/2000/svg" xmlns:xlink="http://www.w3.org/1999/xlink">
<defs>
<symbol id="icon-img1" viewBox="0 0 62 32">
<path d="M0 0h62v32h-62z"></path>
</symbol>
<symbol id="icon-img2" viewBox="0 0 58 32">
<path fill="#656565" style="fill: var(--color1, #656565)" d="M2.335 27.459h-2.335v-1.427h6.314v1.427h-2.292v3.892h-1.73v-3.892zM12.8 26.032v5.319h-1.643v-3.070l-2.811 3.113h-1.427v-5.362h1.643v3.114l2.811-3.114h1.427zM15.611 31.395h-1.643v-5.362h1.643v1.989h2.595v-1.989h1.686v5.362h-1.6v-1.989h-2.595v1.989zM21.059 31.395v-5.362h1.6v1.427h1.73c0.389 0 0.778 0.043 1.168 0.173 0.712 0.257 1.212 0.926 1.212 1.713 0 0.021-0 0.042-0.001 0.063l0-0.003c0.001 0.018 0.001 0.040 0.001 0.062 0 0.858-0.581 1.581-1.372 1.795l-0.013 0.003-1.038 0.13h-3.287zM22.659 30.097h1.427c0.216 0 0.432 0 0.649-0.087 0.242-0.111 0.406-0.352 0.406-0.63 0-0.135-0.039-0.261-0.105-0.367l0.002 0.003c-0.087-0.13-0.216-0.216-0.346-0.216-0.216-0.087-0.432-0.087-0.605-0.087h-1.427v1.384zM29.146 31.395h-1.643v-5.362h1.643v2.032h0.432l1.989-2.032h2.032l-2.595 2.595 2.724 2.768h-2.162l-1.946-2.032h-0.432v2.032z"></path>
<path fill="#656565" style="fill: var(--color1, #656565)" d="M40.649 28.713c0 1.6-1.341 2.854-3.546 2.854-2.162 0-3.459-1.297-3.459-2.854 0-1.6 1.297-2.854 3.459-2.854 2.249 0 3.503 1.254 3.503 2.854zM38.919 28.713c0-0.865-0.735-1.514-1.816-1.514s-1.773 0.649-1.773 1.514 0.692 1.514 1.773 1.514c1.124 0 1.816-0.649 1.816-1.514zM49.297 28.713c0 1.514-1.254 2.335-3.286 2.378v0.476h-1.643v-0.432c-2.032-0.043-3.286-0.865-3.286-2.378 0-1.557 1.254-2.422 3.287-2.465v-0.519h1.643v0.519c2.032 0.043 3.286 0.908 3.286 2.465zM44.368 27.416c-1.124 0.043-1.643 0.562-1.643 1.297 0 0.692 0.519 1.168 1.643 1.211v-2.508zM47.611 28.713c0-0.735-0.476-1.254-1.6-1.297v2.508c1.124-0.043 1.6-0.519 1.6-1.211zM57.946 28.713c0 1.514-1.211 2.335-3.287 2.378v0.476h-1.643v-0.432c-2.032-0.043-3.243-0.865-3.243-2.378 0-1.557 1.211-2.422 3.243-2.465v-0.519h1.643v0.519c2.076 0.043 3.287 0.908 3.287 2.465zM53.016 27.416c-1.124 0.043-1.6 0.562-1.6 1.297 0 0.692 0.476 1.168 1.6 1.211v-2.508zM56.259 28.713c0-0.735-0.432-1.254-1.6-1.297v2.508c1.124-0.043 1.6-0.519 1.6-1.211z"></path>
<path fill="#656565" style="fill: var(--color1, #656565)" d="M24.13 14.443c0.259-0.259 0.519-0.346 0.519-0.951-0.432 0.259-1.686 0.216-2.205-0.476-0.13-0.216 0-0.303 0.13-0.173 0.389 0.432 1.038 0.259 1.297 0.13-0.043-0.173-0.13-0.303-0.259-0.432 0.087-0.086 0.346-0.216 0.432-0.432l-0.692-0.13c0.095-0.080 0.155-0.199 0.155-0.331 0-0.052-0.009-0.101-0.026-0.147l0.001 0.003c-0.562 0.173-1.211-0.086-1.384-0.259-0.13-0.216 0-0.432 0.13-0.259 0.303 0.259 1.6 0.605 2.119 0.086-0.173 0-0.346-0.13-0.432-0.303 0.432 0 0.822-0.303 0.865-0.649-0.346 0-0.649 0-0.908-0.13 0.217-0.047 0.385-0.215 0.432-0.429l0.001-0.004c-0.865 0-0.908-0.649-0.908-0.735 0.519 0.303 1.47 0.173 1.254-0.605-0.432 0-0.908-0.778 0.346-1.427 1.124-0.649 2.422-1.297 2.292-2.378-0.087-0.692-1.211-1.168-1.384-1.514-0.432 0.216-0.562 0.432-0.346 0.908 0 0-1.081 0.13-1.168-0.562 0.004-0.316 0.154-0.597 0.387-0.777l0.002-0.002c-0.13 0-0.951-0.216-1.168 0.432-0.432-0.303-0.865-0.303-1.168 0.043 0.519 0.259 0.822 1.297 1.6 1.557-0.562 0.303-1.47 0.173-2.032-0.778-0.519 0.778-0.778 1.557 0.303 2.335-1.989 0.908-1.989 2.638-3.719 3.459 0.173 0.476 0.562 0.476 1.038 0.432-0.778 0.951-0.13 1.989-1.297 2.378 0.087 0.432 0.303 0.735 0.735 0.605-0.087 0.173-0.173 0.173-0.389 0.432 0.649 0.389 1.427 0.086 1.6-1.211 0-0.259 0.346-0.086 0.259 0.13-0.735 1.514 1.124 2.681 0.432 3.762 0.605 0 1.038-0.043 1.297-0.259 0.13 0.216 0.173 0.432 0.173 0.692 0.223-0.036 0.397-0.21 0.432-0.429l0-0.003c0.216 0.605 0.951 1.254 2.162 1.254-0.605-0.908 0-1.859-0.951-2.897h0.043zM22.919 15.524l-0.259 0.432c-0.124-0.303-0.255-0.559-0.403-0.803l0.014 0.025c-0.173 0.432-0.519 0.432-0.865 0.432 0.13-0.995-1.168-2.032-0.605-3.2 0.052-0.070 0.082-0.159 0.082-0.254 0-0.175-0.104-0.325-0.253-0.393l-0.003-0.001c-0.865-0.432-0.476 1.384-1.297 1.427l0.216-0.649c-0.173 0-0.605 0.303-0.822-0.043 0.398-0.219 0.676-0.612 0.734-1.074l0.001-0.007c0-0.346 0.13-0.692 0.216-0.995l0.649-0.865c-0.087 0-1.038 0.173-1.297 0.086 1.73-1.038 1.297-2.335 3.892-3.503-0.692-0.519-1.384-0.865-0.865-1.859 0.692 0.865 2.032 0.562 2.724 0.173-0.692-0.13-1.6-0.778-1.816-1.47 0.259 0 0.605 0.259 0.778 0.432 0.13-0.303 0.13-0.605 0.432-0.649-0.389 0.865 0.432 1.341 1.211 1.341l0.649-0.043c-0.087-0.173-0.432-0.605-0.173-0.822l0.605 0.476c1.514 1.211-0.735 2.292-1.643 2.768-1.427 0.778-1.038 1.73-0.432 1.946 0 0.086-0.087 0.173-0.173 0.173-0.432 0.173-0.822-0.13-1.168-0.346 0 0.605 0 1.124 0.649 1.47l-0.432 0.173c0.346 0.259 0.432 0.432 0.951 0.476-0.259 0.086-0.476 0.13-0.735 0.13l0.216 0.519c-0.908 0.13-1.297-0.432-1.6-0.432-0.605 0.086-0.562 1.254 0.951 1.254l-0.13 0.259c0.173 0.086 0.346 0.173 0.562 0.173l-0.303 0.303 0.259 0.216c-0.649 0.086-0.822-0.562-1.211-0.259-0.605 0.519 0.735 1.514 2.032 1.384l-0.562 0.432c1.081 0.995 0.562 1.946 0.995 2.638-0.836-0.051-1.522-0.635-1.727-1.414l-0.003-0.013z"></path>
<path fill="#656565" style="fill: var(--color1, #656565)" d="M21.276 11.892c0.216 0.259 0.476 0.259 0.995 0.216-0.562-0.043-0.865-0.173-1.081-0.562l-0.043-0.605c0-0.692 0.216-1.427 0.562-2.032 0.038 0.695 0.569 1.255 1.247 1.34l0.007 0.001c-0.778-0.303-1.211-1.081-0.995-1.773l0.562-0.778 0.259-0.389c-0.087 0.389 0.346 0.778 0.649 0.865-0.173-0.216-0.519-0.692 0.303-1.557-0.259 0.087-0.432 0.216-0.692 0.389 1.47-1.557 2.681-1.6 3.243-2.422-0.822 0.562-2.941 0.865-3.892 0.605 0.562 0.346 1.816 0.303 2.119 0.216-1.038 1.038-3.287 2.076-3.676 2.984 0.35-0.42 0.824-0.726 1.366-0.861l0.018-0.004c-0.346 0.476-0.692 1.038-0.951 1.6-0.562 1.297-1.384 1.297-1.427 2.378 0.259-0.865 0.822-1.038 1.211-1.557-0.087 0.389-0.13 0.778-0.087 1.168 0 0.432 0.087 0.865 0.259 1.297-0.043 0.519 0 1.427 0.605 2.032-0.278-0.42-0.443-0.935-0.443-1.489 0-0.085 0.004-0.168 0.011-0.251l-0.001 0.011c0.432 0.951 1.816 2.205 2.465 3.027-0.649-1.081-2.249-2.335-2.595-3.805zM36.281 7.481c0.543 0.148 1.001 0.452 1.337 0.86l0.004 0.005c-0.389-0.865-2.595-1.946-3.632-2.941 0.303 0.087 1.557 0.087 2.076-0.259-0.951 0.259-3.027 0-3.849-0.562 0.562 0.778 1.73 0.865 3.2 2.422l-0.649-0.432c0.822 0.865 0.432 1.384 0.303 1.557 0.259-0.086 0.735-0.432 0.605-0.822l0.303 0.346 0.519 0.778c0.259 0.735-0.173 1.47-0.951 1.816 0.667-0.104 1.176-0.658 1.211-1.337l0-0.003c0.389 0.605 0.562 1.297 0.605 2.032l-0.087 0.605c-0.173 0.389-0.476 0.519-1.038 0.562 0.476 0 0.778 0 0.995-0.216-0.346 1.47-1.946 2.768-2.595 3.892 0.649-0.865 1.989-2.162 2.465-3.070 0 0.605-0.13 1.168-0.432 1.687 0.562-0.605 0.605-1.514 0.562-2.032 0.173-0.432 0.259-0.865 0.259-1.297 0-0.389 0-0.778-0.087-1.168 0.432 0.562 0.951 0.735 1.211 1.6 0-1.081-0.865-1.124-1.427-2.422-0.286-0.611-0.603-1.136-0.968-1.624l0.017 0.024z"></path>
<path fill="#656565" style="fill: var(--color1, #656565)" d="M38.876 9.946c0.432 0.086 0.865 0.086 0.995-0.432-1.73-0.778-1.73-2.508-3.676-3.459 1.081-0.778 0.778-1.557 0.259-2.292-0.519 0.951-1.47 1.081-2.032 0.735 0.822-0.259 1.124-1.297 1.6-1.557-0.303-0.303-0.692-0.346-1.124 0-0.259-0.692-1.081-0.476-1.168-0.476 0.213 0.183 0.346 0.453 0.346 0.754 0 0.009-0 0.017-0 0.025l0-0.001c-0.087 0.649-1.124 0.562-1.124 0.562 0.216-0.432 0.087-0.692-0.389-0.951-0.13 0.389-1.297 0.865-1.341 1.557-0.13 1.081 1.168 1.73 2.292 2.335 1.254 0.692 0.778 1.427 0.346 1.47-0.259 0.778 0.692 0.865 1.254 0.562 0 0.13-0.087 0.735-0.908 0.778 0.047 0.217 0.215 0.385 0.429 0.432l0.004 0.001c-0.303 0.086-0.605 0.173-0.865 0.13 0 0.346 0.346 0.605 0.822 0.649-0.13 0.173-0.259 0.259-0.432 0.346 0.476 0.432 1.816 0.13 2.076-0.13 0.13-0.13 0.303 0.043 0.13 0.259-0.13 0.173-0.822 0.432-1.341 0.259-0.016 0.043-0.025 0.093-0.025 0.144 0 0.133 0.060 0.251 0.154 0.331l0.001 0.001c-0.259 0-0.432 0.086-0.692 0.13 0.043 0.216 0.303 0.389 0.432 0.432-0.13 0.13-0.216 0.259-0.259 0.432 0.259 0.13 0.908 0.303 1.297-0.13 0.087-0.13 0.259 0 0.13 0.173-0.519 0.735-1.773 0.735-2.205 0.519 0 0.562 0.216 0.649 0.519 0.865-0.908 1.081-0.303 1.989-0.951 2.897 1.211 0 1.946-0.649 2.162-1.297-0 0.002-0 0.005-0 0.007 0 0.256 0.185 0.469 0.429 0.511l0.003 0c0-0.259 0.087-0.476 0.173-0.692 0.259 0.173 0.692 0.216 1.297 0.259-0.649-1.124 1.211-2.292 0.432-3.805-0.087-0.216 0.216-0.389 0.259-0.13 0.173 1.297 0.951 1.6 1.6 1.211-0.216-0.216-0.303-0.216-0.432-0.432 0.432 0.13 0.692-0.173 0.822-0.605-1.211-0.432-0.562-1.427-1.297-2.378zM38.962 12.541c0 0.216 0.13 0.432 0.259 0.692-0.865-0.086-0.476-1.903-1.341-1.47-0.17 0.061-0.289 0.221-0.289 0.408 0 0.090 0.027 0.173 0.074 0.242l-0.001-0.002c0.562 1.168-0.692 2.162-0.649 3.243-0.303 0-0.649 0-0.865-0.432-0.12 0.216-0.236 0.473-0.333 0.739l-0.012 0.039-0.259-0.432c-0.208 0.792-0.894 1.376-1.724 1.427l-0.005 0c0.432-0.692-0.087-1.6 0.951-2.595l-0.519-0.432c1.297 0.13 2.638-0.908 2.032-1.384-0.432-0.346-0.562 0.346-1.211 0.216l0.259-0.216-0.303-0.259c0.212-0.042 0.4-0.117 0.57-0.221l-0.008 0.004-0.13-0.259c1.514 0 1.557-1.168 0.908-1.211-0.259 0-0.649 0.519-1.6 0.432 0.13-0.173 0.216-0.346 0.259-0.562-0.259 0-0.476 0-0.735-0.13 0.432-0.043 0.562-0.216 0.951-0.476l-0.432-0.173c0.649-0.303 0.605-0.865 0.605-1.47-0.303 0.216-0.692 0.519-1.124 0.346-0.087 0-0.173-0.043-0.173-0.173 0.605-0.216 0.995-1.168-0.432-1.946-0.951-0.476-3.2-1.557-1.687-2.724l0.649-0.476c0.216 0.173-0.087 0.605-0.173 0.778l0.605 0.043c0.822 0 1.643-0.432 1.211-1.297 0.303 0 0.346 0.303 0.432 0.562 0.216-0.13 0.562-0.432 0.822-0.346-0.216 0.692-1.124 1.297-1.859 1.427 0.735 0.432 2.076 0.692 2.768-0.13 0.476 0.951-0.216 1.297-0.865 1.816 2.551 1.168 2.162 2.465 3.849 3.503-0.216 0.086-1.211-0.086-1.297-0.13l0.649 0.908c0.13 0.346 0.216 0.649 0.259 0.995 0.059 0.469 0.337 0.862 0.728 1.077l0.007 0.004c-0.216 0.389-0.649 0.086-0.865 0.043zM26.811 15.395l0.346-0.303v-0.13c-0.087-0.086-0.043-0.086 0-0.13l0.173-0.13c0.019-0.008 0.041-0.013 0.065-0.013s0.046 0.005 0.066 0.013l-0.001-0 0.562 0.13h-0.562c-0.014-0.003-0.030-0.005-0.047-0.005-0.106 0-0.194 0.076-0.213 0.177l-0 0.001v0.086l-0.173 0.303c-0.035 0.053-0.056 0.119-0.056 0.189 0 0.095 0.038 0.181 0.1 0.243l0.13 0.13-0.216 0.432h0.173l0.13-0.303c0.13-0.13 0.259-0.259 0.303-0.432-0.087-0.043-0.13-0.086-0.087-0.173l0.087-0.13c0-0.043 0-0.086 0.087-0.086l0.605 0.173c0.023 0.009 0.049 0.014 0.077 0.014 0.076 0 0.144-0.040 0.182-0.1l0.001-0.001c0.087-0.13 0.13-0.13 0.303-0.086h0.303c0.346 0.086 0.692 0 0.995-0.173l0.216 0.346v0.13l-0.346 0.865h0.519l0.303-0.778 0.13-0.173-0.259 0.951h0.519l0.173-0.865c0-0.216 0-0.303-0.087-0.389-0.216-0.173-0.216-0.562-0.303-0.778h0.13c0.13 0 0.216 0.259 0.346 0.432 0.259 0.432 0.605 0.822 1.038 0.216l-0.13-0.173-0.13-0.13-0.519-0.562c-0.142-0.146-0.339-0.236-0.558-0.236-0.145 0-0.28 0.040-0.396 0.108l0.004-0.002c-0.432-0.216-0.865 0-0.995 0h-0.692c-0.002 0-0.005 0-0.007 0-0.056 0-0.104-0.036-0.122-0.086l-0-0.001 0.13-0.043c-0.13-0.562-0.432-0.995-0.995-1.038 0 0 0-0.173-0.13-0.216l-0.173 0.173-0.13 0.043-0.692-0.259 0.519 0.562-0.346 0.432c-0.035 0.024-0.058 0.063-0.058 0.108s0.023 0.085 0.058 0.108l0 0 0.087 0.13c0.087 0.086 0.13 0.086 0.216 0h0.13c0-0.086 0.216 0 0.259-0.043l-0.043 0.432-0.476-0.086c-0.019-0.005-0.040-0.008-0.062-0.008-0.058 0-0.112 0.019-0.155 0.051l0.001-0.001-0.432 0.303c-0.078 0.064-0.128 0.16-0.128 0.268 0 0.060 0.015 0.117 0.042 0.166l-0.001-0.002 0.173 0.389zM30.746 15.481l-0.303 0.778h-0.216l0.303-0.778c0.043-0.086 0-0.13-0.087-0.216l0.346 0.13v0.086zM27.632 13.751l-0.087 0.043c-0.087 0-0.087 0.043-0.173 0v-0.043c-0.018-0.016-0.029-0.039-0.029-0.065s0.011-0.049 0.029-0.065l0-0 0.389-0.476-0.346-0.303 0.432 0.173 0.173-0.216c0.087 0 0.043 0.173 0.043 0.173 0.446 0.085 0.779 0.471 0.779 0.936 0 0.006-0 0.011-0 0.017v-0.001c0.043 0.086 0.13 0.173 0.259 0.173l0.822 0.043c0.13 0 0.432-0.259 0.865 0l0.346-0.13c0.369 0.013 0.688 0.216 0.862 0.514l0.003 0.005 0.389 0.476c-0.087 0.13-0.173 0.13-0.259 0.13-0.099-0.067-0.166-0.176-0.173-0.302l-0-0.001c-0.070-0.143-0.173-0.26-0.3-0.344l-0.003-0.002c0.087 0.13 0.13 0.259 0.13 0.432-0.303-0.346-0.346-0.735-0.605-0.778-0.009-0.001-0.018-0.001-0.029-0.001-0.121 0-0.225 0.070-0.273 0.172l-0.001 0.002c0.13 0.216 0.13 0.562 0.216 0.735l0.13 0.216c0.13 0.043 0.043 0.173 0.043 0.259l-0.13 0.735h-0.173l0.13-0.735c0-0.216-0.605-0.216-0.908-0.649-0.303 0.346-1.038 0.259-1.384 0.216-0.032-0.015-0.069-0.024-0.109-0.024-0.105 0-0.195 0.062-0.236 0.152l-0.001 0.002c0 0.043-0.13 0-0.173 0l-0.605-0.086c-0.023-0.021-0.053-0.033-0.087-0.033s-0.064 0.013-0.087 0.033l0-0v0.086l-0.13 0.216c-0.020 0.023-0.033 0.053-0.033 0.086s0.013 0.064 0.033 0.087l-0-0 0.087 0.043c0 0.086-0.087 0.173-0.173 0.216l-0.13-0.13c-0.030-0.042-0.049-0.095-0.049-0.151s0.018-0.109 0.049-0.152l-0.001 0.001 0.216-0.432c0.030-0.027 0.071-0.044 0.115-0.044 0.005 0 0.010 0 0.015 0.001l-0.001-0h0.735l-0.216-0.389c-0.173-0.259 0.13-0.778 0.087-0.995 0 0.303-0.432 0.173-0.476 0.173zM26.811 14.703l0.346-0.303c0.038-0.034 0.089-0.055 0.145-0.055 0.026 0 0.050 0.004 0.073 0.013l-0.002-0 0.476 0.043 0.13 0.259-0.562-0.13c-0.015-0.005-0.032-0.008-0.051-0.008-0.048 0-0.091 0.019-0.122 0.051v0l-0.216 0.216c-0.029 0.024-0.047 0.060-0.047 0.1 0 0.011 0.001 0.021 0.004 0.031l-0-0.001 0.043 0.086-0.173 0.13-0.087-0.13c-0.043-0.13-0.043-0.259 0.043-0.346zM28.368 5.059l0.519 0.303v-0.216l-0.735-0.303s0 0.087 0.216 0.259zM28.887 4.8v-0.216l-0.865-0.303 0.346 0.259 0.519 0.259zM28.887 4.324v-0.259l-0.908-0.346 0.389 0.303 0.519 0.259z"></path>
<path fill="#656565" style="fill: var(--color1, #656565)" d="M31.568 7.395h0.951c-0.067-0.158-0.22-0.266-0.399-0.266-0.027 0-0.053 0.002-0.079 0.007l0.003-0c-0.020-0.003-0.043-0.004-0.067-0.004-0.193 0-0.361 0.105-0.451 0.261l-0.001 0.003zM30.53 3.719l-0.951 0.346v0.216l0.562-0.259 0.432-0.303zM30.357 4.843l-0.778 0.259v0.259l0.562-0.303c0.216-0.13 0.216-0.216 0.216-0.216zM30.443 4.281l-0.865 0.303v0.216l0.562-0.259 0.346-0.259zM26.465 7.135c-0.011-0.001-0.023-0.001-0.035-0.001-0.177 0-0.329 0.106-0.396 0.258l-0.001 0.003h0.908c-0.101-0.157-0.276-0.259-0.474-0.259-0.001 0-0.001 0-0.002 0h0z"></path>
<path fill="#656565" style="fill: var(--color1, #656565)" d="M31.135 3.114c0-0.562-0.865-1.038-1.903-1.038-0.995 0-1.903 0.476-1.903 1.038v0.13l0.432 2.292-1.903 1.081c-0.255 0.178-0.432 0.454-0.475 0.773l-0.001 0.006h0.346c0.064-0.371 0.383-0.649 0.767-0.649 0.004 0 0.008 0 0.011 0h-0.001c0.432 0 0.692 0.259 0.951 0.649l0.173 0.259h-2.768c0.216 0.432 0.346 0.865 0.432 1.297v5.795c0 1.514 1.124 2.205 2.335 2.205 0.951 0 1.081 0 1.643 0.476 0.519-0.519 0.649-0.432 1.6-0.432 1.254 0 2.378-0.735 2.378-2.249v-5.795c0.047-0.485 0.202-0.926 0.44-1.31l-0.007 0.013h-2.811l0.13-0.259c0.259-0.389 0.519-0.649 0.995-0.649 0.003-0 0.007-0 0.011-0 0.384 0 0.703 0.278 0.767 0.644l0.001 0.005h0.346c-0.044-0.324-0.22-0.6-0.472-0.776l-0.004-0.002-1.946-1.081 0.389-2.292v-0.13zM27.719 3.373l1.427 0.432v2.249l-1.038-0.562-0.389-2.162zM28.065 8.043c0.216 0.259 0.519 0.432 0.865 0.519 0 0.173 0.13 0.303 0.216 0.432-0.015 0.054-0.024 0.117-0.024 0.181 0 0.345 0.252 0.631 0.582 0.683l0.004 0.001c0.033 0.198 0.165 0.358 0.342 0.431l0.004 0.001-0.259 0.303c-0.079 0.11-0.207 0.181-0.352 0.181-0.029 0-0.057-0.003-0.084-0.008l0.003 0-1.297-0.173c0.087-0.13-0.087-0.303-0.519-0.216l0.519-1.47-0.303-0.692-0.605 0.519v1.514l-0.303-0.086c-0.303-0.173-0.432 0.432-0.087 0.432h0.13c-0.011 0.018-0.017 0.040-0.017 0.064 0 0.046 0.024 0.086 0.059 0.109l0 0c-0.048 0-0.087 0.039-0.087 0.086s0.039 0.086 0.087 0.086v0c-0.020 0.023-0.033 0.053-0.033 0.086s0.013 0.064 0.033 0.087l-0-0c-0.045 0.047-0.072 0.11-0.072 0.179 0 0.123 0.085 0.226 0.2 0.253l0.002 0c0.173 0.043 0.303-0.13 0.346-0.259l2.032 0.605c0.079 0.034 0.17 0.053 0.267 0.053 0.203 0 0.385-0.087 0.511-0.226l0-0.001 0.519-0.432c-0.015 0.048-0.023 0.103-0.023 0.161 0 0.208 0.113 0.389 0.28 0.486l0.003 0.001v0.432h-5.362v-3.416c0-0.303-0.087-0.605-0.173-0.908h2.595zM30.27 9.341c-0.046 0.090-0.073 0.196-0.073 0.309 0 0.143 0.043 0.276 0.117 0.386l-0.002-0.002-0.087 0.086c-0.389-0.043-0.519-0.649-0.519-0.649v0.173c-0.227-0.058-0.393-0.262-0.393-0.503 0-0.021 0.001-0.041 0.004-0.061l-0 0.002 0.303 0.086v-0.173c-0.212-0.057-0.376-0.22-0.431-0.428l-0.001-0.004h0.519c0.127 0.149 0.31 0.247 0.517 0.259l0.002 0c-0.043 0.173 0 0.346 0.043 0.519zM30.832 10.854l-0.087 0.173-0.216 0.173c0.001-0.014 0.001-0.031 0.001-0.047 0-0.307-0.134-0.584-0.346-0.774l-0.001-0.001 0.216-0.216h0.043c-0.019 0.052-0.031 0.113-0.031 0.176 0 0.267 0.202 0.487 0.461 0.516l0.002 0zM29.838 10.768l0.173-0.173c0.217 0.176 0.354 0.442 0.354 0.741 0 0.044-0.003 0.087-0.009 0.129l0.001-0.005-0.216 0.13-0.13 0.086c0.019-0.075 0.030-0.16 0.030-0.248 0-0.232-0.076-0.447-0.205-0.619l0.002 0.003zM29.405 10.897h0.216c0.096 0.146 0.152 0.325 0.152 0.517 0 0.125-0.024 0.245-0.068 0.355l0.002-0.006h-0.259l-0.087-0.043c0.13-0.259 0.173-0.562 0.087-0.822zM28.973 10.854h0.259c0.043 0.303 0 0.562-0.13 0.778l-0.259-0.086c0.13-0.216 0.173-0.432 0.173-0.692zM28.454 10.768l0.303 0.043c0 0.259 0 0.476-0.13 0.692l-0.303-0.086c0.13-0.173 0.173-0.432 0.13-0.649zM27.243 10.681c-0.013 0.005-0.028 0.008-0.043 0.008-0.072 0-0.13-0.058-0.13-0.13 0-0.003 0-0.005 0-0.008l-0 0c0.063-0.033 0.137-0.052 0.216-0.052s0.153 0.019 0.219 0.053l-0.003-0.001 0.259 0.303-0.087 0.346c-0.142-0.027-0.248-0.15-0.248-0.298 0-0.049 0.012-0.095 0.032-0.136l-0.001 0.002c-0.029-0.058-0.088-0.097-0.156-0.097-0.022 0-0.043 0.004-0.062 0.011l0.001-0zM27.027 11.243l0.216 0.043c0 0.072-0.058 0.13-0.13 0.13v0c-0.013 0.006-0.027 0.010-0.043 0.010-0.053 0-0.097-0.043-0.097-0.097 0-0.038 0.021-0.070 0.053-0.086l0.001-0zM26.768 10.465c-0.048 0-0.087-0.039-0.087-0.086s0.039-0.086 0.087-0.086v0c0.13 0 0.216 0.13 0.346 0.173h-0.346zM27.027 11.027c0.087 0.086 0.259 0.043 0.259 0.043-0.087 0.13-0.303 0.086-0.259 0zM27.287 10.897c-0.13 0.086-0.259 0-0.216-0.086h0.216v0.086zM27.459 9.384l-0.216 0.908 0.043-1.47 0.432-0.303 0.173 0.432-0.476 1.427 0.13-0.951c0-0.086-0.043-0.086-0.087 0zM27.503 10.508h0.389s0 0.13-0.087 0.13l-0.303-0.13zM27.935 10.724h0.303c0 0.259 0 0.432-0.13 0.605l-0.259-0.086c0.087-0.173 0.087-0.346 0.13-0.562v0.043zM32.865 14.746c0 0.012 0.001 0.026 0.001 0.040 0 0.63-0.345 1.179-0.857 1.469l-0.008 0.004 0.173-0.389h-0.173l-0.259 0.519c-0.259 0.087-0.562 0.173-0.865 0.173-0.995 0-1.254 0-1.6 0.389-0.389-0.346-0.649-0.432-1.643-0.432-0.259 0-0.562 0-0.865-0.13l0.259-0.519h-0.173l-0.259 0.432-0.13-0.043 0.173-0.389h-0.173l-0.13 0.303c-0.422-0.31-0.693-0.805-0.693-1.363 0-0.023 0-0.045 0.001-0.067l-0 0.003v-2.162h7.222v2.162zM33.081 8.043c-0.12 0.266-0.198 0.576-0.216 0.901l-0 0.007v3.373h-0.432l-0.303-0.735c-0.016 0.065-0.025 0.139-0.025 0.216 0 0.193 0.058 0.373 0.157 0.523l-0.002-0.004h-0.519l-0.216-0.778c-0.173 0.173-0.043 0.649 0 0.778h-0.303l0.043-0.476c-0.173-0.043-0.346-0.13-0.346-0.346 0.048 0.054 0.117 0.087 0.194 0.087 0.008 0 0.015-0 0.023-0.001l-0.001 0 0.173-0.13c-0.476 0-0.519-0.476-0.13-0.735-0.389 0-0.649-0.216-0.519-0.605-0.158-0.101-0.262-0.276-0.262-0.475 0-0.113 0.033-0.217 0.090-0.305l-0.001 0.002c-0.089-0.115-0.142-0.261-0.142-0.42 0-0.098 0.020-0.192 0.057-0.276l-0.002 0.004c-0.173 0-0.346-0.043-0.519-0.173 0.229-0.093 0.419-0.241 0.56-0.429l0.002-0.003h2.595zM31.568 6.4c-0.389 0.087-0.692 0.562-0.995 0.995h-0.303v0.087c0 0.346-0.346 0.778-1.038 0.778-0.259 0-0.519-0.086-0.735-0.216-0.164-0.139-0.276-0.335-0.302-0.558l-0-0.004v-0.043h-0.303c-0.303-0.432-0.605-0.951-0.995-0.995l1.038-0.649 1.297 0.735 1.297-0.735 1.081 0.605zM30.357 5.492l-0.951 0.562v-2.205l1.427-0.476-0.389 2.119zM29.232 3.589l-1.557-0.562c0.13-0.303 0.735-0.562 1.514-0.562 0.865 0 1.427 0.259 1.557 0.562l-1.514 0.605z"></path>
<path fill="#656565" style="fill: var(--color1, #656565)" d="M32.692 10.205v-0.173c-0.519 0-0.649-0.605-0.649-0.605-0.017 0.053-0.026 0.114-0.026 0.177 0 0.334 0.271 0.605 0.605 0.605 0.025 0 0.049-0.001 0.073-0.004l-0.003 0zM32 11.243v-0.13c-0.432 0.13-0.692-0.605-0.692-0.605-0.020 0.058-0.032 0.125-0.032 0.195 0 0.334 0.271 0.605 0.605 0.605 0.058 0 0.113-0.008 0.166-0.023l-0.004 0.001zM32.346 10.638c-0.519 0.086-0.735-0.562-0.735-0.562-0.010 0.040-0.015 0.086-0.015 0.134 0 0.309 0.232 0.564 0.531 0.601l0.003 0c-0.009 0.033-0.014 0.071-0.014 0.11 0 0.239 0.194 0.432 0.432 0.432 0.085 0 0.165-0.025 0.232-0.068l-0.002 0.001v-0.13c-0.046 0.024-0.101 0.039-0.159 0.039-0.191 0-0.346-0.155-0.346-0.346 0-0.080 0.027-0.154 0.073-0.212l-0.001 0.001zM32 8.865v-0.216c-0.692-0.13-0.605-0.605-0.605-0.605-0.016 0.052-0.025 0.112-0.025 0.174 0 0.334 0.271 0.605 0.605 0.605 0.009 0 0.018-0 0.027-0.001l-0.001 0zM27.589 15.914l-0.259 0.476h0.216l0.216-0.476h-0.173zM27.978 15.914l-0.259 0.476h0.173l0.259-0.476h-0.173zM29.492 15.914l-0.259 0.476h0.173l0.259-0.476h-0.173zM29.838 15.914l-0.216 0.476h0.173l0.259-0.476h-0.216zM29.103 15.914l-0.259 0.476h0.216l0.216-0.476h-0.173zM31.308 16.432h0.173l0.259-0.519h-0.173l-0.259 0.476zM28.368 15.914l-0.259 0.476h0.173l0.259-0.476h-0.173zM28.713 15.914l-0.259 0.476h0.216l0.259-0.476h-0.216zM27.892 13.189c-0.010-0.005-0.023-0.008-0.036-0.008-0.048 0-0.087 0.039-0.087 0.086s0.039 0.086 0.087 0.086c0.048 0 0.087-0.039 0.087-0.086 0-0.013-0.003-0.025-0.008-0.036l0 0.001c-0.009-0.019-0.024-0.034-0.043-0.043l-0.001-0zM29.276 1.73c0.605 0 1.211 0.173 1.73 0.519 0.084-0.424 0.234-0.801 0.441-1.14l-0.009 0.015-0.605 0.043-0.346-0.692-0.605 0.346-0.605-0.605-0.649 0.605-0.605-0.346-0.346 0.692-0.605-0.043c0.198 0.323 0.348 0.7 0.429 1.102l0.004 0.022c0.457-0.325 1.027-0.52 1.643-0.52 0.031 0 0.061 0 0.091 0.001l-0.004-0zM27.805 1.427l0.303-0.562 0.562 0.259 0.605-0.562 0.562 0.562 0.562-0.303 0.259 0.649 0.389-0.043-0.259 0.519c-0.456-0.254-1-0.404-1.578-0.404s-1.123 0.15-1.595 0.412l0.017-0.009-0.259-0.519h0.389z"></path>
<path fill="#656565" style="fill: var(--color1, #656565)" d="M29.881 0.476c0.002 0 0.004 0 0.005 0 0.080 0 0.148-0.055 0.167-0.129l0-0.001-0.087-0.346s-0.216 0.216-0.216 0.303c-0 0.002-0 0.004-0 0.005 0 0.080 0.055 0.148 0.129 0.167l0.001 0zM30.919 0.865c0.018 0.007 0.039 0.011 0.061 0.011 0.068 0 0.127-0.039 0.155-0.096l0-0.001v-0.346s-0.259 0.13-0.303 0.216c-0.007 0.018-0.011 0.039-0.011 0.061 0 0.068 0.039 0.127 0.096 0.155l0.001 0zM28.627 0.476c0.075-0.020 0.13-0.087 0.13-0.168 0-0.002-0-0.004-0-0.006v0c0-0.086-0.216-0.303-0.216-0.303l-0.087 0.346c0.020 0.075 0.087 0.13 0.168 0.13 0.002 0 0.004-0 0.006-0h-0zM27.589 0.865c0.058-0.029 0.097-0.088 0.097-0.156 0-0.022-0.004-0.043-0.011-0.062l0 0.001c-0.043-0.087-0.346-0.216-0.346-0.216v0.346c0.024 0.068 0.088 0.116 0.163 0.116 0.036 0 0.069-0.011 0.097-0.030l-0.001 0zM39.87 6.487c0.199-0.098 0.353-0.266 0.43-0.47l0.002-0.006c-0.519-0.087-1.989-0.692-3.2-0.216 0.432-0.432 0.865-0.432 0.865-1.081 0.078 0.075 0.183 0.121 0.3 0.121 0.173 0 0.322-0.101 0.391-0.248l0.001-0.003c-0.087-0.346-0.432-0.043-0.432-0.173-0.087-0.087 0.346 0.043 0.432-0.432-0.303-0.13-0.432 0.173-0.476 0.087-0.087-0.043 0.216-0.173 0-0.562-0.389 0.216-0.173 0.476-0.259 0.519-0.087 0 0-0.259-0.432-0.259 0 0.432 0.389 0.432 0.303 0.519-0.043 0.087-0.173-0.259-0.476-0.087-0.003 0.019-0.005 0.042-0.005 0.065 0 0.239 0.194 0.432 0.432 0.432 0.048 0 0.094-0.008 0.138-0.022l-0.003 0.001c0 0.692-0.649 0.562-1.124 1.297 0.995 0.519 1.427 1.427 2.032 2.032 0.216-0.225 0.403-0.481 0.553-0.76l0.009-0.018c0.142 0.148 0.341 0.24 0.562 0.24s0.42-0.092 0.562-0.24l0-0c-0.216-0.259-0.259-0.432-0.605-0.735zM38.919 6.616c0.063 0.136 0.099 0.295 0.099 0.462 0 0.231-0.069 0.445-0.188 0.623l0.003-0.004c-0.303-0.649-0.735-1.211-1.297-1.643-0.087-0.043 0.043-0.173 0.303-0.173 0.778-0.173 1.643 0.173 2.076 0.259-0.173 0.13-0.346 0.216-0.562 0.259 0.259 0.173 0.476 0.432 0.692 0.692-0.303 0.087-0.476-0.087-1.124-0.476zM32.605 17.903v-0.822c-0.778 0.346-1.643 0.562-2.508 0.649l-0.043 0.259 0.346 0.043c-0.778 0.13-1.557 0.13-2.335 0h0.346v-0.303c-0.865-0.087-1.73-0.303-2.551-0.649v0.865l-0.865 0.303c0.735 0.389 1.514 0.649 2.292 0.865l-0.087 0.346c1.341 0.389 2.811 0.389 4.151 0l-0.087-0.346c0.778-0.216 1.557-0.476 2.249-0.865l-0.865-0.346zM25.47 18.292l0.605-0.259v-0.649c0.519 0.173 1.038 0.346 1.557 0.432l-0.303 1.081c-0.649-0.13-1.254-0.346-1.859-0.605zM29.276 19.546c-0.649 0-1.297-0.087-1.859-0.259l0.346-1.124c0.995 0.173 1.989 0.173 3.027 0l0.303 1.124c-0.605 0.173-1.211 0.259-1.859 0.259zM31.178 18.897l-0.346-1.081c0.562-0.087 1.081-0.259 1.6-0.432v0.649l0.562 0.259c-0.562 0.259-1.168 0.432-1.816 0.605zM19.157 7.178c0.159 0.297 0.346 0.553 0.563 0.78l-0.001-0.001c0.605-0.605 1.038-1.47 2.032-1.989-0.476-0.735-1.081-0.605-1.124-1.297 0.039 0.013 0.084 0.020 0.13 0.020 0.239 0 0.432-0.194 0.432-0.432 0-0.007-0-0.014-0-0.021l0 0.001c-0.303-0.216-0.432 0.13-0.476 0-0.087-0.043 0.346-0.043 0.303-0.476-0.432 0-0.346 0.259-0.432 0.259-0.087-0.043 0.13-0.303-0.259-0.519-0.216 0.432 0.087 0.519 0 0.562 0 0.043-0.173-0.216-0.519-0.087 0.087 0.432 0.562 0.259 0.519 0.432-0.087 0.173-0.389-0.216-0.519 0.173 0.070 0.149 0.22 0.25 0.392 0.25 0.116 0 0.222-0.046 0.3-0.121l-0 0c0.043 0.605 0.432 0.649 0.908 1.081-1.211-0.519-2.681 0.13-3.243 0.216 0.087 0.173 0.259 0.346 0.476 0.432-0.346 0.346-0.346 0.519-0.562 0.735 0 0 0.432 0.519 1.124 0zM18.508 7.092l0.692-0.735c-0.216 0-0.432-0.087-0.562-0.216 0.432-0.13 1.297-0.432 2.076-0.303 0.216 0.043 0.389 0.173 0.303 0.216-0.562 0.432-0.995 0.995-1.297 1.6-0.11-0.17-0.175-0.378-0.175-0.602 0-0.157 0.032-0.307 0.091-0.443l-0.003 0.007c-0.649 0.389-0.865 0.562-1.124 0.476zM28.713 6.746v0.346c0.079-0.084 0.191-0.136 0.315-0.136 0.026 0 0.052 0.002 0.077 0.007l-0.003-0v0.562c0 0.13-0.043 0.259-0.13 0.346h0.562c-0.087-0.087-0.13-0.216-0.13-0.346v-0.605c0.022-0.004 0.048-0.006 0.074-0.006 0.124 0 0.236 0.052 0.315 0.136l0 0v-0.346h-1.081z"></path>
<path fill="#656565" style="fill: var(--color1, #656565)" d="M24.13 14.443c0.259-0.259 0.519-0.346 0.519-0.908-0.432 0.216-1.686 0.216-2.205-0.519-0.13-0.216 0-0.303 0.13-0.13 0.389 0.432 1.038 0.216 1.297 0.086-0.043-0.13-0.13-0.303-0.259-0.432 0.087-0.043 0.346-0.173 0.432-0.432l-0.692-0.13c0.095-0.080 0.155-0.199 0.155-0.331 0-0.052-0.009-0.101-0.026-0.147l0.001 0.003c-0.562 0.173-1.211-0.086-1.384-0.259-0.13-0.216 0-0.432 0.13-0.259 0.303 0.259 1.6 0.605 2.119 0.13-0.173-0.086-0.346-0.173-0.432-0.346 0.432 0 0.822-0.303 0.865-0.649-0.346 0-0.649 0-0.908-0.13 0.217-0.047 0.385-0.215 0.432-0.429l0.001-0.004c-0.865 0-0.908-0.649-0.908-0.735 0.519 0.303 1.47 0.173 1.254-0.605-0.432 0-0.908-0.778 0.303-1.427 1.168-0.649 2.465-1.297 2.335-2.378-0.087-0.692-1.211-1.168-1.384-1.514-0.432 0.216-0.562 0.476-0.346 0.908 0 0-1.081 0.13-1.168-0.562 0.004-0.316 0.154-0.597 0.387-0.777l0.002-0.002c-0.13 0-0.951-0.216-1.168 0.432-0.432-0.303-0.865-0.303-1.124 0.043 0.432 0.259 0.778 1.297 1.557 1.557-0.562 0.303-1.47 0.173-2.032-0.778-0.519 0.778-0.778 1.557 0.303 2.335-1.989 0.908-1.989 2.638-3.719 3.459 0.173 0.476 0.562 0.476 1.038 0.432-0.778 0.951-0.13 1.989-1.297 2.378 0.087 0.432 0.303 0.735 0.778 0.605l-0.432 0.432c0.649 0.389 1.427 0.086 1.6-1.211 0-0.259 0.346-0.086 0.259 0.13-0.735 1.514 1.124 2.681 0.432 3.762 0.605 0 1.038-0.043 1.297-0.259 0.087 0.216 0.173 0.432 0.13 0.692 0.241-0.017 0.435-0.197 0.475-0.429l0-0.003c0.216 0.605 0.951 1.254 2.162 1.254-0.605-0.908 0-1.816-0.908-2.854zM22.919 15.568l-0.216 0.432-0.389-0.778c-0.216 0.432-0.519 0.432-0.865 0.432 0.087-1.038-1.211-2.076-0.649-3.243 0.040-0.068 0.064-0.15 0.064-0.237 0-0.175-0.094-0.327-0.234-0.41l-0.002-0.001c-0.865-0.432-0.476 1.384-1.297 1.427l0.216-0.649c-0.173 0-0.605 0.303-0.822-0.043 0.398-0.219 0.676-0.612 0.734-1.074l0.001-0.007c0-0.346 0.13-0.692 0.216-0.995l0.649-0.865c-0.087 0-1.038 0.173-1.297 0.086 1.73-1.038 1.297-2.335 3.892-3.503-0.692-0.519-1.384-0.865-0.865-1.859 0.692 0.865 2.032 0.562 2.724 0.173-0.692-0.13-1.6-0.778-1.816-1.47 0.259 0 0.605 0.259 0.778 0.432 0.13-0.303 0.173-0.605 0.432-0.649-0.389 0.865 0.432 1.341 1.211 1.341l0.649-0.043c-0.087-0.173-0.432-0.605-0.173-0.822 0.173 0.216 0.432 0.346 0.605 0.519 1.514 1.168-0.735 2.249-1.643 2.724-1.427 0.778-1.038 1.73-0.432 1.946 0 0.13-0.087 0.173-0.173 0.173-0.432 0.173-0.822-0.13-1.168-0.346 0 0.605 0 1.124 0.649 1.47l-0.432 0.173c0.346 0.259 0.432 0.432 0.951 0.476-0.259 0.086-0.476 0.13-0.735 0.13l0.216 0.519c-0.908 0.13-1.297-0.432-1.6-0.389-0.605 0.043-0.562 1.211 0.951 1.211l-0.13 0.259 0.562 0.216c-0.13 0.043-0.216 0.173-0.303 0.259l0.259 0.216c-0.649 0.086-0.822-0.562-1.211-0.216-0.605 0.432 0.735 1.514 2.032 1.341l-0.562 0.432c1.081 0.995 0.562 1.946 0.995 2.638-0.836-0.051-1.522-0.635-1.727-1.414l-0.003-0.013z"></path>
<path fill="#656565" style="fill: var(--color1, #656565)" d="M21.276 11.892c0.216 0.259 0.476 0.259 0.995 0.216-0.562-0.043-0.865-0.173-1.081-0.562v-0.605c0-0.692 0.173-1.384 0.519-2.032 0.038 0.695 0.569 1.255 1.247 1.34l0.007 0.001c-0.778-0.303-1.211-1.038-0.995-1.773 0.29-0.443 0.574-0.823 0.88-1.186l-0.015 0.018c-0.13 0.389 0.303 0.778 0.605 0.865-0.173-0.216-0.519-0.692 0.303-1.557-0.259 0.087-0.432 0.216-0.692 0.389 1.47-1.557 2.681-1.6 3.243-2.422-0.778 0.562-2.897 0.865-3.892 0.562 0.562 0.346 1.816 0.346 2.162 0.259-1.081 0.995-3.287 2.032-3.676 2.941 0.35-0.42 0.824-0.726 1.366-0.861l0.018-0.004c-0.389 0.519-0.692 1.081-0.951 1.643-0.605 1.297-1.427 1.297-1.47 2.378 0.303-0.865 0.865-1.038 1.211-1.6l-0.087 1.168c0 0.432 0.13 0.865 0.259 1.297 0 0.562 0 1.427 0.649 2.032-0.3-0.431-0.479-0.967-0.479-1.543 0-0.050 0.001-0.1 0.004-0.15l-0 0.007c0.432 0.908 1.816 2.162 2.465 3.027-0.649-1.081-2.249-2.335-2.595-3.849zM36.238 7.524c0.56 0.139 1.034 0.445 1.38 0.861l0.003 0.004c-0.389-0.951-2.595-1.989-3.632-2.984 0.303 0.087 1.557 0.13 2.076-0.259-0.951 0.259-3.027 0-3.892-0.562 0.605 0.778 1.773 0.865 3.243 2.422l-0.649-0.432c0.778 0.865 0.432 1.384 0.259 1.557 0.303-0.086 0.735-0.432 0.649-0.822l0.303 0.389 0.519 0.778c0.259 0.692-0.216 1.47-0.951 1.773 0.667-0.104 1.176-0.658 1.211-1.337l0-0.003c0.346 0.605 0.562 1.297 0.562 2.032l-0.043 0.605c-0.173 0.389-0.519 0.519-1.038 0.562 0.476 0 0.735 0 0.951-0.216-0.346 1.47-1.946 2.768-2.595 3.892 0.649-0.865 2.032-2.162 2.508-3.070 0 0.605-0.13 1.168-0.476 1.687 0.605-0.605 0.649-1.514 0.605-2.032 0.173-0.432 0.259-0.865 0.259-1.297 0-0.389 0-0.778-0.087-1.168 0.432 0.562 0.951 0.735 1.211 1.6-0.043-1.081-0.865-1.124-1.427-2.422-0.286-0.611-0.603-1.136-0.968-1.624l0.017 0.024z"></path>
<path fill="#656565" style="fill: var(--color1, #656565)" d="M38.876 9.946c0.432 0.086 0.865 0.086 0.995-0.432-1.73-0.778-1.73-2.508-3.719-3.459 1.124-0.778 0.822-1.557 0.303-2.292-0.519 0.951-1.47 1.081-2.032 0.735 0.778-0.259 1.124-1.297 1.6-1.557-0.303-0.303-0.692-0.303-1.124 0-0.259-0.692-1.081-0.432-1.168-0.432 0.208 0.179 0.34 0.441 0.346 0.734v0.001c-0.087 0.649-1.124 0.562-1.124 0.562 0.216-0.432 0.087-0.692-0.389-0.951-0.13 0.389-1.297 0.865-1.341 1.557-0.13 1.081 1.168 1.73 2.292 2.378 1.254 0.649 0.778 1.384 0.346 1.427-0.259 0.778 0.692 0.865 1.254 0.562 0 0.13-0.087 0.735-0.908 0.778 0.047 0.217 0.215 0.385 0.429 0.432l0.004 0.001c-0.303 0.086-0.605 0.173-0.865 0.13 0 0.346 0.346 0.605 0.822 0.649-0.13 0.173-0.259 0.259-0.432 0.303 0.476 0.519 1.816 0.173 2.076-0.086 0.13-0.13 0.303 0.043 0.13 0.259-0.13 0.173-0.822 0.432-1.341 0.259-0.016 0.043-0.025 0.093-0.025 0.144 0 0.133 0.060 0.251 0.154 0.331l0.001 0.001-0.649 0.13c0 0.259 0.303 0.389 0.389 0.432-0.13 0.13-0.216 0.259-0.259 0.432 0.259 0.13 0.908 0.303 1.297-0.13 0.13-0.13 0.303 0 0.13 0.173-0.519 0.735-1.73 0.735-2.205 0.519 0 0.562 0.216 0.649 0.519 0.865-0.865 1.081-0.303 1.989-0.951 2.897 1.211 0 1.989-0.649 2.162-1.297 0 0.001 0 0.001 0 0.002 0 0.271 0.208 0.494 0.474 0.517l0.002 0c0-0.259 0.043-0.519 0.173-0.692 0.216 0.173 0.692 0.216 1.297 0.259-0.692-1.124 1.168-2.292 0.432-3.805-0.13-0.216 0.216-0.389 0.259-0.13 0.173 1.297 0.908 1.6 1.557 1.168-0.173-0.173-0.259-0.173-0.389-0.389 0.432 0.13 0.649-0.173 0.778-0.605-1.168-0.432-0.562-1.427-1.297-2.378zM38.962 12.541l0.259 0.649c-0.865 0-0.432-1.859-1.297-1.427-0.161 0.079-0.27 0.241-0.27 0.429 0 0.080 0.020 0.156 0.055 0.222l-0.001-0.003c0.562 1.168-0.735 2.162-0.649 3.2-0.346 0-0.649 0-0.865-0.432l-0.303 0.822-0.259-0.432c-0.208 0.792-0.894 1.376-1.724 1.427l-0.005 0c0.432-0.692-0.13-1.6 0.951-2.595l-0.562-0.432c1.297 0.13 2.681-0.908 2.032-1.384-0.389-0.346-0.562 0.346-1.168 0.216l0.216-0.216-0.259-0.259c0.212-0.042 0.4-0.117 0.57-0.221l-0.008 0.004-0.173-0.259c1.514 0 1.557-1.168 0.951-1.211-0.303 0-0.649 0.519-1.6 0.432l0.216-0.562c-0.216 0-0.476 0-0.692-0.13 0.432-0.043 0.562-0.216 0.951-0.476l-0.432-0.173c0.605-0.303 0.562-0.865 0.605-1.47-0.346 0.216-0.735 0.519-1.168 0.346-0.087 0-0.13-0.043-0.13-0.173 0.562-0.216 0.951-1.168-0.432-1.946-0.951-0.476-3.2-1.557-1.687-2.724l0.649-0.519c0.216 0.216-0.087 0.649-0.173 0.822l0.605 0.043c0.778 0 1.6-0.432 1.211-1.341 0.303 0.043 0.346 0.346 0.432 0.605 0.173-0.13 0.519-0.432 0.822-0.389-0.216 0.692-1.124 1.297-1.859 1.47 0.735 0.432 2.032 0.692 2.724-0.173 0.519 0.951-0.173 1.341-0.865 1.859 2.595 1.168 2.162 2.465 3.892 3.459-0.259 0.13-1.211-0.043-1.297-0.086l0.649 0.908c0.13 0.303 0.216 0.649 0.259 0.995 0.049 0.461 0.311 0.853 0.685 1.078l0.006 0.004c-0.173 0.346-0.605 0.086-0.778 0zM26.811 15.395l0.346-0.303v-0.13c-0.087-0.086-0.043-0.086 0-0.13l0.173-0.13c0.019-0.008 0.041-0.013 0.065-0.013s0.046 0.005 0.066 0.013l-0.001-0 0.562 0.13h-0.562c-0.014-0.003-0.030-0.005-0.047-0.005-0.106 0-0.194 0.076-0.213 0.177l-0 0.001v0.086l-0.173 0.303c-0.035 0.053-0.056 0.119-0.056 0.189 0 0.095 0.038 0.181 0.1 0.243l0.13 0.13-0.216 0.432h0.173l0.13-0.303c0.13-0.13 0.259-0.259 0.303-0.432-0.043-0.043-0.13-0.086-0.087-0.173l0.087-0.13c0-0.043 0-0.086 0.087-0.086l0.605 0.13c0.029 0.016 0.064 0.025 0.102 0.025 0.062 0 0.118-0.026 0.158-0.068l0-0c0.087-0.13 0.087-0.13 0.303-0.086h0.303c0.346 0.086 0.692 0 0.995-0.173l0.216 0.346v0.13l-0.346 0.865h0.519l0.303-0.778 0.087-0.173-0.13 0.908h0.476l0.173-0.865c0-0.216 0-0.303-0.087-0.389-0.216-0.173-0.216-0.562-0.303-0.778h0.13c0.13 0 0.216 0.259 0.346 0.432 0.259 0.432 0.605 0.822 1.038 0.216-0.041-0.065-0.084-0.122-0.131-0.174l0.001 0.001-0.13-0.13-0.519-0.562c-0.142-0.146-0.339-0.236-0.558-0.236-0.145 0-0.28 0.040-0.396 0.108l0.004-0.002c-0.432-0.216-0.865 0-0.951 0h-0.735c-0.002 0-0.005 0-0.007 0-0.056 0-0.104-0.036-0.122-0.086l-0-0.001 0.13-0.043c-0.13-0.562-0.432-0.995-0.995-1.038 0 0 0-0.173-0.13-0.216l-0.13 0.173-0.173 0.043-0.692-0.259 0.519 0.562-0.346 0.432c-0.035 0.024-0.058 0.063-0.058 0.108s0.023 0.085 0.058 0.108l0 0 0.087 0.13c0.087 0.086 0.13 0.086 0.216 0h0.13c0-0.086 0.216 0 0.259-0.043l-0.043 0.432-0.476-0.086c-0.019-0.005-0.040-0.008-0.062-0.008-0.058 0-0.112 0.019-0.155 0.051l0.001-0.001-0.432 0.303c-0.078 0.064-0.128 0.16-0.128 0.268 0 0.060 0.015 0.117 0.042 0.166l-0.001-0.002 0.173 0.389zM30.746 15.481l-0.303 0.778h-0.216l0.303-0.778c0.043-0.086 0-0.13-0.087-0.216l0.346 0.13v0.086zM27.632 13.751l-0.087 0.043c-0.087 0-0.087 0.043-0.173 0v-0.043c-0.018-0.016-0.029-0.039-0.029-0.065s0.011-0.049 0.029-0.065l0-0 0.389-0.476-0.346-0.303 0.432 0.173 0.173-0.216 0.043 0.173c0.446 0.085 0.779 0.471 0.779 0.936 0 0.006-0 0.011-0 0.017v-0.001c0.043 0.086 0.13 0.173 0.259 0.173l0.822 0.043c0.13 0 0.432-0.259 0.865 0l0.346-0.13c0.369 0.013 0.688 0.216 0.862 0.514l0.003 0.005 0.389 0.476c-0.087 0.13-0.173 0.13-0.259 0.13-0.099-0.067-0.166-0.176-0.173-0.302l-0-0.001c-0.070-0.143-0.173-0.26-0.3-0.344l-0.003-0.002c0.087 0.13 0.13 0.259 0.13 0.432-0.303-0.346-0.389-0.692-0.605-0.778-0.009-0.001-0.018-0.001-0.029-0.001-0.121 0-0.225 0.070-0.273 0.172l-0.001 0.002c0.13 0.259 0.087 0.562 0.216 0.735l0.13 0.216c0.13 0.043 0.043 0.173 0.043 0.259l-0.13 0.735h-0.173l0.13-0.735c0-0.216-0.605-0.216-0.908-0.649-0.303 0.346-1.038 0.259-1.384 0.216-0.027-0.008-0.057-0.013-0.089-0.013-0.108 0-0.203 0.057-0.256 0.142l-0.001 0.001c0 0.043-0.13 0-0.173 0l-0.605-0.086c-0.023-0.021-0.053-0.033-0.087-0.033s-0.064 0.013-0.087 0.033l0-0v0.086l-0.13 0.259c-0.011 0.019-0.017 0.041-0.017 0.065s0.006 0.046 0.018 0.065l-0-0.001 0.087 0.043c0 0.086-0.087 0.173-0.173 0.216l-0.13-0.13c-0.030-0.042-0.049-0.095-0.049-0.151s0.018-0.109 0.049-0.152l-0.001 0.001 0.216-0.432c0.030-0.027 0.071-0.044 0.115-0.044 0.005 0 0.010 0 0.015 0.001l-0.001-0h0.735l-0.216-0.389c-0.173-0.259 0.13-0.778 0.087-0.995 0 0.303-0.432 0.173-0.476 0.216v-0.043zM26.811 14.703l0.389-0.303c0.037-0.029 0.083-0.047 0.134-0.047 0.014 0 0.027 0.001 0.040 0.004l-0.001-0 0.476 0.043 0.13 0.259-0.562-0.13c-0.015-0.005-0.032-0.008-0.051-0.008-0.048 0-0.091 0.019-0.122 0.051v0l-0.216 0.173c-0.020 0.023-0.033 0.053-0.033 0.086s0.013 0.064 0.033 0.087l-0-0v0.086l-0.173 0.13-0.087-0.13c-0.043-0.13-0.043-0.259 0.043-0.346zM28.368 5.103l0.519 0.259v-0.216l-0.735-0.303s0 0.087 0.216 0.259zM28.887 4.8v-0.216l-0.865-0.303 0.346 0.259 0.562 0.259zM28.887 4.324v-0.259l-0.908-0.346 0.389 0.303 0.519 0.259z"></path>
<path fill="#656565" style="fill: var(--color1, #656565)" d="M31.568 7.395h0.951c-0.067-0.158-0.22-0.266-0.399-0.266-0.027 0-0.053 0.002-0.079 0.007l0.003-0c-0.013-0.001-0.029-0.002-0.044-0.002-0.199 0-0.373 0.103-0.473 0.259l-0.001 0.002zM30.53 3.719l-0.951 0.346v0.216l0.562-0.259 0.432-0.303zM30.357 4.843l-0.778 0.259v0.259l0.562-0.303c0.216-0.13 0.216-0.216 0.216-0.216zM30.443 4.281l-0.865 0.303v0.216l0.562-0.259 0.346-0.259zM26.465 7.135c-0.011-0.001-0.023-0.001-0.035-0.001-0.177 0-0.329 0.106-0.396 0.258l-0.001 0.003h0.908c-0.101-0.157-0.276-0.259-0.474-0.259-0.001 0-0.001 0-0.002 0h0z"></path>
<path fill="#656565" style="fill: var(--color1, #656565)" d="M31.135 3.114c0-0.562-0.865-1.038-1.903-1.038-0.995 0-1.903 0.476-1.903 1.038v0.13l0.432 2.292-1.903 1.081c-0.255 0.178-0.432 0.454-0.475 0.773l-0.001 0.006h0.346c0.064-0.371 0.383-0.649 0.767-0.649 0.004 0 0.008 0 0.011 0h-0.001c0.432 0 0.692 0.259 0.951 0.649l0.173 0.259h-2.768c0.216 0.432 0.346 0.865 0.389 1.297v5.795c0 1.514 1.124 2.205 2.378 2.205 0.951 0 1.081 0 1.6 0.476 0.562-0.519 0.692-0.432 1.643-0.432 1.211 0 2.378-0.735 2.378-2.249v-5.795c0.047-0.485 0.202-0.926 0.44-1.31l-0.007 0.013h-2.811l0.13-0.259c0.259-0.389 0.519-0.649 0.995-0.649 0.003-0 0.007-0 0.011-0 0.384 0 0.703 0.278 0.767 0.644l0.001 0.005h0.346c-0.044-0.324-0.22-0.6-0.472-0.776l-0.004-0.002-1.946-1.081 0.389-2.292v-0.13zM27.719 3.373l1.427 0.432v2.249l-1.038-0.562-0.389-2.162zM28.065 8.043c0.216 0.259 0.519 0.432 0.865 0.519 0 0.173 0.13 0.303 0.216 0.432-0.015 0.054-0.024 0.117-0.024 0.181 0 0.345 0.252 0.631 0.582 0.683l0.004 0.001c0.041 0.207 0.19 0.371 0.385 0.431l0.004 0.001-0.303 0.303c-0.080 0.107-0.206 0.175-0.347 0.175-0.015 0-0.029-0.001-0.044-0.002l0.002 0-1.297-0.173c0-0.13-0.13-0.303-0.519-0.216l0.519-1.47-0.346-0.649-0.605 0.519v1.514l-0.303-0.13c-0.303-0.13-0.432 0.432-0.087 0.432h0.13c-0.011 0.018-0.017 0.040-0.017 0.064 0 0.046 0.024 0.086 0.059 0.109l0 0c-0.048 0-0.087 0.039-0.087 0.086s0.039 0.086 0.087 0.086v0c-0.035 0.024-0.058 0.063-0.058 0.108s0.023 0.085 0.058 0.108l0 0c-0.028 0.045-0.045 0.1-0.045 0.158 0 0.121 0.071 0.225 0.173 0.273l0.002 0.001c0.173 0 0.303-0.173 0.346-0.303l2.076 0.649c0.070 0.026 0.151 0.041 0.235 0.041 0.197 0 0.374-0.082 0.5-0.214l0-0 0.476-0.519c-0.015 0.048-0.023 0.103-0.023 0.161 0 0.208 0.113 0.389 0.28 0.486l0.003 0.001v0.432h-5.319v-3.373c0-0.346-0.043-0.649-0.173-0.951h2.595zM30.27 9.341c-0.046 0.090-0.073 0.196-0.073 0.309 0 0.143 0.043 0.276 0.117 0.386l-0.002-0.002-0.087 0.086c-0.389-0.043-0.519-0.649-0.519-0.649v0.173c-0.227-0.058-0.393-0.262-0.393-0.503 0-0.021 0.001-0.041 0.004-0.061l-0 0.002 0.303 0.086v-0.173c-0.212-0.057-0.376-0.22-0.431-0.428l-0.001-0.004h0.519c0.127 0.149 0.31 0.247 0.517 0.259l0.002 0c-0.043 0.173 0 0.346 0.043 0.476zM30.832 10.854l-0.087 0.173-0.216 0.173c0.002-0.026 0.004-0.057 0.004-0.088 0-0.309-0.135-0.586-0.349-0.776l-0.001-0.001 0.216-0.216 0.043 0.043c-0.011 0.040-0.018 0.087-0.018 0.134 0 0.262 0.195 0.479 0.447 0.514l0.003 0zM29.838 10.768l0.173-0.173c0.217 0.176 0.354 0.442 0.354 0.741 0 0.044-0.003 0.087-0.009 0.129l0.001-0.005-0.216 0.13-0.13 0.086c0.019-0.075 0.030-0.16 0.030-0.248 0-0.232-0.076-0.447-0.205-0.619l0.002 0.003zM29.405 10.897h0.216c0.096 0.146 0.152 0.325 0.152 0.517 0 0.125-0.024 0.245-0.068 0.355l0.002-0.006h-0.259l-0.087-0.043c0.13-0.259 0.173-0.562 0.087-0.822zM28.973 10.854h0.259c0.043 0.259 0 0.562-0.13 0.778l-0.259-0.086c0.13-0.216 0.173-0.432 0.13-0.692zM28.454 10.768l0.303 0.043c0 0.259 0 0.476-0.13 0.692l-0.303-0.086c0.13-0.173 0.173-0.432 0.13-0.649zM27.243 10.681c-0.013 0.005-0.028 0.008-0.043 0.008-0.072 0-0.13-0.058-0.13-0.13 0-0.003 0-0.005 0-0.008l-0 0c0.063-0.033 0.137-0.052 0.216-0.052s0.153 0.019 0.219 0.053l-0.003-0.001 0.259 0.303-0.087 0.346c-0.142-0.027-0.248-0.15-0.248-0.298 0-0.049 0.012-0.095 0.032-0.136l-0.001 0.002c-0.029-0.058-0.088-0.097-0.156-0.097-0.022 0-0.043 0.004-0.062 0.011l0.001-0zM27.027 11.243l0.216 0.043c0 0.002 0 0.005 0 0.007 0 0.056-0.036 0.104-0.086 0.122l-0.001 0h-0.043c-0.013 0.006-0.027 0.010-0.043 0.010-0.053 0-0.097-0.043-0.097-0.097 0-0.038 0.021-0.070 0.053-0.086l0.001-0zM26.768 10.465c-0.048 0-0.087-0.039-0.087-0.086s0.039-0.086 0.087-0.086v0c0.13 0 0.216 0.086 0.346 0.173h-0.346zM27.027 11.027c0.087 0.086 0.259 0.043 0.259 0.043-0.087 0.13-0.303 0.086-0.259 0zM27.287 10.897c-0.13 0.086-0.259 0-0.216-0.086h0.216v0.086zM27.459 9.384l-0.216 0.908 0.087-1.47 0.389-0.303 0.173 0.432-0.476 1.427 0.13-0.995c0-0.043 0-0.043-0.043 0zM27.503 10.508h0.389s0 0.13-0.087 0.13l-0.303-0.13zM27.935 10.724h0.303c0 0.259 0 0.432-0.13 0.649l-0.259-0.086 0.13-0.562zM32.865 14.746c0.001 0.025 0.002 0.054 0.002 0.083 0 0.63-0.346 1.18-0.858 1.47l-0.008 0.004 0.173-0.432h-0.173l-0.259 0.519c-0.259 0.13-0.562 0.173-0.865 0.173-0.995 0-1.254 0-1.6 0.432-0.389-0.389-0.649-0.432-1.643-0.432-0.303 0-0.562-0.043-0.865-0.173l0.259-0.476h-0.216l-0.259 0.432c-0.054-0.034-0.096-0.062-0.137-0.092l0.008 0.005 0.173-0.346h-0.173l-0.13 0.259c-0.422-0.31-0.692-0.805-0.692-1.362 0-0.008 0-0.015 0-0.023v0.001-2.249h7.265v2.205zM33.081 8.043c-0.126 0.279-0.204 0.605-0.216 0.947l-0 0.005v3.373h-0.432l-0.303-0.778c-0.021 0.074-0.033 0.159-0.033 0.247 0 0.198 0.061 0.382 0.164 0.535l-0.002-0.003h-0.519l-0.216-0.778c-0.173 0.173-0.043 0.649 0 0.778h-0.303l0.043-0.519c-0.173 0-0.346-0.13-0.346-0.303 0.043 0.032 0.096 0.051 0.154 0.051 0.022 0 0.043-0.003 0.064-0.008l-0.002 0 0.173-0.086c-0.476 0-0.519-0.519-0.13-0.735-0.389 0-0.649-0.216-0.519-0.649-0.158-0.101-0.262-0.276-0.262-0.475 0-0.113 0.033-0.217 0.090-0.305l-0.001 0.002c-0.082-0.112-0.131-0.253-0.131-0.405 0-0.088 0.016-0.171 0.046-0.248l-0.002 0.005c-0.173 0-0.346-0.086-0.519-0.216 0.229-0.093 0.419-0.241 0.56-0.429l0.002-0.003h2.595zM31.568 6.487c-0.389 0.043-0.692 0.519-0.995 0.951v0.043h-0.303v0.087c0 0.303-0.346 0.778-1.038 0.778-0.259 0-0.519-0.086-0.735-0.259-0.118-0.102-0.208-0.233-0.258-0.383l-0.002-0.006-0.043-0.13v-0.087h-0.303c-0.303-0.432-0.605-0.951-0.995-0.995l1.038-0.649 1.297 0.735 1.297-0.735 1.081 0.649zM30.357 5.535l-0.951 0.519v-2.162l1.427-0.476-0.389 2.162zM29.232 3.632l-1.557-0.605c0.13-0.303 0.735-0.562 1.514-0.562 0.865 0 1.427 0.259 1.557 0.562l-1.514 0.605z"></path>
<path fill="#656565" style="fill: var(--color1, #656565)" d="M32.692 10.249v-0.173c-0.519 0-0.649-0.649-0.649-0.649-0.027 0.066-0.042 0.142-0.042 0.222 0 0.334 0.271 0.605 0.605 0.605 0.030 0 0.060-0.002 0.089-0.006l-0.003 0zM32 11.243v-0.13c-0.432 0.13-0.692-0.605-0.692-0.605-0.020 0.058-0.032 0.125-0.032 0.195 0 0.334 0.271 0.605 0.605 0.605 0.058 0 0.113-0.008 0.166-0.023l-0.004 0.001zM32.346 10.638c-0.519 0.086-0.735-0.562-0.735-0.562-0.010 0.040-0.015 0.086-0.015 0.134 0 0.309 0.232 0.564 0.531 0.601l0.003 0c-0.009 0.033-0.014 0.071-0.014 0.11 0 0.239 0.194 0.432 0.432 0.432 0.085 0 0.165-0.025 0.232-0.068l-0.002 0.001v-0.13c-0.046 0.024-0.101 0.039-0.159 0.039-0.191 0-0.346-0.155-0.346-0.346 0-0.080 0.027-0.154 0.073-0.212l-0.001 0.001zM32 8.865v-0.173c-0.692-0.13-0.605-0.605-0.605-0.605-0.016 0.052-0.025 0.112-0.025 0.174 0 0.334 0.271 0.605 0.605 0.605 0.009 0 0.018-0 0.027-0.001l-0.001 0zM27.589 15.914l-0.259 0.476h0.216l0.216-0.476h-0.173zM27.978 15.914l-0.259 0.476h0.173l0.259-0.476h-0.173zM29.492 15.914l-0.259 0.476h0.173l0.259-0.476h-0.173zM29.838 15.914l-0.216 0.476h0.173l0.259-0.476h-0.216zM29.103 15.914l-0.259 0.476h0.216l0.216-0.476h-0.173zM31.308 16.432h0.173l0.259-0.519h-0.173l-0.259 0.476zM28.368 15.914l-0.259 0.476h0.173l0.259-0.476h-0.173zM28.713 15.914l-0.259 0.476h0.216l0.259-0.476h-0.216zM27.849 13.189c-0.043 0.006-0.075 0.042-0.075 0.086 0 0.048 0.039 0.086 0.087 0.086s0.087-0.039 0.087-0.086c0-0.016-0.004-0.030-0.011-0.043l0 0c-0.015-0.026-0.043-0.044-0.075-0.044-0.004 0-0.008 0-0.012 0.001l0-0zM29.276 1.73c0.605 0 1.211 0.173 1.73 0.519 0.084-0.424 0.234-0.801 0.441-1.14l-0.009 0.015-0.605 0.043-0.346-0.692-0.605 0.346-0.605-0.605-0.649 0.605-0.605-0.346-0.346 0.692-0.605-0.043c0.198 0.323 0.348 0.7 0.429 1.102l0.004 0.022c0.457-0.325 1.027-0.52 1.643-0.52 0.031 0 0.061 0 0.091 0.001l-0.004-0zM27.805 1.47l0.303-0.649 0.562 0.303 0.605-0.605 0.562 0.605 0.562-0.303 0.259 0.649 0.389-0.043-0.259 0.519c-0.456-0.254-1-0.404-1.578-0.404s-1.123 0.15-1.595 0.412l0.017-0.009-0.259-0.519h0.389z"></path>
<path fill="#656565" style="fill: var(--color1, #656565)" d="M29.881 0.476c0.002 0 0.004 0 0.005 0 0.080 0 0.148-0.055 0.167-0.129l0-0.001-0.087-0.346s-0.216 0.216-0.216 0.303c-0 0.002-0 0.004-0 0.005 0 0.080 0.055 0.148 0.129 0.167l0.001 0zM30.919 0.865c0.018 0.007 0.039 0.011 0.061 0.011 0.068 0 0.127-0.039 0.155-0.096l0-0.001v-0.346s-0.259 0.13-0.303 0.216c-0.007 0.018-0.011 0.039-0.011 0.061 0 0.068 0.039 0.127 0.096 0.155l0.001 0zM28.627 0.476c0.075-0.020 0.13-0.087 0.13-0.168 0-0.002-0-0.004-0-0.006v0c0-0.086-0.216-0.303-0.216-0.303l-0.087 0.346c0.020 0.075 0.087 0.13 0.168 0.13 0.002 0 0.004-0 0.006-0h-0zM27.589 0.865c0.058-0.029 0.097-0.088 0.097-0.156 0-0.022-0.004-0.043-0.011-0.062l0 0.001c-0.043-0.087-0.346-0.216-0.346-0.216v0.346c0.024 0.068 0.088 0.116 0.163 0.116 0.036 0 0.069-0.011 0.097-0.030l-0.001 0zM39.87 6.487c0.199-0.098 0.353-0.266 0.43-0.47l0.002-0.006c-0.519-0.087-1.989-0.692-3.2-0.216 0.432-0.432 0.865-0.432 0.865-1.081 0.078 0.075 0.183 0.121 0.3 0.121 0.173 0 0.322-0.101 0.391-0.248l0.001-0.003c-0.13-0.346-0.432-0.043-0.432-0.173-0.087-0.087 0.346 0.043 0.432-0.432-0.346-0.13-0.432 0.173-0.519 0.13-0.043-0.087 0.259-0.216 0-0.562-0.346 0.216-0.13 0.432-0.216 0.432-0.087 0.043 0-0.216-0.432-0.216-0.043 0.432 0.389 0.432 0.303 0.519-0.043 0.087-0.173-0.259-0.519-0.087-0.005 0.025-0.008 0.054-0.008 0.083 0 0.239 0.194 0.432 0.432 0.432 0.066 0 0.128-0.015 0.184-0.041l-0.003 0.001c0 0.692-0.649 0.562-1.124 1.297 0.995 0.519 1.427 1.427 2.032 2.032 0.216-0.225 0.403-0.481 0.553-0.76l0.009-0.018c0.142 0.148 0.341 0.24 0.562 0.24s0.42-0.092 0.562-0.24l0-0c-0.259-0.259-0.259-0.432-0.605-0.735zM38.919 6.616c0.063 0.136 0.099 0.295 0.099 0.462 0 0.231-0.069 0.445-0.188 0.623l0.003-0.004c-0.303-0.649-0.735-1.211-1.297-1.643-0.087-0.043 0.043-0.13 0.303-0.173 0.778-0.13 1.643 0.173 2.076 0.259-0.173 0.13-0.389 0.216-0.562 0.259 0.259 0.173 0.476 0.432 0.692 0.692-0.303 0.087-0.476-0.087-1.124-0.476zM32.605 17.903v-0.822c-0.778 0.346-1.643 0.562-2.508 0.649l-0.043 0.259 0.346 0.043c-0.351 0.050-0.756 0.079-1.168 0.079s-0.817-0.029-1.213-0.084l0.046 0.005h0.346v-0.303c-0.865-0.087-1.73-0.303-2.551-0.649v0.865l-0.865 0.303c0.735 0.389 1.514 0.649 2.292 0.865l-0.087 0.346c1.341 0.389 2.811 0.389 4.151 0l-0.087-0.346c0.778-0.216 1.557-0.476 2.249-0.865l-0.865-0.346zM25.47 18.292l0.605-0.259v-0.649c0.519 0.173 1.038 0.346 1.557 0.432l-0.303 1.081c-0.649-0.13-1.297-0.346-1.859-0.605zM29.276 19.546c-0.649 0-1.297-0.087-1.859-0.259l0.346-1.124c0.995 0.173 1.989 0.173 3.027 0l0.346 1.124c-0.649 0.173-1.254 0.259-1.859 0.259zM31.178 18.897l-0.346-1.081c0.615-0.114 1.152-0.263 1.669-0.455l-0.069 0.022v0.649l0.562 0.259c-0.516 0.239-1.122 0.447-1.752 0.593l-0.064 0.012zM19.157 7.222l0.562 0.735c0.605-0.605 1.038-1.47 2.032-1.989-0.432-0.735-1.081-0.605-1.124-1.297 0.039 0.013 0.084 0.020 0.13 0.020 0.239 0 0.432-0.194 0.432-0.432 0-0.007-0-0.014-0-0.021l0 0.001c-0.303-0.216-0.432 0.13-0.476 0-0.087-0.043 0.346-0.043 0.303-0.476-0.432 0-0.346 0.259-0.432 0.259-0.087-0.043 0.13-0.303-0.259-0.519-0.216 0.432 0.087 0.519 0 0.562 0 0.043-0.13-0.216-0.519-0.087 0.087 0.432 0.562 0.259 0.519 0.432-0.087 0.173-0.389-0.216-0.476 0.173 0.075 0.135 0.217 0.224 0.379 0.224 0.102 0 0.196-0.036 0.271-0.095l-0.001 0.001c0.043 0.605 0.432 0.649 0.908 1.081-1.211-0.519-2.681 0.13-3.243 0.216 0.087 0.216 0.259 0.346 0.476 0.432-0.346 0.346-0.346 0.519-0.562 0.778 0 0 0.432 0.476 1.124 0zM18.508 7.092c0.173-0.259 0.432-0.476 0.692-0.692-0.216 0-0.432-0.13-0.562-0.259 0.432-0.087 1.297-0.432 2.076-0.259 0.216 0 0.346 0.13 0.259 0.173-0.519 0.432-0.951 0.995-1.297 1.643-0.116-0.174-0.186-0.389-0.186-0.619 0-0.167 0.037-0.326 0.102-0.469l-0.003 0.007c-0.649 0.389-0.822 0.562-1.081 0.519zM28.713 6.746v0.346c0.075-0.063 0.172-0.101 0.278-0.101 0.040 0 0.078 0.005 0.114 0.015l-0.003-0.001v0.519c0 0.13-0.043 0.259-0.13 0.346h0.519l-0.087-0.346v-0.605c0.022-0.004 0.048-0.006 0.074-0.006 0.124 0 0.236 0.052 0.315 0.136l0 0v-0.346h-1.081z"></path>
</symbol>
<symbol id="icon-img3" viewBox="0 0 101 32">
<path d="M0 0h100.978v31.2h-100.978z"></path>
</symbol>
<symbol id="icon-img4" viewBox="0 0 159 32">
<path d="M0 0h158.857v32h-158.857z"></path>
</symbol>
<symbol id="icon-img5" viewBox="0 0 59 32">
<path d="M0 0h58.298v31.767h-58.298z"></path>
</symbol>
<symbol id="icon-img6" viewBox="0 0 75 32">
<path d="M0 0h75.378v32h-75.378z"></path>
</symbol>
<symbol id="icon-img7" viewBox="0 0 48 32">
<path d="M0 0h48v32h-48z"></path>
</symbol>
<symbol id="icon-img8" viewBox="0 0 106 32">
<path d="M0 0h106.435v32h-106.435z"></path>
</symbol>
<symbol id="icon-img9" viewBox="0 0 65 32">
<path d="M0 0.413h64.052v31.226h-64.052z"></path>
</symbol>
<symbol id="icon-arrow" viewBox="0 0 39 32">
<path d="M34.59 16.914h-34.286v-1.829h34.286l-13.029-13.105 1.295-1.219 15.238 15.238-15.238 15.238-1.295-1.219 13.029-13.105z"></path>
</symbol>
<symbol id="icon-beer" viewBox="0 0 33 32">
<path d="M7.226 7.845h1.032v15.277h-1.032v-15.277zM17.755 7.845h1.239v15.277h-1.239v-15.277z"></path>
<path d="M25.806 1.755v4.439h4.439c1.342 0 2.477 1.032 2.477 2.374v13.832c0 1.342-1.032 2.374-2.477 2.374h-4.439v2.787c0 2.28-1.849 4.129-4.129 4.129v0h-17.239c-2.28 0-4.129-1.849-4.129-4.129v0-25.806c0-0.413 0.31-0.723 0.723-0.723h24.052c0.413 0 0.723 0.31 0.723 0.723zM24.361 27.561v-25.084h-22.606v25.084c0 1.445 1.239 2.684 2.684 2.684h17.239c1.548 0 2.684-1.239 2.684-2.684zM25.806 23.432h5.471v-15.897h-5.471v15.69z"></path>
</symbol>
<symbol id="icon-bus" viewBox="0 0 32 32">
<path d="M10 21.8c0 0.828-0.672 1.5-1.5 1.5s-1.5-0.672-1.5-1.5v0c0-0.828 0.672-1.5 1.5-1.5s1.5 0.672 1.5 1.5v0zM25 21.8c0 0.828-0.672 1.5-1.5 1.5s-1.5-0.672-1.5-1.5v0c0-0.828 0.672-1.5 1.5-1.5s1.5 0.672 1.5 1.5v0z"></path>
<path d="M30 6v4.2h1l0.4 0.2 0.3 0.3v3.6c0 0.4-0.3 0.7-0.7 0.7h-1v11c0 0.9-0.4 1.6-1.2 2l-0.4 0.3v2.7c0 0.4-0.3 0.7-0.7 0.7h-1.7c-0.387 0-0.7-0.313-0.7-0.7v0-2.6h-18.6v2.6c0 0.4-0.3 0.7-0.7 0.7h-1.7c-0.387 0-0.7-0.313-0.7-0.7v0-2.7l-0.4-0.3c-0.701-0.409-1.171-1.147-1.2-1.996l-0-0.004v-11h-1c-0.387 0-0.7-0.313-0.7-0.7v0-3.3c0-0.4 0.3-0.7 0.6-0.7h1.1v-4.3c0-3.1 2.5-5.7 5.7-5.7h16.6c3.2 0 5.7 2.6 5.7 5.7zM3.4 27h25.2v-10.3h-25.2v10.3zM3.4 15.3h12v-8.6h-12v8.6zM16.7 15.3h12v-8.6h-12v8.6zM3.1 5.3h25.9l-1-1.5c-0.764-1.266-2.132-2.1-3.695-2.1-0.002 0-0.004 0-0.006 0h-16.6c-1.6 0-3 0.9-3.7 2.1l-1 1.5z"></path>
</symbol>
<symbol id="icon-chalkboard" viewBox="0 0 34 32">
<path d="M7.467 17.067h5.013v1.493h-5.013v-1.493z"></path>
<path d="M31.253 25.6h-9.173l3.84 5.12-1.173 0.853-4.48-5.973h-6.4l-4.48 5.973-1.173-0.853 3.84-5.12h-9.173c-1.387 0-2.56-1.067-2.56-2.453v-19.627c0-1.387 1.067-2.453 2.56-2.453h28.373c1.387 0 2.56 1.067 2.56 2.453v19.627c0 1.387-1.067 2.453-2.56 2.453zM1.813 2.56v21.547h30.507v-21.547h-30.507z"></path>
</symbol>
<symbol id="icon-codepen" viewBox="0 0 32 32">
<path d="M16.2 0.3l15.3 10.1c0.2 0.1 0.3 0.3 0.3 0.4v10.3l-0.1 0.3-0.2 0.1-15.3 10.2h-0.5l-15.3-10.2c-0.122-0.092-0.2-0.237-0.2-0.4v0-10.3c0-0.163 0.078-0.308 0.199-0.399l0.001-0.001 15.3-10.1h0.5zM23.6 15.3l6.8-4.5-14-9.3v9l7.2 4.9zM15.6 10.6v-9l-14 9.2 6.8 4.6 7.1-4.8zM7.6 15.9l-6.6-4.2v8.5l6.5-4.2zM1.6 21.1l14 9.3v-9.2l-7.2-4.7-6.9 4.5zM9.1 16l6.8 4.5 6.7-4.5-6.7-4.5-6.8 4.5zM16.3 21.3v9.2l14-9.3-6.8-4.6-7.2 4.7zM24.3 16l6.4 4.3v-8.5l-6.4 4.2z"></path>
</symbol>
<symbol id="icon-copy" viewBox="0 0 32 32">
<path d="M7 17h8v1.4h-8v-1.4zM7 23.6h8v1.4h-8v-1.4z"></path>
<path d="M29.3 21.7h-7.6v7.6c0 1.3-1 2.4-2.4 2.4h-16.6c-1.3 0-2.4-1-2.4-2.4v-16.6c0-1.3 1-2.4 2.4-2.4h7.6v-7.6c0-1.3 1-2.4 2.4-2.4h16.6c1.3 0 2.4 1 2.4 2.4v16.6c0 1.3-1 2.4-2.4 2.4zM1.7 11.7v18.6h18.6v-18.6h-18.6zM21.7 20.3h8.6v-18.6h-18.6v8.6h7.6c1.3 0 2.4 1 2.4 2.4v7.6z"></path>
</symbol>
<symbol id="icon-grav" viewBox="0 0 34 32">
<path d="M0.32 0.427v4.267c0 1.707 1.387 2.987 3.093 2.987h7.893v10.027c0 0.64 0.32 1.28 0.853 1.6l4.267 3.2v7.467h-0.107v1.6h17.493v-1.493h-16v-7.68l4.267-3.2c0.427-0.32 0.747-0.96 0.747-1.6v-9.92h7.893c1.707 0 3.093-1.28 3.093-2.987v-4.267h-33.493zM1.813 6.187v-4.267h30.507v4.267h-30.507zM12.8 17.92v-10.133h8.533v6.507h-5.44v1.493h5.333v2.347l-4.16 3.2-4.267-3.2z"></path>
<path d="M4.8 30.080h6.933v1.493h-6.933v-1.493zM6.933 21.76l-0.96 1.173 5.653 4.267 0.96-1.28-5.653-4.267zM28.373 22.933l-0.853-1.173-5.653 4.267 0.853 1.067 5.653-4.16z"></path>
</symbol>
<symbol id="icon-grayarrow" viewBox="0 0 42 32">
<path stroke-linejoin="miter" stroke-linecap="butt" stroke-miterlimit="4" stroke-width="3.2" d="M24.96 2.24l13.76 13.76-13.76 13.76M0 16h38.4"></path>
</symbol>
<symbol id="icon-logo" viewBox="0 0 262 32">
<path fill="#f2353f" style="fill: var(--color2, #f2353f)" d="M180.32 32c2.080 0 3.68-1.6 3.68-3.68v-13.44l6.72 8.96c0.685 0.898 1.755 1.472 2.96 1.472 2.050 0 3.712-1.662 3.712-3.712 0-0.845-0.283-1.625-0.759-2.249l0.007 0.009-13.44-17.92c-0.68-0.85-1.717-1.39-2.88-1.39-2.015 0-3.651 1.619-3.68 3.627l-0 0.003v24.64c0 2.080 1.6 3.68 3.68 3.68zM7.36 28.32v-24.64c0-2.032-1.648-3.68-3.68-3.68s-3.68 1.648-3.68 3.68v0 24.64c0 2.032 1.648 3.68 3.68 3.68s3.68-1.648 3.68-3.68v0zM55.36 31.36c1.76-1.12 2.24-3.52 1.12-5.12l-5.6-8.32c-0.682-1.013-1.824-1.67-3.12-1.67-2.071 0-3.75 1.679-3.75 3.75 0 0.775 0.235 1.495 0.638 2.093l-0.008-0.013 5.6 8.32c0.672 0.974 1.782 1.605 3.039 1.605 0.778 0 1.499-0.241 2.093-0.653l-0.012 0.008zM35.2 32c-1.92 0-3.52-1.6-3.52-3.68v-24.64c0-2.032 1.648-3.68 3.68-3.68s3.68 1.648 3.68 3.68v0 24.64c0 2.080-1.6 3.68-3.68 3.68zM82.88 28.32c0-2.080-1.6-3.84-3.68-3.84-4.728 0-8.56-3.832-8.56-8.56s3.832-8.56 8.56-8.56v0c2.032 0 3.68-1.648 3.68-3.68s-1.648-3.68-3.68-3.68v0c-8.837 0-16 7.163-16 16s7.163 16 16 16v0c2.080 0 3.68-1.6 3.68-3.68zM258.24 32c-0.96 0-1.92-0.48-2.72-1.28l-22.4-24.32c-0.585-0.649-0.944-1.513-0.944-2.461 0-2.032 1.648-3.68 3.68-3.68 0.987 0 1.884 0.389 2.545 1.022l-0.001-0.001 22.4 24.32c0.642 0.662 1.037 1.565 1.037 2.561 0 2.032-1.648 3.68-3.68 3.68-0.027 0-0.054-0-0.081-0.001l0.004 0zM159.2 28.32c0-2.080-1.6-3.84-3.68-3.84-4.728 0-8.56-3.832-8.56-8.56s3.832-8.56 8.56-8.56v0c2.032 0 3.68-1.648 3.68-3.68s-1.648-3.68-3.68-3.68v0c-8.837 0-16 7.163-16 16s7.163 16 16 16v0c2.080 0 3.68-1.6 3.68-3.68zM225.6 28.32v-24.64c0-2.077-1.683-3.76-3.76-3.76s-3.76 1.683-3.76 3.76v0 24.64c0 2.077 1.683 3.76 3.76 3.76s3.76-1.683 3.76-3.76v0zM104 32c2.080 0 3.68-1.6 3.68-3.68v-13.44l6.72 8.96c0.685 0.898 1.755 1.472 2.96 1.472 2.050 0 3.712-1.662 3.712-3.712 0-0.845-0.283-1.625-0.759-2.249l-13.113-17.911c-0.671-0.979-1.784-1.612-3.044-1.612-2.032 0-3.68 1.648-3.68 3.68 0 0.061 0.001 0.121 0.004 0.18l-0-0.008v24.64c0 2.080 1.6 3.68 3.68 3.68z"></path>
<path fill="#5d626a" style="fill: var(--color3, #5d626a)" d="M207.040 32c-2.080 0-3.68-1.6-3.68-3.68v-13.44l-6.72 8.96c-0.685 0.898-1.755 1.472-2.96 1.472-2.050 0-3.712-1.662-3.712-3.712 0-0.845 0.283-1.625 0.759-2.249l-0.007 0.009 13.44-17.92c0.671-0.979 1.784-1.612 3.044-1.612 2.032 0 3.68 1.648 3.68 3.68 0 0.061-0.001 0.121-0.004 0.18l0-0.008v24.64c0 2.080-1.76 3.68-3.84 3.68zM48.48 23.68c5.361-1.276 9.287-6.024 9.287-11.689 0-6.461-5.106-11.73-11.504-11.99l-0.024-0.001h-10.88c-2.032 0-3.68 1.648-3.68 3.68s1.648 3.68 3.68 3.68v0h10.88c0.12-0.011 0.259-0.018 0.4-0.018 2.484 0 4.498 2.014 4.498 4.498 0 2.343-1.792 4.268-4.080 4.479l-0.018 0.001c-1.739 0.349-3.030 1.864-3.030 3.68 0 2.071 1.679 3.75 3.75 3.75 0.255 0 0.504-0.025 0.744-0.074l-0.024 0.004zM238.4 30.72l22.88-24.32c0.584-0.657 0.94-1.527 0.94-2.48 0-2.066-1.675-3.74-3.74-3.74-1.112 0-2.112 0.486-2.797 1.257l-0.003 0.004-22.4 24.48c-0.596 0.652-0.961 1.523-0.961 2.48 0 2.033 1.648 3.681 3.681 3.681 1.076 0 2.044-0.462 2.717-1.198l0.003-0.003zM171.52 16c0-8.837-7.163-16-16-16v0c-2.032 0-3.68 1.648-3.68 3.68s1.648 3.68 3.68 3.68v0c4.728 0 8.56 3.832 8.56 8.56s-3.832 8.56-8.56 8.56v0c-2.077 0-3.76 1.683-3.76 3.76s1.683 3.76 3.76 3.76v0c8.837 0 16-7.163 16-16v0zM95.2 16c0-8.837-7.163-16-16-16v0c-2.032 0-3.68 1.648-3.68 3.68s1.648 3.68 3.68 3.68v0c4.728 0 8.56 3.832 8.56 8.56s-3.832 8.56-8.56 8.56v0c-2.077 0-3.76 1.683-3.76 3.76s1.683 3.76 3.76 3.76v0c8.837 0 16-7.163 16-16v0zM26.56 12c0-6.56-5.28-12-12-12h-10.88c-2.032 0-3.68 1.648-3.68 3.68s1.648 3.68 3.68 3.68v0h10.88c2.518 0 4.56 2.042 4.56 4.56s-2.042 4.56-4.56 4.56h-10.88c-2.032 0-3.68 1.648-3.68 3.68s1.648 3.68 3.68 3.68v0h10.88c6.72 0 12-5.28 12-11.84zM130.72 32c-2.080 0-3.68-1.6-3.68-3.68v-13.44l-6.72 8.96c-0.685 0.898-1.755 1.472-2.96 1.472-2.050 0-3.712-1.662-3.712-3.712 0-0.845 0.283-1.625 0.759-2.249l-0.007 0.009 13.6-17.92c0.676-0.744 1.647-1.209 2.727-1.209 1.951 0 3.548 1.519 3.672 3.438l0.001 0.011v24.64c0 2.080-1.6 3.68-3.84 3.68z"></path>
<path fill="#1f2c37" style="fill: var(--color4, #1f2c37)" d="M196.8 19.2l-3.2-3.84-2.88 4c-0.48 0.64-0.8 1.44-0.8 2.24 0.344 1.704 1.83 2.97 3.611 2.97 2.032 0 3.68-1.648 3.68-3.68 0-0.617-0.152-1.199-0.42-1.71l0.010 0.020zM50.88 17.92c-1.6-2.080-4.8-2.080-6.080 0-0.96 1.12-0.96 2.88-0.16 4.16 1.92 3.2 6.4 1.28 8.64-0.48l-2.4-3.68zM3.68 7.36h3.68v-3.68c0-2.032-1.648-3.68-3.68-3.68s-3.68 1.648-3.68 3.68c0 2.032 1.648 3.68 3.68 3.68v0zM3.68 24h3.68v-7.52h-3.68c-2.032 0-3.68 1.648-3.68 3.68s1.648 3.68 3.68 3.68v0zM247.040 21.44l5.12-5.44-5.12-5.44-4.96 5.44 4.96 5.44zM79.2 7.36c2.032 0 3.68-1.648 3.68-3.68s-1.648-3.68-3.68-3.68v0c-2.032 0-3.68 1.648-3.68 3.68s1.648 3.68 3.68 3.68v0zM79.2 32c2.077 0 3.76-1.683 3.76-3.76s-1.683-3.76-3.76-3.76v0c-2.077 0-3.76 1.683-3.76 3.76s1.683 3.76 3.76 3.76v0zM155.52 7.36c2.032 0 3.68-1.648 3.68-3.68s-1.648-3.68-3.68-3.68v0c-2.032 0-3.68 1.648-3.68 3.68s1.648 3.68 3.68 3.68v0zM155.52 32c2.077 0 3.76-1.683 3.76-3.76s-1.683-3.76-3.76-3.76v0c-2.077 0-3.76 1.683-3.76 3.76s1.683 3.76 3.76 3.76v0zM35.2 7.36h3.84v-3.68c0-2.032-1.648-3.68-3.68-3.68s-3.68 1.648-3.68 3.68c0 2.032 1.648 3.68 3.68 3.68v0zM120.32 19.2l-2.88-3.84-3.040 4c-0.48 0.64-0.8 1.44-0.8 2.24 0.094 1.957 1.704 3.508 3.676 3.508 2.032 0 3.68-1.648 3.68-3.68 0-0.772-0.238-1.489-0.644-2.080l0.008 0.012z"></path>
</symbol>
<symbol id="icon-plus" viewBox="0 0 32 32">
<path stroke-linejoin="miter" stroke-linecap="butt" stroke-miterlimit="4" stroke-width="1.3913" d="M16 0v32M0 16h32"></path>
</symbol>
<symbol id="icon-printer" viewBox="0 0 37 32">
<path d="M29.714 8.457h-8.343v-1.6h8.343v1.6z"></path>
<path d="M6.857 30.057v-7.429h-3.771c-1.486 0-2.743-1.143-2.743-2.629v-14.629c0-2.525 2.047-4.571 4.571-4.571v0h26.743c2.525 0 4.571 2.047 4.571 4.571v0 14.629c0 1.486-1.143 2.629-2.743 2.629h-3.771v7.429c0 0.686-0.571 1.143-1.143 1.143h-20.571c-0.571 0-1.143-0.457-1.143-1.143zM29.714 14.4v6.629h4.914v-15.657c0-1.714-1.371-3.086-2.971-3.086h-26.743c-0.001 0-0.001 0-0.002 0-1.641 0-2.971 1.33-2.971 2.971 0 0.040 0.001 0.080 0.002 0.12l-0-0.006v15.657h4.914v-6.629c0-0.686 0.571-1.257 1.143-1.257h20.571c0.571 0 1.143 0.571 1.143 1.257zM8.343 14.629v15.086h19.886v-15.086h-19.886z"></path>
<path d="M14.971 22.629l1.714 2.171 3.2-4.457 4.229 5.714h-11.543l2.514-3.429z"></path>
</symbol>
<symbol id="icon-redarrow" viewBox="0 0 42 32">
<path fill="none" stroke="#f2353f" style="stroke: var(--color2, #f2353f)" stroke-linejoin="miter" stroke-linecap="butt" stroke-miterlimit="4" stroke-width="3.2" d="M24.96 2.24l13.76 13.76-13.76 13.76M0 16h38.4"></path>
</symbol>
<symbol id="icon-redplus" viewBox="0 0 32 32">
<path fill="none" stroke="#f2353f" style="stroke: var(--color2, #f2353f)" stroke-linejoin="miter" stroke-linecap="butt" stroke-miterlimit="4" stroke-width="1.3913" d="M16 0v32M0 16h32"></path>
</symbol>
<symbol id="icon-search" viewBox="0 0 32 32">
<path d="M13.4 26.6c3 0 6-1 8-2.8l7.4 7.4 2.4-2.4-7.4-7.4c1.748-2.241 2.802-5.098 2.802-8.2 0-7.401-5.999-13.4-13.4-13.4s-13.4 5.999-13.4 13.4c0 7.4 5.998 13.399 13.398 13.4h0zM13.4 3.4c5.523 0 10 4.477 10 10s-4.477 10-10 10v0c-5.523 0-10-4.477-10-10s4.477-10 10-10v0z"></path>
</symbol>
<symbol id="icon-t-shirt" viewBox="0 0 34 32">
<path d="M20.9 16c1 0 1.9-0.8 1.9-1.8v-1.8h-3.8v1.8c0 1 0.9 1.9 1.9 1.9z"></path>
<path d="M10.7 1.4h-0.1l-9 3h-0.1c-0.7 0.2-1.2 0.8-1.2 1.6v6c0 1.1 1 2 2.1 1.7l4.6-1.1v16.8c0 1 0.7 1.7 1.7 1.7h16.6c1 0 1.7-0.8 1.7-1.7v-16.8l4.6 1.2c1 0.2 2-0.6 2-1.7v-6.1c0-0.8-0.4-1.4-1-1.6l-9.2-3h-0.1l-1.3-0.5c0 0.5 0 1-0.2 1.5-0.626 2.097-2.537 3.6-4.8 3.6s-4.174-1.503-4.791-3.565l-0.009-0.035c-0.128-0.42-0.201-0.903-0.201-1.403 0-0.034 0-0.068 0.001-0.102l-0 0.005-1.3 0.5zM25.7 3.6c38.783 12.924 40.936 13.737 43.088 14.551l-36.588-12.151v6c0 0.2-0.1 0.3-0.3 0.3l-6.3-1.6v18.6c0 0.1-0.1 0.2-0.3 0.2h-16.6c-0.029 0.018-0.064 0.028-0.102 0.028-0.11 0-0.2-0.090-0.2-0.2 0-0.010 0.001-0.020 0.002-0.029l-0 0.001v-18.5l-6.3 1.6c-0.2 0-0.3-0.1-0.3-0.3v-6.1l0.1-0.3h0.1l6.3-2 2.5-0.9c0.732 2.789 3.229 4.813 6.2 4.813s5.468-2.024 6.19-4.768l0.010-0.045 2.5 0.8z"></path>
</symbol>
</defs>
</svg>
