<svg aria-hidden="true" style="position: absolute; width: 0; height: 0; overflow: hidden;" version="1.1" xmlns="http://www.w3.org/2000/svg" xmlns:xlink="http://www.w3.org/1999/xlink">
<defs>
<symbol id="icon-search" viewBox="0 0 32 32">
<path d="M13.333 26.667c3.077 0 5.905-1.058 8.162-2.813l7.327 7.327 2.357-2.357-7.327-7.327c1.757-2.258 2.815-5.087 2.815-8.163 0-7.352-5.982-13.333-13.333-13.333s-13.333 5.982-13.333 13.333c0 7.352 5.982 13.333 13.333 13.333zM13.333 3.333c5.515 0 10 4.485 10 10s-4.485 10-10 10c-5.515 0-10-4.485-10-10s4.485-10 10-10z"></path>
</symbol>
<symbol id="icon-arrow" viewBox="0 0 39 32">
<path fill="#f2353f" style="fill: var(--color1, #f2353f)" d="M34.588 16.927h-34.245v-1.854h34.245l-13.058-13.057 1.31-1.31 15.295 15.295-15.295 15.295-1.31-1.31 13.058-13.058z"></path>
</symbol>
<symbol id="icon-bus" viewBox="0 0 32 32">
<path fill="#f2353f" style="fill: var(--color1, #f2353f)" d="M10.029 21.834c0 0.844-0.684 1.529-1.529 1.529s-1.529-0.684-1.529-1.529c0-0.844 0.684-1.529 1.529-1.529s1.529 0.684 1.529 1.529z"></path>
<path fill="#f2353f" style="fill: var(--color1, #f2353f)" d="M25.029 21.834c0 0.844-0.684 1.529-1.529 1.529s-1.529-0.684-1.529-1.529c0-0.844 0.684-1.529 1.529-1.529s1.529 0.684 1.529 1.529z"></path>
<path fill="#f2353f" style="fill: var(--color1, #f2353f)" d="M30.035 6v4.175l0.879 0.084c0.17 0.016 0.328 0.055 0.453 0.124 0.107 0.059 0.211 0.149 0.288 0.334 0.040 0.098 0.057 0.206 0.049 0.317l-0.003 0.035v3.265c0 0.384-0.311 0.695-0.695 0.695h-0.971v10.971c0 0.862-0.473 1.617-1.19 2.033l-0.483 0.281v2.686c0 0.385-0.31 0.695-0.695 0.695h-1.667c-0.385 0-0.695-0.31-0.695-0.695v-2.638h-18.61v2.638c0 0.385-0.31 0.695-0.695 0.695h-1.667c-0.385 0-0.695-0.31-0.695-0.695v-2.69l-0.48-0.282c-0.712-0.418-1.18-1.171-1.18-2.029v-10.971h-0.978c-0.385 0-0.695-0.311-0.695-0.695v-3.333c0-0.365 0.278-0.665 0.64-0.694l0.001-0 0.024-0.001c0.021-0.001 0.049-0.003 0.082-0.004l0.926-0.043v-4.257c0-3.14 2.555-5.695 5.695-5.695h16.667c3.14 0 5.695 2.555 5.695 5.695zM3.369 26.972h25.27v-2.172l0.009-8.105h-25.279v10.276zM3.369 15.305h11.943v-8.61h-11.943v8.61zM16.702 15.305h11.943v-8.61h-11.943v8.61zM3.112 5.305h25.789l-0.852-1.461c-0.741-1.27-2.114-2.149-3.709-2.149h-16.667c-1.595 0-2.968 0.879-3.709 2.149l-0.852 1.461z"></path>
</symbol>
<symbol id="icon-t-shirt" viewBox="0 0 36 32">
<path fill="#f2353f" style="fill: var(--color1, #f2353f)" d="M21.823 16.077c1.089 0 1.972-0.883 1.972-1.972v-1.848h-3.943v1.848c0 1.089 0.883 1.972 1.972 1.972z"></path>
<path fill="#f2353f" style="fill: var(--color1, #f2353f)" d="M11.251 0.814l-0.124 0.040c-2.383 0.771-7.058 2.303-9.331 3.048l-0.122 0.040c-0.71 0.233-1.181 0.892-1.181 1.639v6.423c0 1.123 1.056 1.95 2.147 1.677l4.767-1.191v17.395c0 0.954 0.773 1.728 1.728 1.728h17.284c0.956 0 1.728-0.774 1.728-1.728v-17.395l4.767 1.191c1.091 0.273 2.147-0.551 2.147-1.677v-6.423c0-0.747-0.47-1.405-1.182-1.639-2.223-0.729-7.025-2.303-9.451-3.087l-0.124-0.040c-0.791-0.256-1.301-0.418-1.34-0.424-0.002-0-0.002 0-0.002 0 0 0.509-0.073 1.001-0.21 1.466l-0.005 0.015c-0.637 2.142-2.621 3.704-4.971 3.704s-4.333-1.562-4.971-3.704l-0.005-0.015c-0.137-0.465-0.21-0.957-0.21-1.466 0 0-0.001-0-0.002 0-0.039 0.006-0.549 0.169-1.339 0.424zM26.821 3.19c2.348 0.766 5.076 1.66 6.597 2.159 0.095 0.031 0.162 0.116 0.162 0.231v6.423c0 0.162-0.151 0.278-0.305 0.239l-6.608-1.651v19.292c0 0.137-0.11 0.247-0.247 0.247h-17.284c-0.137 0-0.247-0.11-0.247-0.247v-19.292l-6.608 1.651c-0.154 0.038-0.305-0.078-0.305-0.239v-6.423c0-0.115 0.068-0.2 0.161-0.231l0.122-0.040c1.543-0.505 4.19-1.373 6.476-2.119 0.997-0.325 1.925-0.627 2.662-0.866 0.829 2.739 3.372 4.732 6.382 4.732s5.553-1.994 6.382-4.732c0.737 0.239 1.664 0.541 2.661 0.866z"></path>
</symbol>
<symbol id="icon-chalkboard" viewBox="0 0 35 32">
<path fill="#f2353f" style="fill: var(--color1, #f2353f)" d="M7.655 16.753h5.187v1.527h-5.187v-1.527z"></path>
<path fill="#f2353f" style="fill: var(--color1, #f2353f)" d="M32.209 25.6h-9.454l3.934 5.245-1.221 0.916-4.621-6.162h-6.557l-4.621 6.162-1.221-0.916 3.934-5.245h-9.454c-1.429 0-2.593-1.164-2.593-2.593v-20.131c0-1.429 1.164-2.593 2.593-2.593h29.281c1.429 0 2.593 1.164 2.593 2.593v20.131c0 1.429-1.164 2.593-2.593 2.593zM1.861 1.809v22.264h31.416l-0.002-22.264h-31.414z"></path>
</symbol>
<symbol id="icon-beer" viewBox="0 0 34 32">
<path fill="#f2353f" style="fill: var(--color1, #f2353f)" d="M7.366 7.316h1.191v15.557h-1.191v-15.557z"></path>
<path fill="#f2353f" style="fill: var(--color1, #f2353f)" d="M18.181 7.316h1.22v15.557h-1.22v-15.557z"></path>
<path fill="#f2353f" style="fill: var(--color1, #f2353f)" d="M26.445 1.006v4.548h4.548c1.376 0 2.496 1.12 2.496 2.496v14.088c0 1.376-1.12 2.496-2.496 2.496h-4.548v2.787c0 2.346-1.911 4.257-4.257 4.257h-17.61c-2.346 0-4.257-1.911-4.257-4.257v-26.415c0-0.406 0.328-0.735 0.735-0.735h24.654c0.406 0 0.735 0.329 0.735 0.735zM24.976 27.422v-25.681h-23.185v25.681c0 1.536 1.248 2.787 2.787 2.787h17.61c1.54 0 2.787-1.251 2.787-2.787zM26.445 23.165h5.575v-16.141h-5.575v16.141z"></path>
</symbol>
<symbol id="icon-copy" viewBox="0 0 32 32">
<path fill="#f2353f" style="fill: var(--color1, #f2353f)" d="M6.971 16.972h8.057v1.39h-8.057v-1.39z"></path>
<path fill="#f2353f" style="fill: var(--color1, #f2353f)" d="M6.971 23.638h8.057v1.39h-8.057v-1.39z"></path>
<path fill="#f2353f" style="fill: var(--color1, #f2353f)" d="M29.333 21.695h-7.638v7.638c0 1.302-1.060 2.362-2.362 2.362h-16.667c-1.302 0-2.362-1.060-2.362-2.362v-16.667c0-1.302 1.060-2.362 2.362-2.362h7.638v-7.638c0-1.302 1.060-2.362 2.362-2.362h16.667c1.302 0 2.362 1.060 2.362 2.362v16.667c0 1.302-1.060 2.362-2.362 2.362zM1.695 11.695v18.61h18.613l-0.004-18.61h-18.609zM21.695 20.305h8.61v-18.61h-18.61v8.61h7.638c1.302 0 2.362 1.060 2.362 2.362v7.638z"></path>
</symbol>
<symbol id="icon-printer" viewBox="0 0 37 32">
<path fill="#f2353f" style="fill: var(--color1, #f2353f)" d="M30.65 8.114h-8.749v-1.77h8.749v1.77z"></path>
<path fill="#f2353f" style="fill: var(--color1, #f2353f)" d="M6.748 30.539v-7.662h-3.934c-1.551 0-2.814-1.263-2.814-2.814v-15.262c0-2.645 2.155-4.8 4.8-4.8h27.801c2.645 0 4.8 2.155 4.8 4.8v15.262c0 1.551-1.263 2.814-2.814 2.814h-3.938v7.662c0 0.732-0.597 1.328-1.328 1.328h-21.246c-0.732 0-1.328-0.596-1.328-1.328zM30.65 14.264v6.956h5.095v-16.42c0-1.733-1.407-3.143-3.143-3.143h-27.801c-1.733 0-3.143 1.41-3.143 3.143v16.42h5.091v-6.956c0-0.732 0.597-1.328 1.328-1.328h21.246c0.732 0 1.328 0.597 1.328 1.328zM8.28 14.468v15.866h20.84l-0.003-15.866h-20.837z"></path>
<path fill="#f2353f" style="fill: var(--color1, #f2353f)" d="M15.296 22.786l1.702 2.269 3.404-4.539 4.426 5.901h-12.255l2.723-3.631z"></path>
</symbol>
<symbol id="icon-codepen" viewBox="0 0 32 32">
<path fill="#f2353f" style="fill: var(--color1, #f2353f)" d="M16.246 0.262l15.294 10.147c0.14 0.089 0.225 0.25 0.222 0.403l-0 0.008v10.283l0 0.008c0.002 0.083-0.022 0.177-0.083 0.268l-0.001 0.002c-0.033 0.050-0.079 0.095-0.138 0.133l-0.007 0.004-15.296 10.151c-0.070 0.049-0.157 0.079-0.262 0.079-0.098 0-0.186-0.029-0.261-0.081l-0.006-0.004-15.281-10.14c-0.159-0.106-0.237-0.235-0.237-0.428v-10.275l-0-0.008c-0.002-0.086 0.021-0.176 0.078-0.261 0.040-0.059 0.088-0.103 0.132-0.13l0.013-0.008 15.302-10.155c0.13-0.090 0.392-0.091 0.525 0.001l0.006 0.004zM23.582 15.36l6.859-4.551-13.998-9.285v9.035l7.139 4.801zM15.506 10.56v-9.036l-13.994 9.288 6.855 4.549 7.139-4.801zM7.524 15.93l-6.391-4.243v8.542l6.391-4.299zM1.506 21.113l14 9.287v-9.172l-7.136-4.734-6.864 4.619zM9.218 15.923l6.755 4.488 6.762-4.488-6.762-4.546-6.755 4.546zM16.445 21.226v9.174l13.998-9.289-6.86-4.62-7.137 4.734zM24.427 15.93l6.394 4.299v-8.542l-6.394 4.243z"></path>
</symbol>
</defs>
</svg>
